<svg width="46" height="46" viewBox="0 0 46 46" fill="none" xmlns="http://www.w3.org/2000/svg">
<path d="M0 0V46H46V0H0ZM19.5444 33.02L15.2915 24.2551L11.1881 32.9991H7.18871L13.0741 21.7867L7.38371 10.4488L11.5347 10.4488L15.5634 19.0673L19.5585 10.4279H23.4549L17.7599 21.4311L23.7913 33.02H19.5444ZM37.779 32.0996C36.0218 32.9363 34.181 33.3129 32.4238 33.3129C27.8845 33.3338 24.6421 30.5307 24.6421 24.8408C24.7899 19.0121 28.6736 15.7597 34.1182 16.2015V10.4488H37.8418V29.8195C37.8494 32.1297 38.1044 31.9074 37.779 32.0996ZM34.1182 19.4857V29.8404C30.443 30.794 28.411 28.5573 28.4284 24.6735C28.4423 20.6903 31.0592 18.6231 34.1182 19.4857Z" fill="#FF0164"/>
</svg>
