<svg width="36" height="36" viewBox="0 0 36 36" fill="none" xmlns="http://www.w3.org/2000/svg">
<path fill-rule="evenodd" clip-rule="evenodd" d="M34.013 36C35.1102 36 35.9997 35.1103 35.9997 34.0132V1.98685C35.9997 0.889294 35.11 0 34.013 0H1.98685C0.889294 0 0 0.889428 0 1.98685V34.013C0 35.1103 0.889294 35.9999 1.98685 35.9999H34.013V36ZM24.8393 36V22.0589H29.5187L30.2193 16.6257H24.8391V13.1569C24.8391 11.5839 25.2759 10.512 27.5317 10.512L30.4086 10.5106V5.65126C29.911 5.58516 28.2031 5.43719 26.2164 5.43719C22.0683 5.43719 19.2285 7.96911 19.2285 12.619V16.6257H14.537V22.0589H19.2285V35.9999H24.8393V36Z" fill="#FF0164"/>
</svg>
