<svg width="32" height="46" viewBox="0 0 32 46" fill="none" xmlns="http://www.w3.org/2000/svg">
<path d="M0 8.60635C0 3.85319 3.85558 0 8.61172 0H23.3883C28.1444 0 32 3.85319 32 8.60635C32 11.6161 30.4541 14.265 28.1125 15.8032C30.4541 17.3416 32 19.9904 32 23.0002C32 27.7534 28.1444 31.6066 23.3883 31.6066H23.2013C20.9716 31.6066 18.9398 30.7597 17.4104 29.3703V37.3002C17.4104 42.1167 13.4541 46 8.65811 46C3.91386 46 0 42.1586 0 37.3936C0 34.384 1.54577 31.7352 3.88717 30.1969C1.54577 28.6586 0 26.0098 0 23.0002C0 19.9904 1.54591 17.3416 3.88747 15.8032C1.54591 14.265 0 11.6161 0 8.60635ZM14.5896 17.2129H8.61172C5.41348 17.2129 2.82084 19.804 2.82084 23.0002C2.82084 26.1841 5.39349 28.7674 8.57468 28.7874C8.587 28.7873 8.59931 28.7873 8.61172 28.7873H14.5896V17.2129ZM17.4104 23.0002C17.4104 26.1964 20.003 28.7875 23.2013 28.7875H23.3883C26.5865 28.7875 29.1791 26.1964 29.1791 23.0002C29.1791 19.804 26.5865 17.2129 23.3883 17.2129H23.2013C20.003 17.2129 17.4104 19.804 17.4104 23.0002ZM8.61172 31.6066C8.59931 31.6066 8.587 31.6065 8.57468 31.6065C5.39349 31.6263 2.82084 34.2097 2.82084 37.3936C2.82084 40.5781 5.44812 43.1809 8.65811 43.1809C11.9198 43.1809 14.5896 40.5362 14.5896 37.3002V31.6066H8.61172ZM8.61172 2.8191C5.41348 2.8191 2.82084 5.41015 2.82084 8.60635C2.82084 11.8026 5.41348 14.3936 8.61172 14.3936H14.5896V2.8191H8.61172ZM17.4104 14.3936H23.3883C26.5865 14.3936 29.1791 11.8026 29.1791 8.60635C29.1791 5.41015 26.5865 2.8191 23.3883 2.8191H17.4104V14.3936Z" fill="#FF0164"/>
</svg>
