<svg width="47" height="46" viewBox="0 0 47 46" fill="none" xmlns="http://www.w3.org/2000/svg">
<path d="M37.9679 37.3285C36.0198 39.0856 38.1971 40.8809 40.107 39.735C40.5271 39.2766 40.107 37.7487 37.9679 37.3285ZM9.77815 40.1551C11.306 41.4538 13.6743 39.8113 14.3618 37.9779C12.8721 36.0298 7.3717 38.0543 9.77815 40.1551ZM38.7701 35.5332C38.7701 36.4118 45.1872 36.9847 45.1872 35.3422C44.2705 32.6684 39.534 32.8212 38.7701 35.5332ZM44.7289 19.8341L26.8906 1.57565C24.7134 -0.525216 21.0846 -0.525216 19.0219 1.57565L1.79487 19.1847C-4.01115 26.404 5.76741 25.5637 9.93094 27.6263C11.4206 29.1542 4.16311 30.3002 5.69101 31.8281C7.18072 33.356 14.782 34.7693 16.2717 36.3354L14.7056 41.0337C16.1953 42.5616 19.6713 41.1101 20.3207 44.6624C20.779 47.1835 26.585 45.732 29.4117 43.6693C30.9014 42.1414 26.5469 42.2942 28.0366 40.7281C31.7799 36.9083 35.2559 39.353 36.5164 35.495C37.1658 33.5852 31.016 32.592 32.5057 31.0259C36.8602 28.5431 51.7954 26.9006 44.7289 19.8341V19.8341ZM23.3383 31.7135C21.5048 32.21 12.643 28.5813 14.8584 28.5813C15.3168 28.8487 22.2687 30.262 23.9876 30.5676C24.5988 30.6821 24.1786 31.2933 23.3383 31.7135ZM32.9258 12.0418L29.5645 9.32974L28.9151 13.3405L26.0885 11.8508L21.5812 14.7156L20.0915 8.79498L17.6086 13.0731H13.9035C12.3756 13.0731 12.2228 11.0486 13.5979 9.67352C16.0043 7.07609 18.7546 4.40226 20.2443 2.87436C21.734 1.34646 24.3696 1.34646 25.8593 2.83616L32.6585 9.74991C33.3078 10.3993 33.3078 11.6598 32.9258 12.0418V12.0418Z" fill="#FF0164"/>
</svg>
