<svg width="47" height="46" viewBox="0 0 47 46" fill="none" xmlns="http://www.w3.org/2000/svg">
<path d="M0 1.21988e-06V46H46.7799V0L0 1.21988e-06ZM43.0586 42.3415H3.71963V3.65846H43.0586V42.3415V42.3415ZM16.6967 11.3135C14.2617 11.3135 11.305 11.3917 11.305 11.3917V30.2583H15.2574V24.1954C15.2574 24.1954 15.949 24.1869 16.6967 24.1563C26.0853 24.1649 26.702 10.8253 16.6967 11.3135ZM16.5913 20.8496C15.9541 20.8564 15.6856 20.8768 15.2557 20.836V14.3212C15.2557 14.3212 16.0935 14.2923 16.9057 14.3212C21.2911 14.5323 21.0271 20.9609 16.5913 20.8496ZM31.6882 21.4282C29.9788 20.8281 29.4393 20.4775 29.4393 19.8148C29.4393 19.096 30.0374 18.6644 31.0909 18.6644C32.2855 18.6644 34.0935 19.4359 34.7205 19.7825V16.6032C33.8675 16.1716 32.5709 15.6415 30.9482 15.6415C27.5038 15.6415 25.2829 17.6279 25.2829 20.277C25.254 21.9167 26.3636 23.0892 29.2404 24.068C30.8632 24.6151 31.2897 25.3713 31.2897 26.0918C31.2897 26.8122 30.7494 27.2727 29.4393 27.2727C28.158 27.2727 26.2787 26.5404 25.4817 26.0527V29.1912C26.5353 29.7655 28.0612 30.311 29.4393 30.3534C33.4545 30.4792 35.4732 28.3959 35.4732 25.7757C35.4444 23.7026 34.333 22.3567 31.6882 21.4282Z" fill="#FF0164"/>
</svg>
