<svg width="62" height="46" viewBox="0 0 62 46" fill="none" xmlns="http://www.w3.org/2000/svg">
<path d="M52.7757 26.4773C50.6419 26.4885 48.7874 27.0024 47.2345 27.7621C46.6647 26.6337 46.095 25.6283 45.9944 24.8909C45.8827 24.0307 45.7486 23.5056 45.8827 22.4778C46.0168 21.45 46.62 19.9865 46.6089 19.8748C46.5977 19.7631 46.4748 19.238 45.2459 19.2268C44.017 19.2157 42.9557 19.4614 42.8328 19.7854C42.7099 20.1094 42.4753 20.8467 42.3189 21.6064C42.1066 22.7236 39.8611 26.712 38.5763 28.8011C38.163 27.9855 37.8055 27.2705 37.7273 26.7008C37.6155 25.8406 37.4815 25.3155 37.6155 24.2877C37.7496 23.2599 38.3529 21.7963 38.3417 21.6846C38.3305 21.5729 38.2077 21.0478 36.9788 21.0367C35.7499 21.0255 34.6885 21.2713 34.5656 21.5953C34.4427 21.9192 34.3087 22.6789 34.0517 23.4163C33.7948 24.1536 30.8119 30.812 30.0299 32.5325C29.6277 33.415 29.2814 34.1189 29.0356 34.5993C29.0356 34.5993 29.0244 34.6328 28.9909 34.6886C28.7786 35.102 28.6557 35.3254 28.6557 35.3254C28.6557 35.3254 28.6557 35.3254 28.6557 35.3366C28.4882 35.6382 28.3094 35.9175 28.22 35.9175C28.153 35.9175 28.0301 35.1132 28.2424 34.0183C28.6893 31.7058 29.7506 28.1084 29.7394 27.9855C29.7394 27.9185 29.9405 27.2929 29.0468 26.9689C28.1754 26.6449 27.8625 27.1812 27.7843 27.1812C27.7061 27.1812 27.6503 27.3711 27.6503 27.3711C27.6503 27.3711 28.6222 23.3269 25.7958 23.3269C24.0306 23.3269 21.5951 25.2596 20.3886 27.0024C19.6289 27.4158 18.009 28.2984 16.2774 29.248C15.6182 29.6166 14.9367 29.9853 14.2999 30.3316C14.2553 30.2869 14.2106 30.2311 14.1659 30.1864C10.7473 26.5332 4.42405 23.9525 4.69217 19.0481C4.79272 17.2606 5.40717 12.5684 16.8359 6.87079C26.2426 2.23448 33.7278 3.51924 35.0237 6.36806C36.8782 10.4346 31.013 17.9868 21.2935 19.0816C17.5845 19.495 15.6406 18.065 15.149 17.5287C14.6351 16.9701 14.5569 16.9366 14.367 17.0483C14.0542 17.2159 14.2553 17.7186 14.367 18.0091C14.6574 18.7688 15.8528 20.1094 17.8749 20.7685C19.6624 21.3495 24.0083 21.6735 29.2702 19.6402C35.1577 17.3611 39.7605 11.0267 38.4087 5.72009C37.057 0.33527 28.1195 -1.44105 19.6624 1.56417C14.6351 3.35166 9.18325 6.16696 5.26194 9.83132C0.603285 14.1883 -0.134056 17.9756 0.167583 19.562C1.25125 25.1926 9.01567 28.8569 12.1214 31.5717C11.965 31.6611 11.8198 31.7393 11.6969 31.8063C10.144 32.5772 4.22296 35.6718 2.74828 38.9451C1.0725 42.6541 3.0164 45.313 4.30116 45.6705C8.2895 46.7766 12.3896 44.788 14.5904 41.5035C16.7913 38.2189 16.5231 33.9513 15.5065 31.9962C15.4953 31.9739 15.4842 31.9515 15.4618 31.9292C15.864 31.6946 16.2774 31.4488 16.6795 31.2142C17.4727 30.745 18.2548 30.3093 18.9251 29.9518C18.5452 30.9908 18.2659 32.2308 18.1319 34.0183C17.9643 36.1186 18.8245 38.8446 19.9529 39.9171C20.4556 40.3863 21.0477 40.3974 21.4276 40.3974C22.7458 40.3974 23.338 39.3026 23.9971 38.0067C24.8015 36.4203 25.5276 34.5769 25.5276 34.5769C25.5276 34.5769 24.6227 39.5596 27.0805 39.5596C27.9743 39.5596 28.8792 38.3977 29.2814 37.8056V37.8168C29.2814 37.8168 29.3037 37.7832 29.3484 37.705C29.4378 37.5598 29.4936 37.4704 29.4936 37.4704V37.4481C29.8511 36.8225 30.6555 35.4036 31.8509 33.0464C33.3926 30.0076 34.8785 26.2092 34.8785 26.2092C34.8785 26.2092 35.0125 27.1365 35.4706 28.6782C35.7387 29.5831 36.2973 30.5774 36.7441 31.5382C36.3866 32.0409 36.1632 32.3202 36.1632 32.3202C36.1632 32.3202 36.1632 32.3202 36.1744 32.3314C35.8839 32.7112 35.5711 33.1246 35.2248 33.5268C34.007 34.9791 32.5547 36.6437 32.3536 37.1241C32.119 37.6939 32.1749 38.1072 32.6217 38.4424C32.9457 38.6882 33.5267 38.7217 34.1188 38.6882C35.2136 38.6099 35.9845 38.3418 36.3643 38.1742C36.9564 37.962 37.6491 37.638 38.297 37.1576C39.4924 36.275 40.2186 35.0126 40.1516 33.348C40.118 32.4319 39.8164 31.5158 39.4477 30.6556C39.5594 30.4992 39.66 30.3428 39.7717 30.1864C41.6598 27.4269 43.1233 24.3994 43.1233 24.3994C43.1233 24.3994 43.2573 25.3266 43.7154 26.8684C43.9388 27.6504 44.3968 28.4994 44.799 29.3262C43.0227 30.7673 41.9279 32.4431 41.5369 33.5379C40.833 35.5712 41.3805 36.4873 42.4194 36.6996C42.8887 36.8001 43.559 36.5767 44.0505 36.3644C44.6761 36.1633 45.4135 35.817 46.1173 35.3031C47.3127 34.4205 48.4634 33.1916 48.3964 31.527C48.3628 30.7673 48.1618 30.0188 47.8825 29.2926C49.3907 28.667 51.3346 28.3207 53.8147 28.6112C59.1325 29.2368 60.1826 32.5548 59.9815 33.9513C59.7805 35.3478 58.6633 36.1075 58.2946 36.3421C57.9259 36.5767 57.803 36.6549 57.8366 36.8225C57.8812 37.0682 58.06 37.0571 58.3728 37.0124C58.8085 36.9342 61.1658 35.884 61.2663 33.3145C61.4339 30.03 58.3058 26.4438 52.7757 26.4773ZM11.7528 40.3081C9.98762 42.2296 7.52982 42.9558 6.46849 42.3413C5.32897 41.6822 5.77584 38.8446 7.94318 36.8113C9.26145 35.5712 10.9596 34.4205 12.0879 33.7167C12.3449 33.5603 12.7247 33.3368 13.1828 33.0576C13.261 33.0129 13.3057 32.9905 13.3057 32.9905C13.395 32.9347 13.4844 32.8788 13.5738 32.8229C14.367 35.7276 13.6073 38.286 11.7528 40.3081ZM24.6004 31.5717C23.9859 33.0687 22.7012 36.9007 21.9191 36.6884C21.2488 36.5096 20.8355 33.605 21.7851 30.7338C22.2655 29.2926 23.2821 27.5722 23.8742 26.9019C24.835 25.8294 25.8963 25.4719 26.1533 25.9076C26.4772 26.4773 24.9802 30.6333 24.6004 31.5717ZM35.2024 36.6437C34.9455 36.7778 34.6997 36.8671 34.588 36.8001C34.5098 36.7554 34.6997 36.5767 34.6997 36.5767C34.6997 36.5767 36.0291 35.1467 36.5542 34.4987C36.8559 34.1189 37.2134 33.672 37.5932 33.1693V33.3145C37.5932 35.0238 35.9398 36.1745 35.2024 36.6437ZM43.3802 34.778C43.1903 34.644 43.2238 34.1971 43.8606 32.8006C44.1064 32.2532 44.6873 31.3371 45.6816 30.4545C45.7933 30.812 45.8715 31.1583 45.8604 31.4823C45.8492 33.6385 44.3075 34.4429 43.3802 34.778Z" fill="#FF0164"/>
</svg>
