<svg width="47" height="46" viewBox="0 0 47 46" fill="none" xmlns="http://www.w3.org/2000/svg">
<mask id="mask0_37_5" style="mask-type:alpha" maskUnits="userSpaceOnUse" x="0" y="0" width="47" height="46">
<path d="M32.7884 45.8034C33.5167 46.0871 34.3471 46.0689 35.0823 45.7152L44.6019 41.1346C45.6022 40.6532 46.2383 39.6407 46.2383 38.5301V7.47001C46.2383 6.35935 45.6022 5.34697 44.6019 4.86562L35.0823 0.284773C34.1176 -0.179406 32.9885 -0.0657109 32.142 0.549807C32.021 0.637736 31.9057 0.735909 31.7977 0.8441L13.5733 17.4705L5.63515 11.4448C4.89619 10.8839 3.86258 10.9298 3.17627 11.5541L0.630242 13.8701C-0.209252 14.6338 -0.210215 15.9545 0.628164 16.7194L7.51239 22.9999L0.628164 29.2806C-0.210215 30.0455 -0.209252 31.3662 0.630242 32.1298L3.17627 34.4457C3.86258 35.0701 4.89619 35.116 5.63515 34.5552L13.5733 28.5294L31.7977 45.1559C32.086 45.4443 32.4245 45.6616 32.7884 45.8034ZM34.6858 12.5033L20.8576 22.9999L34.6858 33.4966V12.5033Z" fill="white"/>
</mask>
<g mask="url(#mask0_37_5)">
<path d="M44.6302 4.87286L35.1031 0.285706C34.0004 -0.245255 32.6824 -0.0212834 31.8169 0.844168L0.628545 29.2807C-0.210343 30.0456 -0.209379 31.3663 0.630625 32.1299L3.17819 34.4458C3.86494 35.0702 4.89918 35.1161 5.63857 34.5553L43.1966 6.06288C44.4566 5.10701 46.2664 6.0057 46.2664 7.58727V7.47666C46.2664 6.36648 45.6304 5.35446 44.6302 4.87286Z" fill="#FF0164"/>
<path d="M44.6302 41.1271L35.1031 45.7143C34.0004 46.2451 32.6824 46.0211 31.8169 45.1558L0.628545 16.7192C-0.210343 15.9544 -0.209379 14.6336 0.630625 13.87L3.17819 11.554C3.86494 10.9297 4.89918 10.8837 5.63857 11.4447L43.1966 39.937C44.4566 40.8928 46.2664 39.9942 46.2664 38.4126V38.5233C46.2664 39.6334 45.6304 40.6454 44.6302 41.1271Z" fill="#FF0164"/>
<path d="M35.0732 45.718C33.9702 46.2485 32.6522 46.0244 31.7867 45.1589C32.853 46.2252 34.6766 45.4699 34.6766 43.9617V2.04406C34.6766 0.53589 32.853 -0.219411 31.7867 0.84703C32.6522 -0.0185016 33.9702 -0.242789 35.0732 0.287703L44.5987 4.86855C45.5997 5.3499 46.2362 6.36229 46.2362 7.47295V38.533C46.2362 39.6437 45.5997 40.656 44.5987 41.1374L35.0732 45.718Z" fill="#FF0164"/>
<path d="M32.7884 45.8034C33.5167 46.087 34.3472 46.0689 35.0821 45.7153L44.6018 41.1344C45.6022 40.6531 46.2384 39.6407 46.2384 38.5301V7.47C46.2384 6.35934 45.6022 5.34696 44.602 4.86561L35.0821 0.284774C34.1176 -0.179406 32.9886 -0.0657112 32.1418 0.549806C32.021 0.637735 31.9058 0.735909 31.7976 0.844099L13.5733 17.4705L5.63514 11.4448C4.8962 10.8839 3.86257 10.9298 3.17626 11.5541L0.630242 13.8701C-0.209252 14.6338 -0.210215 15.9545 0.628164 16.7194L7.5124 23L0.628164 29.2806C-0.210215 30.0455 -0.209252 31.3662 0.630242 32.1299L3.17626 34.4458C3.86257 35.0702 4.8962 35.116 5.63514 34.5552L13.5733 28.5294L31.7976 45.1559C32.0858 45.4443 32.4245 45.6616 32.7884 45.8034ZM34.6858 12.5033L20.8577 23L34.6858 33.4966V12.5033Z" fill="url(#paint0_linear_37_5)" fill-opacity="0.25"/>
</g>
<defs>
<linearGradient id="paint0_linear_37_5" x1="23.1192" y1="-1.80157e-07" x2="23.1192" y2="45.9999" gradientUnits="userSpaceOnUse">
<stop stop-color="white"/>
<stop offset="1" stop-color="white" stop-opacity="0"/>
</linearGradient>
</defs>
</svg>
