<svg viewBox="0 0 700 700" xmlns:xlink="http://www.w3.org/1999/xlink" xmlns="http://www.w3.org/2000/svg">
   <defs>
      <linearGradient id="prefix__c" x2="1" gradientTransform="rotate(-132.814 882.273 42.293) scale(1344.95123)"
         gradientUnits="userSpaceOnUse">
         <stop stop-color="#dae3fe" offset="0" />
         <stop stop-color="#e9effd" offset="1" />
      </linearGradient>
      <linearGradient id="prefix__d" x2="1" gradientTransform="rotate(90.432 469.244 66.306) scale(1027.81531)"
         gradientUnits="userSpaceOnUse">
         <stop stop-color="#dae3fe" offset="0" />
         <stop stop-color="#e9effd" offset="1" />
      </linearGradient>
      <linearGradient id="prefix__a" x2="1" gradientTransform="matrix(-20432 22054 22054 20432 33897 1097.4)"
         gradientUnits="userSpaceOnUse">
         <stop stop-color="#c4d5fd" offset="0" />
         <stop stop-color="#ceddfc" offset="1" />
      </linearGradient>
      <linearGradient id="prefix__m" x2="1" gradientTransform="rotate(-33.502 573.107 -706.49) scale(1245.5987)"
         gradientUnits="userSpaceOnUse">
         <stop stop-color="#09005d" offset="0" />
         <stop stop-color="#1a0f91" offset="1" />
      </linearGradient>
      <linearGradient id="prefix__n" x2="1" gradientTransform="translate(1205.385 .085) scale(5.87554)"
         gradientUnits="userSpaceOnUse">
         <stop stop-color="#dae3fe" offset="0" />
         <stop stop-color="#e9effd" offset="1" />
      </linearGradient>
      <linearGradient id="prefix__o" x2="1" gradientTransform="translate(865.363 -148.314) scale(352.61996)"
         gradientUnits="userSpaceOnUse">
         <stop stop-color="#dae3fe" offset="0" />
         <stop stop-color="#e9effd" offset="1" />
      </linearGradient>
      <linearGradient id="prefix__p" x2="1" gradientTransform="rotate(-103.325 467.538 -42.263) scale(708.24219)"
         gradientUnits="userSpaceOnUse">
         <stop stop-color="#09005d" offset="0" />
         <stop stop-color="#1a0f91" offset="1" />
      </linearGradient>
      <linearGradient id="prefix__q" x2="1" gradientTransform="rotate(122.006 58.312 240.962) scale(323.72413)"
         gradientUnits="userSpaceOnUse">
         <stop stop-color="#09005d" offset="0" />
         <stop stop-color="#1a0f91" offset="1" />
      </linearGradient>
      <linearGradient id="prefix__r" x2="1" gradientTransform="rotate(122.006 54.59 242.464) scale(319.78837)"
         gradientUnits="userSpaceOnUse">
         <stop stop-color="#8480ae" offset="0" />
         <stop stop-color="#8d87c8" offset="1" />
      </linearGradient>
      <linearGradient id="prefix__s" x2="1" gradientTransform="rotate(61.406 -299.035 456.18) scale(311.30128)"
         gradientUnits="userSpaceOnUse">
         <stop stop-color="#09005d" offset="0" />
         <stop stop-color="#1a0f91" offset="1" />
      </linearGradient>
      <linearGradient id="prefix__t" x2="1" gradientTransform="rotate(61.406 -311.752 451.98) scale(300.91862)"
         gradientUnits="userSpaceOnUse">
         <stop stop-color="#8480ae" offset="0" />
         <stop stop-color="#8d87c8" offset="1" />
      </linearGradient>
      <linearGradient id="prefix__u" x2="1"
         gradientTransform="scale(100.81584 -100.81584) rotate(-50.373 2.548 -11.101)" gradientUnits="userSpaceOnUse">
         <stop stop-color="#febbba" offset="0" />
         <stop stop-color="#ff928e" offset="1" />
      </linearGradient>
      <linearGradient id="prefix__v" x2="1" gradientTransform="scale(95.46725 -95.46725) rotate(-50.372 2.025 -11.25)"
         gradientUnits="userSpaceOnUse">
         <stop stop-color="#febbba" offset="0" />
         <stop stop-color="#ff928e" offset="1" />
      </linearGradient>
      <linearGradient id="prefix__w" x2="1" gradientTransform="translate(901.29 258.3) scale(8.82635)"
         gradientUnits="userSpaceOnUse">
         <stop stop-color="#ff928e" offset="0" />
         <stop stop-color="#fe7062" offset="1" />
      </linearGradient>
      <linearGradient id="prefix__x" x2="1"
         gradientTransform="scale(165.28483 -165.28483) rotate(-63.435 14.708 13.477)" gradientUnits="userSpaceOnUse">
         <stop stop-color="#ff928e" offset="0" />
         <stop stop-color="#fe7062" offset="1" />
      </linearGradient>
      <linearGradient id="prefix__y" x2="1"
         gradientTransform="scale(160.80073 -160.80073) rotate(-63.435 21.816 24.816)" gradientUnits="userSpaceOnUse">
         <stop stop-color="#e1473d" offset="0" />
         <stop stop-color="#e9605a" offset="1" />
      </linearGradient>
      <linearGradient id="prefix__z" x2="1" gradientTransform="scale(97.22488 -97.22488) rotate(62.966 6.896 7.546)"
         gradientUnits="userSpaceOnUse">
         <stop stop-color="#febbba" offset="0" />
         <stop stop-color="#ff928e" offset="1" />
      </linearGradient>
      <linearGradient id="prefix__A" x2="1" gradientTransform="scale(-95.50089 95.50089) rotate(-75.067 -4.398 8.981)"
         gradientUnits="userSpaceOnUse">
         <stop stop-color="#febbba" offset="0" />
         <stop stop-color="#ff928e" offset="1" />
      </linearGradient>
      <linearGradient id="prefix__B" x2="1" gradientTransform="scale(376.44809 -376.44809) rotate(-72.75 2.257 -.966)"
         gradientUnits="userSpaceOnUse">
         <stop stop-color="#09005d" offset="0" />
         <stop stop-color="#1a0f91" offset="1" />
      </linearGradient>
      <linearGradient id="prefix__C" x2="1" gradientTransform="scale(81.48692 -81.48692) rotate(62.967 8.54 10.067)"
         gradientUnits="userSpaceOnUse">
         <stop stop-color="#febbba" offset="0" />
         <stop stop-color="#ff928e" offset="1" />
      </linearGradient>
      <linearGradient id="prefix__D" x2="1" gradientTransform="scale(373.11019 -373.11019) rotate(-66.962 2.182 -1.102)"
         gradientUnits="userSpaceOnUse">
         <stop stop-color="#09005d" offset="0" />
         <stop stop-color="#1a0f91" offset="1" />
      </linearGradient>
      <linearGradient id="prefix__E" x2="1" gradientTransform="scale(80.11277 -80.11277) rotate(62.966 8.986 10.42)"
         gradientUnits="userSpaceOnUse">
         <stop stop-color="#febbba" offset="0" />
         <stop stop-color="#ff928e" offset="1" />
      </linearGradient>
      <linearGradient id="prefix__F" x2="1" gradientTransform="rotate(-60.502 884.78 -447.962) scale(351.14569)"
         gradientUnits="userSpaceOnUse">
         <stop stop-color="#4f52ff" offset="0" />
         <stop stop-color="#4042e2" offset="1" />
      </linearGradient>
      <linearGradient id="prefix__G" x2="1" gradientTransform="scale(41.96455 -41.96455) rotate(-48.542 .887 -28.239)"
         gradientUnits="userSpaceOnUse">
         <stop stop-color="#febbba" offset="0" />
         <stop stop-color="#ff928e" offset="1" />
      </linearGradient>
      <linearGradient id="prefix__H" x2="1" gradientTransform="rotate(76.293 106.481 721.247) scale(46.59831)"
         gradientUnits="userSpaceOnUse">
         <stop stop-color="#09005d" offset="0" />
         <stop stop-color="#1a0f91" offset="1" />
      </linearGradient>
      <linearGradient id="prefix__I" x2="1" gradientTransform="scale(201.01325 -201.01325) rotate(-84.391 2.33 -2.796)"
         gradientUnits="userSpaceOnUse">
         <stop stop-color="#4f52ff" offset="0" />
         <stop stop-color="#4042e2" offset="1" />
      </linearGradient>
      <linearGradient id="prefix__J" x2="1" gradientTransform="rotate(-66.37 951.63 -676.657) scale(215.49595)"
         gradientUnits="userSpaceOnUse">
         <stop stop-color="#09005d" offset="0" />
         <stop stop-color="#1a0f91" offset="1" />
      </linearGradient>
      <linearGradient id="prefix__K" x2="1" gradientTransform="scale(79.53056 -79.53056) rotate(-72.474 2.725 -10.638)"
         gradientUnits="userSpaceOnUse">
         <stop stop-color="#febbba" offset="0" />
         <stop stop-color="#ff928e" offset="1" />
      </linearGradient>
      <linearGradient id="prefix__L" x2="1" gradientTransform="rotate(-55.162 889.934 -563.952) scale(85.53093)"
         gradientUnits="userSpaceOnUse">
         <stop stop-color="#09005d" offset="0" />
         <stop stop-color="#1a0f91" offset="1" />
      </linearGradient>
      <linearGradient id="prefix__M" x2="1" gradientTransform="rotate(44.427 112.05 1511.99) scale(262.88813)"
         gradientUnits="userSpaceOnUse">
         <stop stop-color="#4f52ff" offset="0" />
         <stop stop-color="#4042e2" offset="1" />
      </linearGradient>
      <linearGradient id="prefix__N" x2="1" gradientTransform="rotate(128.529 626.697 382.098) scale(92.92751)"
         gradientUnits="userSpaceOnUse">
         <stop stop-color="#09005d" offset="0" />
         <stop stop-color="#1a0f91" offset="1" />
      </linearGradient>
      <linearGradient id="prefix__O" x2="1" gradientTransform="scale(76.55545 -76.55545) rotate(-67.186 1.051 -12.083)"
         gradientUnits="userSpaceOnUse">
         <stop stop-color="#09005d" offset="0" />
         <stop stop-color="#1a0f91" offset="1" />
      </linearGradient>
      <linearGradient id="prefix__P" x2="1" gradientTransform="rotate(-86.424 778.003 -137.064) scale(111.30422)"
         gradientUnits="userSpaceOnUse">
         <stop stop-color="#09005d" offset="0" />
         <stop stop-color="#1a0f91" offset="1" />
      </linearGradient>
      <linearGradient id="prefix__Q" x2="1" gradientTransform="rotate(118.655 289.566 522.363) scale(80.29015)"
         gradientUnits="userSpaceOnUse">
         <stop stop-color="#4f52ff" offset="0" />
         <stop stop-color="#4042e2" offset="1" />
      </linearGradient>
      <linearGradient id="prefix__R" x2="1" gradientTransform="rotate(108.798 670.758 505.683) scale(456.56422)"
         gradientUnits="userSpaceOnUse">
         <stop stop-color="#4f52ff" offset="0" />
         <stop stop-color="#4042e2" offset="1" />
      </linearGradient>
      <linearGradient id="prefix__S" x2="1" gradientTransform="rotate(142.374 894.365 226.942) scale(345.15212)"
         gradientUnits="userSpaceOnUse">
         <stop stop-color="#09005d" offset="0" />
         <stop stop-color="#1a0f91" offset="1" />
      </linearGradient>
      <linearGradient id="prefix__T" x2="1" gradientTransform="rotate(-139.284 776.857 3.107) scale(310.11718)"
         gradientUnits="userSpaceOnUse">
         <stop stop-color="#09005d" offset="0" />
         <stop stop-color="#1a0f91" offset="1" />
      </linearGradient>
      <linearGradient id="prefix__U" x2="1" gradientTransform="rotate(-63.118 795.777 -583.414) scale(248.61178)"
         gradientUnits="userSpaceOnUse">
         <stop stop-color="#09005d" offset="0" />
         <stop stop-color="#1a0f91" offset="1" />
      </linearGradient>
      <linearGradient id="prefix__V" x2="1" gradientTransform="scale(-488.27225 488.27225) rotate(-11.71 1.473 12.617)"
         gradientUnits="userSpaceOnUse">
         <stop stop-color="#febbba" offset="0" />
         <stop stop-color="#ff928e" offset="1" />
      </linearGradient>
      <linearGradient id="prefix__W" x2="1" gradientTransform="rotate(-47.396 758.957 -547.557) scale(519.1326)"
         gradientUnits="userSpaceOnUse">
         <stop stop-color="#e1473d" offset="0" />
         <stop stop-color="#e9605a" offset="1" />
      </linearGradient>
      <linearGradient id="prefix__b" x2="1" gradientTransform="matrix(8989.8 9774.9 9774.9 -8989.8 18266 9857.6)"
         gradientUnits="userSpaceOnUse">
         <stop stop-color="#f6c7c4" offset="0" />
         <stop stop-color="#f8cfcd" offset="1" />
      </linearGradient>
      <linearGradient id="prefix__Z" x2="1" gradientTransform="matrix(50.80822 0 0 -50.80822 156.17 367.39)"
         gradientUnits="userSpaceOnUse">
         <stop stop-color="#febbba" offset="0" />
         <stop stop-color="#ff928e" offset="1" />
      </linearGradient>
      <linearGradient id="prefix__aa" x2="1" gradientTransform="rotate(89.479 -212.32 357.731) scale(110.41085)"
         gradientUnits="userSpaceOnUse">
         <stop stop-color="#4f52ff" offset="0" />
         <stop stop-color="#4042e2" offset="1" />
      </linearGradient>
      <linearGradient id="prefix__ab" x2="1" gradientTransform="translate(124.314 638.47) scale(12.50275)"
         gradientUnits="userSpaceOnUse">
         <stop stop-color="#febbba" offset="0" />
         <stop stop-color="#ff928e" offset="1" />
      </linearGradient>
      <linearGradient id="prefix__ac" x2="1" gradientTransform="rotate(-87.866 411.135 285.831) scale(229.12223)"
         gradientUnits="userSpaceOnUse">
         <stop stop-color="#4f52ff" offset="0" />
         <stop stop-color="#4042e2" offset="1" />
      </linearGradient>
      <linearGradient id="prefix__ad" x2="1" gradientTransform="rotate(89.479 -243.346 327.037) scale(110.41085)"
         gradientUnits="userSpaceOnUse">
         <stop stop-color="#4f52ff" offset="0" />
         <stop stop-color="#4042e2" offset="1" />
      </linearGradient>
      <linearGradient id="prefix__ae" x2="1" gradientTransform="translate(79.255 637.83) scale(10.7949)"
         gradientUnits="userSpaceOnUse">
         <stop stop-color="#febbba" offset="0" />
         <stop stop-color="#ff928e" offset="1" />
      </linearGradient>
      <linearGradient id="prefix__af" x2="1" gradientTransform="rotate(-87.866 400.18 296.398) scale(229.12223)"
         gradientUnits="userSpaceOnUse">
         <stop stop-color="#4f52ff" offset="0" />
         <stop stop-color="#4042e2" offset="1" />
      </linearGradient>
      <linearGradient id="prefix__ag" x2="1"
         gradientTransform="scale(105.69987 -105.69987) rotate(-63.435 16.19 26.404)" gradientUnits="userSpaceOnUse">
         <stop stop-color="#ff928e" offset="0" />
         <stop stop-color="#fe7062" offset="1" />
      </linearGradient>
      <linearGradient id="prefix__ah" x2="1" gradientTransform="translate(42.136 381.62) scale(87.43932)"
         gradientUnits="userSpaceOnUse">
         <stop stop-color="#febbba" offset="0" />
         <stop stop-color="#ff928e" offset="1" />
      </linearGradient>
      <linearGradient id="prefix__ai" x2="1" gradientTransform="scale(77.78054 -77.78054) rotate(-66.914 -1.49 -3.354)"
         gradientUnits="userSpaceOnUse">
         <stop stop-color="#09005d" offset="0" />
         <stop stop-color="#1a0f91" offset="1" />
      </linearGradient>
      <linearGradient id="prefix__aj" x2="1" gradientTransform="translate(122.592 375.43) scale(26.45869)"
         gradientUnits="userSpaceOnUse">
         <stop stop-color="#febbba" offset="0" />
         <stop stop-color="#ff928e" offset="1" />
      </linearGradient>
      <linearGradient id="prefix__ak" x2="1" gradientTransform="scale(-27.94385 27.94385) rotate(-32.087 17.101 19.84)"
         gradientUnits="userSpaceOnUse">
         <stop stop-color="#febbba" offset="0" />
         <stop stop-color="#ff928e" offset="1" />
      </linearGradient>
      <linearGradient id="prefix__al" x2="1" gradientTransform="translate(148.01 196.387) scale(40.68964)"
         gradientUnits="userSpaceOnUse">
         <stop stop-color="#febbba" offset="0" />
         <stop stop-color="#ff928e" offset="1" />
      </linearGradient>
      <linearGradient id="prefix__am" x2="1" gradientTransform="rotate(-128.49 141.101 27.811) scale(54.79547)"
         gradientUnits="userSpaceOnUse">
         <stop stop-color="#febbba" offset="0" />
         <stop stop-color="#ff928e" offset="1" />
      </linearGradient>
      <linearGradient id="prefix__an" x2="1" gradientTransform="rotate(58.432 41.115 175.43) scale(80.0539)"
         gradientUnits="userSpaceOnUse">
         <stop stop-color="#09005d" offset="0" />
         <stop stop-color="#1a0f91" offset="1" />
      </linearGradient>
      <linearGradient id="prefix__ao" x2="1" gradientTransform="rotate(-128.492 135.266 42.61) scale(48.18439)"
         gradientUnits="userSpaceOnUse">
         <stop stop-color="#febbba" offset="0" />
         <stop stop-color="#ff928e" offset="1" />
      </linearGradient>
      <linearGradient id="prefix__ap" x2="1"
         gradientTransform="scale(103.99471 -103.99471) rotate(-63.435 15.78 26.543)" gradientUnits="userSpaceOnUse">
         <stop stop-color="#ff928e" offset="0" />
         <stop stop-color="#fe7062" offset="1" />
      </linearGradient>
      <linearGradient id="prefix__aq" x2="1" gradientTransform="rotate(142.579 76.22 108.313) scale(7.28283)"
         gradientUnits="userSpaceOnUse">
         <stop stop-color="#09005d" offset="0" />
         <stop stop-color="#1a0f91" offset="1" />
      </linearGradient>
      <linearGradient id="prefix__ar" x2="1" gradientTransform="rotate(142.58 94.835 97.171) scale(95.84905)"
         gradientUnits="userSpaceOnUse">
         <stop stop-color="#09005d" offset="0" />
         <stop stop-color="#1a0f91" offset="1" />
      </linearGradient>
      <linearGradient id="prefix__as" x2="1" gradientTransform="rotate(142.579 100.504 101.099) scale(83.61458)"
         gradientUnits="userSpaceOnUse">
         <stop stop-color="#09005d" offset="0" />
         <stop stop-color="#1a0f91" offset="1" />
      </linearGradient>
      <linearGradient id="prefix__e" x2="1" gradientTransform="rotate(-132.814 790.267 86.261) scale(1179.5823)"
         gradientUnits="userSpaceOnUse" xlink:href="#prefix__a" />
      <linearGradient id="prefix__f" x2="1" gradientTransform="rotate(-132.813 802.75 79.802) scale(1202.08674)"
         gradientUnits="userSpaceOnUse" xlink:href="#prefix__a" />
      <linearGradient id="prefix__g" x2="1" gradientTransform="rotate(-132.814 873.792 46.478) scale(1330.25101)"
         gradientUnits="userSpaceOnUse" xlink:href="#prefix__a" />
      <linearGradient id="prefix__h" x2="1" gradientTransform="rotate(-132.814 862.672 51.52) scale(1310.70681)"
         gradientUnits="userSpaceOnUse" xlink:href="#prefix__a" />
      <linearGradient id="prefix__i" x2="1" gradientTransform="rotate(-132.814 794.675 83.768) scale(1187.8743)"
         gradientUnits="userSpaceOnUse" xlink:href="#prefix__a" />
      <linearGradient id="prefix__j" x2="1" gradientTransform="rotate(-132.813 776.839 92.146) scale(1155.44638)"
         gradientUnits="userSpaceOnUse" xlink:href="#prefix__a" />
      <linearGradient id="prefix__k" x2="1" gradientTransform="rotate(-132.814 755.146 102.582) scale(1116.7448)"
         gradientUnits="userSpaceOnUse" xlink:href="#prefix__a" />
      <linearGradient id="prefix__l" x2="1" gradientTransform="rotate(-132.814 860.588 52.408) scale(1306.46218)"
         gradientUnits="userSpaceOnUse" xlink:href="#prefix__a" />
      <linearGradient id="prefix__X" x2="1" gradientTransform="rotate(-47.396 766.991 -446.614) scale(467.14365)"
         gradientUnits="userSpaceOnUse" xlink:href="#prefix__b" />
      <linearGradient id="prefix__Y" x2="1" gradientTransform="rotate(-47.396 772.88 -371.445) scale(428.42525)"
         gradientUnits="userSpaceOnUse" xlink:href="#prefix__b" />
   </defs>
   <path
      d="M299.758 661.327c-9.766 0-19.388-.392-28.828-1.175-33.491-2.772-98.909-8.187-153.074-52.954 20.91.612 56.458 1.489 88.448 1.489 4.163 0 8.266-.016 12.27-.047-.016 10.163.046 18.969.223 25.36.092 3.272 2.402 5.898 5.286 6.006 10.298.381 34.557 1.189 56.027 1.189 8.253 0 16.095-.12 22.572-.43 4.86-.23 8.722-4.695 8.823-10.211.186-10.133.455-27.278.578-46.508h196.889l-.287 16.964c-63.929 40.66-139.832 60.313-208.931 60.313m217.795-66.148l.908-11.131h14.553a343.132 343.132 0 01-15.461 11.131M99.03 589.44a201.26 201.26 0 01-4.842-5.395h4.761c.023 1.863.05 3.67.081 5.395m-31.343-43.887C34.76 484.836 27.455 406.62 41.964 330.87c4.173 19.943 11.787 38.067 21.909 53.326l3.815 161.35m568.817-100.634l2.904-200.588a66.495 66.495 0 002.41-2.005 1.571 1.571 0 00.148-2.219 1.574 1.574 0 00-1.185-.537 1.57 1.57 0 00-1.034.385l-.281.242.049-3.315c0-5.36-6.084-15.636-17.277-15.636a17.4 17.4 0 00-1.266.045l-87.074-2.254c.03 0 .067-.005.098-.005a2.538 2.538 0 001.431-.555 98.644 98.644 0 003.204-2.68 2.544 2.544 0 00.241-3.592 2.534 2.534 0 00-1.919-.873 2.537 2.537 0 00-1.673.627 85.52 85.52 0 01-3.042 2.545 2.545 2.545 0 00-.39 3.58 2.52 2.52 0 001.79.943l-120.434-3.114a2.534 2.534 0 00-1.244-.326c-.393 0-.778.09-1.132.264l-195.408-5.055a126.608 126.608 0 00-9.417-11.202c-19.25-20.337-30.12-47.305-29.765-75.277a109.824 109.824 0 00-.25-8.93 110.239 110.239 0 00-.892-8.374c42.53-33.249 107.416-69.216 189.404-69.216.945 0 1.887.005 2.835.014 22.98.232 44.454 3.27 64.062 7.945a101.524 101.524 0 00-7.404 3.57 2.543 2.543 0 00-1.047 3.444 2.54 2.54 0 002.246 1.347c.053 0 .107 0 .16-.005a2.505 2.505 0 001.039-.295 97.676 97.676 0 017.435-3.561 2.546 2.546 0 001.342-3.342 3.838 3.838 0 00-.13-.268c67.471 16.977 112.11 52.932 118.94 58.56a262.775 262.775 0 0111.48 10.052 96.301 96.301 0 011.387 6.357 2.555 2.555 0 002.505 2.09c.054 0 .107-.004.161-.01.098-.003.197-.017.3-.035a2.548 2.548 0 002.076-2.255 292.173 292.173 0 0140.567 50.15c49.644 77.634 56.538 184.307 24.055 273.366m-240.4-244.336a2.517 2.517 0 00-1.643.609 2.542 2.542 0 00-.3 3.587 103.75 103.75 0 005.79 6.282 2.537 2.537 0 001.798.742c.054 0 .107 0 .165-.005a2.551 2.551 0 001.638-.742 2.545 2.545 0 00-.005-3.602 97.591 97.591 0 01-5.498-5.968 2.553 2.553 0 00-1.946-.903m-12.191-18.11a2.55 2.55 0 00-2.255 3.727 102.307 102.307 0 004.277 7.4 2.54 2.54 0 002.152 1.18c.054 0 .107-.005.161-.009a2.503 2.503 0 001.203-.389 2.547 2.547 0 00.783-3.512 97.357 97.357 0 01-4.062-7.028 2.536 2.536 0 00-2.259-1.369m-7.898-20.355a2.55 2.55 0 00-2.46 3.203 101.615 101.615 0 002.536 8.152 2.547 2.547 0 002.4 1.69c.051 0 .105 0 .159-.004a2.582 2.582 0 00.697-.143 2.547 2.547 0 001.539-3.257 96.206 96.206 0 01-2.409-7.749 2.555 2.555 0 00-2.462-1.892m-3.263-21.576h-.11c-1.424.031-2.496 1.248-2.438 2.648.032.752.072 1.503.12 2.255a102.402 102.402 0 00.589 6.259 2.547 2.547 0 002.523 2.232c.054 0 .107-.004.161-.01.052 0 .106-.008.157-.013a2.545 2.545 0 002.211-2.84 98.322 98.322 0 01-.56-5.95 110.927 110.927 0 01-.112-2.143 2.543 2.543 0 00-2.541-2.438m198.15-8.268h-.117l-.049.005a2.544 2.544 0 00-2.38 2.653c.12 2.747.125 5.52.014 8.25a2.546 2.546 0 002.442 2.648c.031 0 .067.004.099.004.058 0 .111-.004.165-.009a2.543 2.543 0 002.38-2.433 100.356 100.356 0 00-.013-8.684 2.548 2.548 0 00-2.542-2.433m-197.325-9.306a2.538 2.538 0 00-2.516 2.197 100.82 100.82 0 00-.485 4.152 2.546 2.546 0 002.292 2.778c.08.009.161.009.24.009.056 0 .112 0 .166-.004a2.547 2.547 0 002.373-2.295 94.49 94.49 0 01.457-3.942 2.547 2.547 0 00-2.528-2.894m39.891-66.598c-.519 0-1.047.156-1.498.487a102.872 102.872 0 00-3.32 2.528 2.547 2.547 0 001.584 4.54c.054 0 .107 0 .16-.004a2.518 2.518 0 001.419-.546 102.945 102.945 0 013.158-2.402 2.552 2.552 0 00.56-3.561 2.556 2.556 0 00-2.063-1.042"
      fill="url(#prefix__c)" />
   <path
      d="M215.46 316.814c-7.996-28.894-1.349-63.959.26-95.717.85-16.794.199-33.274-4.432-49.537-4.602-16.163-14.483-33.06-9.309-50.34 10.421-34.802 46.427-23.846 69.004-1.29 26.198 26.172 38.072 72.65 51.065 107.982 7.834 21.295 18.37 42.839 23.793 64.849 8.985 36.46 3.696 63.154-11.926 82.627-14.985 18.677-40.43 25.226-62.59 16.147-20.017-8.201-42.974-28.116-55.868-74.72"
      fill="#bdd0fb" />
   <path
      d="M309.9 443.97h-.009a1.134 1.134 0 01-1.083-1.187c.023-.453 2.07-46.065-5.14-107.841-6.65-56.983-22.763-139.76-61.758-210.53a1.138 1.138 0 01.447-1.541c.55-.3 1.237-.103 1.54.446 39.178 71.105 55.353 154.211 62.03 211.404 7.228 61.955 5.17 107.715 5.147 108.17a1.132 1.132 0 01-1.173 1.078"
      fill="url(#prefix__d)" />
   <path
      d="M244.843 293.553c-2.588-37.88-17.333-71.193-38.867-93.94-19.25-20.34-30.12-47.31-29.765-75.28.038-2.943-.043-5.92-.25-8.926-3.112-45.562-33.55-80.585-67.985-78.232-34.434 2.353-59.823 41.19-56.712 86.753.637 9.316 2.417 18.188 5.14 26.39 8.693 26.179 7.632 54.747-4.005 79.772-10.4 22.362-15.577 49.142-13.636 77.545 2.894 42.358 20.987 79.004 46.775 101.56 9.754 8.53 17.926 18.785 23.974 30.235 10.05 19.027 27.782 31.172 47.116 29.852 20.855-1.427 37.735-18.125 44.193-40.867 3.656-12.867 9.798-24.852 17.688-35.667 18.622-25.535 28.954-60.898 26.334-99.196"
      fill="#91b3fa" />
   <path
      d="M123.35 84.795c6.557 29.804 12.15 59.792 17.43 89.84 1.324 7.512 2.526 15.046 3.753 22.571l1.838 11.292 1.744 11.309c1.133 7.542 2.371 15.071 3.419 22.626l3.145 22.664c1.904 15.138 3.937 30.26 5.558 45.436.823 7.584 1.792 15.15 2.46 22.752l2.108 22.792c2.503 30.414 4.243 60.905 4.439 91.425l-1.315.022-1.016-22.829-.242-5.705-.384-5.7-.786-11.398-.77-11.397c-.249-3.799-.639-7.589-.95-11.383-.676-7.587-1.292-15.176-2.017-22.758-3.097-30.31-6.595-60.57-10.717-90.76-2.177-15.08-4.224-30.176-6.506-45.24l-1.68-11.308-1.775-11.284c-1.179-7.53-2.357-15.055-3.612-22.571a2978.137 2978.137 0 00-7.483-45.097c-2.533-15.03-5.208-30.038-7.929-45.03l1.289-.264"
      fill="#bdd0fb" />
   <path
      d="M570.905 145.831h-.098a2.545 2.545 0 01-2.44-2.648 98.116 98.116 0 00-.017-8.252 2.543 2.543 0 012.382-2.652l.047-.004c.04 0 .079-.004.118-.004a2.55 2.55 0 012.542 2.437c.126 2.888.13 5.81.012 8.683a2.544 2.544 0 01-2.377 2.436c-.055.004-.11.004-.17.004"
      fill="url(#prefix__e)" />
   <path
      d="M571.88 121.384a270.813 270.813 0 00-6.425-6.147 79.502 79.502 0 00-.443-1.684 2.55 2.55 0 011.788-3.127 2.565 2.565 0 01.669-.088c1.124 0 2.147.741 2.457 1.877a104.994 104.994 0 011.926 8.46c.044.242.052.48.028.71"
      fill="#dee8fd" />
   <path
      d="M569.34 123.697a2.552 2.552 0 01-2.503-2.087 96.291 96.291 0 00-1.383-6.358 281.066 281.066 0 016.426 6.15 2.553 2.553 0 01-2.076 2.255 4.14 4.14 0 01-.3.036 2.23 2.23 0 01-.164.004"
      fill="url(#prefix__f)" />
   <path
      d="M562.915 102.482c-.991 0-1.93-.58-2.341-1.545a96.214 96.214 0 00-3.578-7.429 2.556 2.556 0 011.04-3.448 2.564 2.564 0 011.2-.302c.912 0 1.79.488 2.25 1.346a100.759 100.759 0 013.767 7.823 2.552 2.552 0 01-1.337 3.347 2.59 2.59 0 01-.841.2 2.062 2.062 0 01-.16.008m-10.992-19.271a2.544 2.544 0 01-2.059-1.045 97.703 97.703 0 00-5.149-6.446 2.54 2.54 0 01.248-3.59 2.531 2.531 0 011.67-.63 2.54 2.54 0 011.92.873 103.71 103.71 0 015.424 6.787 2.55 2.55 0 01-.553 3.56 2.57 2.57 0 01-1.342.486c-.053 0-.106.005-.16.005m-15.016-16.337a2.558 2.558 0 01-1.67-.624 97.703 97.703 0 00-6.446-5.149 2.542 2.542 0 01-.553-3.555 2.532 2.532 0 012.059-1.045c.522 0 1.049.16 1.5.492a102.634 102.634 0 016.783 5.414 2.54 2.54 0 01.248 3.59 2.535 2.535 0 01-1.758.873c-.053.004-.106.004-.163.004m-18.244-12.608c-.412 0-.824-.098-1.205-.302a96.254 96.254 0 00-7.424-3.59 2.546 2.546 0 01-1.328-3.347 2.546 2.546 0 012.337-1.54c.337 0 .682.07 1.01.212a99.938 99.938 0 017.814 3.78 2.543 2.543 0 011.04 3.445 2.543 2.543 0 01-2.085 1.337c-.053.005-.106.005-.16.005m-83.656-7.61a366.26 366.26 0 00-3.644-.89l.43-.187a2.592 2.592 0 011-.203 2.559 2.559 0 012.214 1.28"
      fill="#dee8fd" />
   <path
      d="M425.18 54.135a2.547 2.547 0 01-1.198-4.797 101.773 101.773 0 017.402-3.566 366.27 366.27 0 013.642.89c.044.088.093.176.133.27a2.548 2.548 0 01-1.345 3.34 95.57 95.57 0 00-7.438 3.562 2.523 2.523 0 01-1.036.296c-.053 0-.106.005-.16.005"
      fill="url(#prefix__g)" />
   <path
      d="M498.127 46.031c-.224 0-.457-.031-.68-.094a96.638 96.638 0 00-8.035-1.844 2.545 2.545 0 11.927-5.009 101.479 101.479 0 018.46 1.943 2.545 2.545 0 01-.515 4.995c-.054.005-.108.01-.157.01m-52.304-.063a2.547 2.547 0 01-.662-5.004 102.9 102.9 0 018.469-1.908 2.343 2.343 0 01.465-.044c1.205 0 2.274.868 2.494 2.095a2.546 2.546 0 01-2.05 2.958 98.18 98.18 0 00-8.049 1.818 2.529 2.529 0 01-.505.08c-.054.005-.108.005-.162.005m30.39-3.38h-.108a91.32 91.32 0 00-4.153-.09c-1.366 0-2.735.027-4.092.086-.036 0-.071.004-.107.004a2.55 2.55 0 01-2.547-2.44 2.552 2.552 0 012.386-2.65h.054a99.225 99.225 0 014.324-.094c1.454 0 2.909.032 4.355.095a2.547 2.547 0 01.054 5.085c-.054.004-.108.004-.166.004"
      fill="#dee8fd" />
   <path
      d="M410.212 63.915a2.54 2.54 0 01-1.997-.963 2.545 2.545 0 01.41-3.58 94.9 94.9 0 013.322-2.524 2.53 2.53 0 011.5-.492 2.545 2.545 0 011.5 4.604 107.562 107.562 0 00-3.157 2.401 2.562 2.562 0 01-1.417.55c-.057.004-.11.004-.161.004"
      fill="url(#prefix__h)" />
   <path
      d="M373.074 132.1a2.548 2.548 0 01-2.533-2.79 105.863 105.863 0 01.487-4.148 2.54 2.54 0 012.517-2.201 2.552 2.552 0 012.529 2.892 89.277 89.277 0 00-.459 3.943 2.547 2.547 0 01-2.375 2.296c-.051.004-.11.008-.166.008"
      fill="url(#prefix__i)" />
   <path
      d="M413.172 215.914l-2.375-.065a2.556 2.556 0 011.13-.265c.426 0 .857.108 1.245.33m-11.453-4.12a2.544 2.544 0 01-1.799-.741 105.087 105.087 0 01-5.788-6.28 2.55 2.55 0 01.296-3.59 2.553 2.553 0 011.645-.603 2.55 2.55 0 011.945.9 97.206 97.206 0 005.5 5.968c.995.991.999 2.605.008 3.601a2.546 2.546 0 01-1.641.742c-.058.004-.112.004-.166.004m-13.663-17.018a2.55 2.55 0 01-2.152-1.184 102.481 102.481 0 01-4.273-7.398 2.545 2.545 0 011.08-3.436 2.486 2.486 0 011.172-.292c.922 0 1.806.5 2.26 1.368a96.902 96.902 0 004.062 7.03 2.544 2.544 0 01-.784 3.512 2.546 2.546 0 01-1.203.392 2.18 2.18 0 01-.162.008m-9.596-19.616a2.549 2.549 0 01-2.398-1.691 101.504 101.504 0 01-2.537-8.156 2.547 2.547 0 011.807-3.113 2.563 2.563 0 01.653-.084c1.126 0 2.16.753 2.463 1.89a96.156 96.156 0 002.41 7.748 2.547 2.547 0 01-1.541 3.256c-.23.08-.465.127-.696.146-.053 0-.107.004-.161.004m-5.054-21.23a2.542 2.542 0 01-2.521-2.233 103.717 103.717 0 01-.592-6.253 150.513 150.513 0 01-.12-2.256c-.057-1.406 1.015-2.617 2.441-2.648.039-.004.073-.004.108-.004a2.544 2.544 0 012.54 2.44c.035.712.07 1.427.116 2.145a96.529 96.529 0 00.557 5.946 2.547 2.547 0 01-2.21 2.844c-.05.004-.104.011-.158.011a2.18 2.18 0 01-.161.008"
      fill="url(#prefix__j)" />
   <path
      d="M533.851 219.077l-.26-.007a2.545 2.545 0 01-1.4-4.524 97.666 97.666 0 003.042-2.545 2.54 2.54 0 011.672-.628c.713 0 1.419.297 1.92.873a2.543 2.543 0 01-.245 3.592 93.81 93.81 0 01-3.202 2.678 2.536 2.536 0 01-1.43.557c-.033 0-.067.004-.096.004"
      fill="url(#prefix__k)" />
   <path
      d="M538.813 175.654a1.197 1.197 0 000-1.385l-8.387-11.806a63.107 63.107 0 004.635-19.913l12.728-6.894c.446-.238.688-.74.606-1.238l-2.84-17.142a1.2 1.2 0 00-.977-.979l-14.273-2.414a63.064 63.064 0 00-10.811-17.351l4.129-13.88a1.181 1.181 0 00-.45-1.307l-14.127-10.11a1.183 1.183 0 00-1.38-.004l-11.81 8.388a63.198 63.198 0 00-19.913-4.636l-6.89-12.723a1.189 1.189 0 00-1.242-.61l-17.138 2.843a1.196 1.196 0 00-.982.974l-2.415 14.273a62.972 62.972 0 00-17.346 10.815l-13.884-4.129a1.186 1.186 0 00-1.306.446l-10.11 14.13c-.295.412-.299.97-.004 1.38l8.391 11.811a63.087 63.087 0 00-4.639 19.908l-12.724 6.894a1.195 1.195 0 00-.61 1.242l2.843 17.14a1.196 1.196 0 00.974.977l14.278 2.42a62.981 62.981 0 0010.81 17.345l-4.128 13.884a1.19 1.19 0 00.445 1.307l14.13 10.11a1.19 1.19 0 001.381 0l11.811-8.388a63.08 63.08 0 0019.908 4.636l6.894 12.728c.242.445.74.692 1.242.606l17.139-2.844a1.18 1.18 0 00.978-.974l2.42-14.273a63.123 63.123 0 0017.345-10.81l13.884 4.128a1.197 1.197 0 001.307-.45l10.11-14.126"
      fill="#91b3fa" />
   <path
      d="M463.092 128.092a13.295 13.295 0 00-4.692 9.11c-.615 7.357 4.879 13.842 12.236 14.453 7.357.614 13.842-4.875 14.453-12.236.61-7.357-4.879-13.842-12.236-14.453a13.326 13.326 0 00-9.76 3.126zm7.203 27.624c-9.595-.797-16.754-9.253-15.956-18.851a17.37 17.37 0 016.12-11.883 17.343 17.343 0 0112.731-4.073c9.598.797 16.753 9.253 15.96 18.851-.73 8.73-7.794 15.44-16.29 15.98-.84.055-1.697.047-2.565-.024"
      fill="#bdd0fb" />
   <path
      d="M474.092 180.937a45.137 45.137 0 004.386-.501c.46-.08.916-.162 1.376-.253a43.253 43.253 0 006.619-1.872c.029-.013.058-.021.087-.034.083-.033.165-.062.244-.095l.485-.186a1.011 1.011 0 00.642-1.011 1.016 1.016 0 00-.07-.31 1.016 1.016 0 00-1.322-.572 41.042 41.042 0 01-8.396 2.32c-14.299 2.377-28.126-3.012-37.154-13.073a40.625 40.625 0 01-9.888-20.587 41.154 41.154 0 01-.48-4.184c-.593-9.365 2.03-18.573 7.563-26.31 6.359-8.885 15.798-14.763 26.577-16.552 22.259-3.691 43.355 11.411 47.046 33.662a40.912 40.912 0 01.472 4.13 40.852 40.852 0 01-2.755 17.537 1.02 1.02 0 00-.07.44c.025.38.26.733.642.882a1.014 1.014 0 001.321-.576 42.807 42.807 0 002.891-18.412 41.475 41.475 0 00-.492-4.337c-3.873-23.357-26.039-39.21-49.387-35.336-11.317 1.876-21.225 8.048-27.902 17.376-5.807 8.119-8.562 17.787-7.94 27.62a42.779 42.779 0 00.5 4.39c1.877 11.316 8.049 21.224 17.377 27.897 8.123 5.815 17.795 8.57 27.627 7.944"
      fill="#bdd0fb" />
   <path
      d="M661.915 207.303a1.53 1.53 0 01-.345-.036 1.569 1.569 0 01-1.183-1.877 67.348 67.348 0 00.73-3.769 1.575 1.575 0 011.806-1.3c.856.144 1.438.95 1.295 1.806a65.423 65.423 0 01-.766 3.953 1.57 1.57 0 01-1.434 1.223h-.103m1.6-12.003h-.054a1.57 1.57 0 01-1.512-1.633 66.15 66.15 0 00-.188-7.99 1.572 1.572 0 011.435-1.695h.072c.794 0 1.557.597 1.628 1.436a68.52 68.52 0 01.193 8.37 1.566 1.566 0 01-1.467 1.507c-.036.005-.072.005-.107.005m-1.373-16.27a1.58 1.58 0 01-1.539-1.251 64.918 64.918 0 00-2.108-7.702 1.572 1.572 0 112.974-1.018 69.288 69.288 0 012.216 8.074 1.573 1.573 0 01-1.444 1.893c-.032.004-.068.004-.099.004m-5.284-15.449a1.575 1.575 0 01-1.413-.883 64.637 64.637 0 00-3.943-6.949 1.571 1.571 0 01.457-2.176 1.567 1.567 0 01.862-.255 1.58 1.58 0 011.319.713 68.164 68.164 0 014.13 7.285c.382.78.06 1.722-.721 2.104a1.572 1.572 0 01-.592.157c-.032 0-.068.005-.1.005m-8.921-13.682c-.449 0-.893-.188-1.202-.56a65.076 65.076 0 00-5.518-5.77 1.572 1.572 0 011.068-2.727 1.58 1.58 0 011.067.418 68.332 68.332 0 015.787 6.05c.56.665.475 1.656-.188 2.217a1.59 1.59 0 01-.916.368c-.031.004-.067.004-.098.004m-11.99-11.085c-.32 0-.638-.098-.916-.296a65.7 65.7 0 00-6.755-4.257 1.572 1.572 0 01-.624-2.135 1.566 1.566 0 011.377-.82c.256 0 .516.062.754.197a68.228 68.228 0 017.083 4.459c.704.506.866 1.489.359 2.198a1.585 1.585 0 01-1.18.65c-.031 0-.067.005-.099.005m-14.314-7.841a1.543 1.543 0 01-.578-.112 64.545 64.545 0 00-7.586-2.476 1.572 1.572 0 01-1.126-1.916 1.573 1.573 0 011.52-1.18 1.699 1.699 0 01.396.05 67.777 67.777 0 017.953 2.601 1.574 1.574 0 01.884 2.042 1.572 1.572 0 01-1.364.986c-.031.005-.067.005-.099.005m-40.175-2.75a1.579 1.579 0 01-1.53-1.202 1.575 1.575 0 011.158-1.897 68.12 68.12 0 018.245-1.48c.072-.014.143-.018.21-.018.772 0 1.44.605 1.53 1.4a1.57 1.57 0 01-1.381 1.74c-.341.04-.682.085-1.032.13a66.378 66.378 0 00-6.827 1.283 1.44 1.44 0 01-.274.04c-.036 0-.067.005-.099.005m24.38-1.35c-.067 0-.134-.004-.206-.014a64.573 64.573 0 00-7.967-.538 1.575 1.575 0 01-1.56-1.584 1.582 1.582 0 011.583-1.565 68.203 68.203 0 018.352.57 1.572 1.572 0 011.355 1.763 1.577 1.577 0 01-1.458 1.368h-.099"
      fill="#dee8fd" />
   <path
      d="M639.377 244.356l.06-4.133.283-.243a1.57 1.57 0 011.03-.382 1.584 1.584 0 011.186.534 1.574 1.574 0 01-.148 2.22 64.825 64.825 0 01-2.411 2.004"
      fill="url(#prefix__l)" />
   <path
      d="M641.984 215.578a.797.797 0 000-.925l-5.615-7.899a42.195 42.195 0 003.103-13.325l8.517-4.611a.795.795 0 00.403-.833l-1.902-11.467a.781.781 0 00-.653-.653l-9.547-1.617a42.137 42.137 0 00-7.237-11.612l2.761-9.288a.797.797 0 00-.298-.877l-9.455-6.763a.797.797 0 00-.924 0l-7.899 5.61a42.342 42.342 0 00-13.325-3.098l-4.612-8.517a.798.798 0 00-.833-.408l-11.466 1.903a.796.796 0 00-.658.653l-1.617 9.55a42.337 42.337 0 00-11.607 7.233l-9.289-2.761a.798.798 0 00-.876.298l-6.764 9.46a.776.776 0 000 .92l5.611 7.903a42.284 42.284 0 00-3.099 13.32l-8.521 4.616a.792.792 0 00-.403.829l1.902 11.471a.791.791 0 00.653.653l9.551 1.617a42.204 42.204 0 007.233 11.608l-2.762 9.292a.793.793 0 00.298.872l9.455 6.764c.28.202.649.202.925.004l7.903-5.615a42.196 42.196 0 0013.321 3.103l4.616 8.517a.802.802 0 00.828.408l11.467-1.902a.801.801 0 00.657-.654l1.618-9.551a42.206 42.206 0 0011.607-7.232l9.288 2.757a.79.79 0 00.877-.298l6.768-9.455"
      fill="#91b3fa" />
   <path
      d="M588.38 189.878a8.675 8.675 0 002.043 6.378 8.664 8.664 0 005.952 3.067 8.717 8.717 0 006.382-2.04 8.723 8.723 0 003.067-5.955c.397-4.807-3.187-9.043-7.999-9.444a8.325 8.325 0 00-1.285-.013c-4.256.27-7.795 3.635-8.16 8.007zm7.738 12.582a11.845 11.845 0 01-8.098-4.17 11.815 11.815 0 01-2.773-8.673c.543-6.536 6.295-11.401 12.84-10.87 6.539.546 11.412 6.307 10.87 12.843a11.826 11.826 0 01-4.17 8.093 11.838 11.838 0 01-8.67 2.777"
      fill="#bdd0fb" />
   <path
      d="M598.791 220.018a28.781 28.781 0 002.993-.34 29.695 29.695 0 005.826-1.585c.081-.03.166-.064.251-.098a1.576 1.576 0 00.995-1.56 1.576 1.576 0 00-2.15-1.364 26.68 26.68 0 01-5.433 1.505h-.004c-.102.017-.204.03-.306.047-4.407.688-8.819.25-12.911-1.212a26.69 26.69 0 01-6.329-3.285l-.047-.034a3.221 3.221 0 01-.148-.106c-5.75-4.114-9.559-10.222-10.71-17.2a26.819 26.819 0 01-.315-2.707c-.383-6.065 1.317-12.024 4.9-17.035 4.114-5.75 10.226-9.554 17.2-10.715 6.974-1.151 13.991.476 19.743 4.586 5.75 4.119 9.558 10.226 10.714 17.208a25.65 25.65 0 01.306 2.67 26.295 26.295 0 01-1.785 11.351 1.583 1.583 0 00-.102.68 1.57 1.57 0 00.99 1.365 1.574 1.574 0 002.04-.889 29.55 29.55 0 001.998-12.703 29.715 29.715 0 00-.344-2.992c-1.297-7.808-5.551-14.642-11.986-19.245-6.439-4.603-14.276-6.435-22.087-5.134-7.803 1.296-14.642 5.55-19.245 11.99-4.008 5.6-5.907 12.27-5.478 19.052a30.756 30.756 0 00.344 3.03c2.507 15.114 16.108 25.67 31.08 24.718"
      fill="#bdd0fb" />
   <path
      d="M509.615 559.755H312.137a2097.19 2097.19 0 00-.033-8.704h201.934c.022.162.052.321.091.483a15.382 15.382 0 00-4.519 8.22m-410.781 0H72.59c-2.869-1.787-4.788-4.969-4.788-8.577l-.133-5.62-3.815-161.35-3.562-150.678a25.467 25.467 0 017.481-18.638 25.514 25.514 0 0118.009-7.44c.22 0 .44.004.66.008l56.378 1.459 3.608.095 264.368 6.839 2.372.065 120.44 3.112.26.009 87.072 2.255c.433-.03.857-.048 1.268-.048 11.193 0 17.279 10.28 17.279 15.638l-.048 3.316-.06 4.133-2.905 200.59-1.411 97.52a66.012 66.012 0 00-11.708-6.036l1.355-9.58-3.298.663 4.081-271.332c-.489-16.694-14.738-22.987-23.914-22.987-.26 0-.515.004-.77.013L88.556 219.44a17.635 17.635 0 00-.48-.008 17.9 17.9 0 00-12.637 5.228 17.895 17.895 0 00-5.26 13.106l7.619 303.71c0 5.263 4.305 9.568 9.568 9.568h11.503c-.015 2.965-.025 5.871-.03 8.704"
      fill="url(#prefix__m)" />
   <path
      d="M77.807 541.472c0 5.264 4.306 9.57 9.568 9.57h524.296c5.261 0 9.567-4.306 9.567-9.57l4.294-285.325c-.505-17.17-15.558-23.339-24.683-22.977L88.562 219.428a17.906 17.906 0 00-13.117 5.222 17.893 17.893 0 00-5.26 13.106l7.62 303.709"
      fill="#7d97f4" />
   <path
      d="M92.35 530.337c0 4.759 4.002 8.654 8.893 8.654H588.47c4.893 0 8.893-3.895 8.893-8.654l3.992-258.06c-.47-15.53-14.461-21.116-22.94-20.784l-476.092-12.43c-4.556-.12-8.962 1.588-12.19 4.72-3.227 3.136-5.003 7.423-4.888 11.857l7.08 274.696"
      fill="#91b3fa" />
   <path
      d="M615.527 366.735h-.021c-.776-.01-1.392-.5-1.38-1.1l.34-17.851c.008-.591.637-1.07 1.4-1.07h.021c.776.009 1.392.504 1.38 1.1l-.336 17.856c-.013.592-.637 1.065-1.404 1.065"
      fill="url(#prefix__n)" />
   <path
      d="M616.385 323.004h-.021c-.774-.008-1.396-.504-1.383-1.101l1.303-68.378c-.026-4.064-1.623-7.309-4.754-9.62-5.834-4.313-15.105-4.094-15.492-4.082l-163.73-3.387c-.774-.013-1.383-.513-1.362-1.11.016-.597.613-1.105 1.437-1.05l163.63 3.387c1.017-.046 10.89-.177 17.458 4.678 3.699 2.736 5.586 6.502 5.616 11.192l-1.303 68.403c-.013.593-.64 1.068-1.4 1.068"
      fill="url(#prefix__o)" />
   <path
      d="M534.507 584.042h-16.042l1.6-19.638 4.701-.48a52.343 52.343 0 001.978 1.41 527.368 527.368 0 0012.516-2.89l4.256-.433a64.74 64.74 0 00-9.009 22.031m-25.54 0H312.078c.05-7.862.075-16.072.06-24.294h197.477a15.42 15.42 0 00-.28 2.673l-.37 21.622m-410.025 0H46.82c-.697 0-1.268-.57-1.268-1.267v-21.758c0-.698.57-1.27 1.268-1.27h52.02c-.018 8.897.013 17.096.102 24.295"
      fill="url(#prefix__p)" />
   <path
      d="M406.528 449.049c-6.63 21.843-26.951 37.78-50.928 37.78-29.333 0-53.2-23.869-53.2-53.21 0-16.136 7.225-30.622 18.613-40.394l-2.251-22.055c-21.346 12.636-35.686 35.903-35.686 62.449 0 39.993 32.535 72.532 72.525 72.532 25.313 0 47.641-13.038 60.62-32.754l-9.691-24.348"
      fill="#fff" />
   <path
      d="M439.629 484.286a9.658 9.658 0 01-3.54-.673c-2.483-.978-4.45-3.355-5.436-5.833l-24.628-62.268H343.78c-4.957 0-9.11-3.333-9.61-8.264l-8.612-84.3c-.54-5.308 3.324-9.945 8.635-10.486 5.305-.544 10.048 3.584 10.589 8.892l7.726 76.086h60.066c3.955 0 7.512 2.205 8.975 5.88l23.248 58.275 18.529-8.804c4.826-2.283 10.582-.242 12.863 4.581 2.278 4.824.214 10.572-4.61 12.85l-27.824 13.143a9.676 9.676 0 01-4.129.92"
      fill="#fff" />
   <path
      d="M397.126 379.35h-57.198c-5.337 0-9.661-4.204-9.661-9.54 0-5.335 4.324-9.537 9.661-9.537h57.198c5.337 0 9.662 4.202 9.662 9.536 0 5.337-4.325 9.54-9.662 9.54m-34.52-68.643c0 11.528-9.342 20.87-20.87 20.87-11.525 0-20.87-9.342-20.87-20.87 0-11.526 9.345-20.87 20.87-20.87 11.528 0 20.87 9.344 20.87 20.87"
      fill="#fff" />
   <path
      d="M206.292 608.7c-31.992 0-67.538-.877-88.446-1.49a3289.42 3289.42 0 01-9.389-.287c-5.034-.159-9.07-4.079-9.228-8.963a611.277 611.277 0 01-.209-8.505c-.03-1.725-.058-3.532-.08-5.396-.09-7.198-.12-15.397-.103-24.294a3584.814 3584.814 0 01.112-21.061c.466-56.463 2.202-128.24 2.877-154.664.158-6.167 5.13-11.21 11.476-11.61 5.023-.318 10.795-.456 17.082-.456 37.751 0 93.994 5.05 117.24 7.307 6.289.608 11.235 5.474 11.766 11.589 1.985 22.807 2.71 57.682 2.826 92.808-8.984-.613-17.952-1.035-25.593-1.035-3.599 0-6.902.092-9.779.306-3.632.266-6.48 3.645-6.57 7.777-.438 20.035-1.655 78.979-1.713 117.923-4.004.031-8.107.047-12.268.047m-36.97-231.907c-1.328 0-2.609.02-3.815.063-1.202.039-2.147 1.006-2.147 2.171 0 1.159.929 2.114 2.122 2.174 5.88.298 22.446 1.144 29.851 1.561.044.002.09.005.134.005 1.396 0 2.464-1.238 2.195-2.589l-.045-.237c-.19-.95-1.004-1.667-1.997-1.755-4.4-.392-16.611-1.393-26.298-1.393"
      fill="url(#prefix__q)" />
   <path
      d="M111.956 395.731c-1.36 30.89-5.65 133.658-4.289 171.66.2 5.553 4.712 10.044 10.43 10.37 23.548 1.336 83.94 4.283 118.477 1.601 6.218-.482 11.1-5.362 11.433-11.406 1.752-31.516 6.777-127.209 5.471-164.782-.209-5.995-4.994-10.89-11.151-11.426-25.475-2.221-90.898-7.5-120.244-5.946-5.51.292-9.891 4.58-10.127 9.928"
      fill="#7d97f4" />
   <path
      d="M115.193 401.046c-1.285 29.13-5.34 126.028-4.054 161.86.189 5.237 4.454 9.472 9.86 9.779 22.259 1.26 79.35 4.039 111.998 1.51 5.878-.456 10.492-5.058 10.81-10.757 1.655-29.715 6.406-119.943 5.171-155.374-.196-5.652-4.722-10.268-10.543-10.774-24.078-2.092-85.925-7.069-113.669-5.603-5.208.272-9.35 4.315-9.573 9.359"
      fill="#91b3fa" />
   <path
      d="M195.478 382.747c-.046 0-.089-.002-.134-.005-7.403-.417-23.97-1.262-29.85-1.559-1.193-.062-2.121-1.018-2.121-2.174 0-1.166.943-2.133 2.146-2.174 1.206-.043 2.487-.062 3.814-.062 9.687 0 21.9 1.003 26.3 1.396.993.086 1.807.802 1.996 1.752l.045.238c.271 1.35-.8 2.587-2.195 2.587"
      fill="url(#prefix__r)" />
   <path
      d="M211.776 441.514l-3.694-3.032c-.913-.75-2.314-.653-3.13.213l-58.82 62.28c-.848.9-.775 2.237.165 2.988l3.81 3.043c.938.751 2.384.628 3.23-.27l58.609-62.3c.816-.866.738-2.175-.17-2.922m-26.81 9.419v2.278l-32.888 35.104h-5.156c-2.043 0-3.7-.915-3.7-2.955v-25.228c0-2.043 1.657-3.79 3.7-3.79h14.95v.168c6.217-2.971 12.18-5.934 18.238-8.905 1.141-.556 2.388-.487 3.467.186 1.085.677 1.388 1.864 1.388 3.142m-13.624 42.721l13.615-14.684v15.593c0 1.278-.41 2.462-1.496 3.142a3.605 3.605 0 01-3.534.177c-2.88-1.406-5.714-2.82-8.585-4.228m39.745-20.082a33.77 33.77 0 01-8.2 22.099c-1.049 1.216-2.906 1.307-4.04.164l-.115-.106c-1.007-1.015-1.085-2.637-.15-3.722a28.095 28.095 0 006.856-18.434c0-4.577-1.093-8.899-3.035-12.72l4.078-4.335a33.713 33.713 0 014.606 17.055"
      fill="#fff" />
   <path
      d="M201.684 473.572a24.37 24.37 0 01-5.45 15.393c-1.022 1.256-2.915 1.334-4.063.193l-.016-.023c-1.007-1-1.056-2.592-.17-3.7a18.836 18.836 0 004.185-11.863 18.769 18.769 0 00-.756-5.284l4.227-4.492a24.248 24.248 0 012.043 9.776"
      fill="#fff" />
   <path
      d="M280.096 641.211c-21.468 0-45.727-.807-56.025-1.188-2.884-.108-5.192-2.734-5.285-6.005-.176-6.391-.241-15.197-.225-25.36.058-38.943 1.274-97.89 1.714-117.925.088-4.132 2.937-7.51 6.57-7.777 2.877-.213 6.18-.304 9.779-.304 7.641 0 16.608.42 25.59 1.033 16.44 1.125 32.943 2.881 41.55 3.86 3.6.408 6.433 3.668 6.737 7.76.837 11.243 1.28 26.858 1.484 43.697.051 3.97.084 8.001.107 12.067.016 2.89.028 5.801.033 8.703.016 8.22-.01 16.43-.058 24.292-.123 19.23-.392 36.374-.578 46.508-.102 5.516-3.962 9.981-8.823 10.212-6.477.31-14.318.428-22.57.428m-21.17-155.336c-.761 0-1.494.012-2.184.04-.689.027-1.229.675-1.229 1.454 0 .777.531 1.415 1.213 1.457 3.369.2 12.857.766 17.096 1.046l.074.002c.8 0 1.41-.83 1.26-1.733l-.028-.16c-.107-.635-.573-1.116-1.144-1.174-2.52-.262-9.512-.932-15.058-.932"
      fill="url(#prefix__s)" />
   <path
      d="M226.089 498.565c-.78 20.693-3.237 89.534-2.457 114.987.115 3.72 2.698 6.728 5.973 6.945 13.484.897 48.07 2.87 67.85 1.074 3.56-.325 6.356-3.592 6.55-7.64 1.002-21.11 3.878-85.211 3.13-110.38-.12-4.014-2.86-7.294-6.386-7.652-14.589-1.486-52.054-5.024-68.86-3.984-3.157.195-5.666 3.069-5.8 6.65"
      fill="#7d97f4" />
   <path
      d="M228.931 502.989c-.723 19.194-3.002 83.05-2.277 106.657.105 3.452 2.503 6.244 5.54 6.445 12.509.83 44.588 2.662 62.935.994 3.303-.298 5.896-3.33 6.076-7.087.928-19.583 3.596-79.036 2.902-102.385-.109-3.724-2.652-6.765-5.921-7.1-13.533-1.376-48.285-4.658-63.877-3.694-2.925.182-5.253 2.846-5.378 6.17"
      fill="#91b3fa" />
   <path
      d="M273.924 489.853l-.077-.002c-4.238-.28-13.726-.848-17.095-1.047-.682-.04-1.213-.68-1.213-1.456 0-.78.54-1.428 1.229-1.455.69-.03 1.421-.04 2.184-.04 5.546 0 12.538.67 15.058.932.57.059 1.036.539 1.144 1.175l.027.16c.152.903-.458 1.733-1.258 1.733"
      fill="url(#prefix__t)" />
   <path
      d="M265.716 545.643a11.55 11.55 0 011.67.083l2.434-2.76a35.687 35.687 0 00-4.203-.162c-11.64.24-21.76 6.102-27.367 14.772 2.765 3.736 6.398 6.871 10.612 9.157l6.109-6.928a10.836 10.836 0 01-.422-2.655c-.213-6.214 4.797-11.366 11.166-11.507zm17.097 1.292l-5.798 6.602a10.91 10.91 0 01.534 3.014c.211 6.16-4.734 11.31-11.072 11.505a11.52 11.52 0 01-2.11-.124l-2.46 2.804a35 35 0 004.669.159c11.54-.364 21.403-6.235 26.798-14.759-2.724-3.756-6.337-6.91-10.562-9.201m5.223-12.746l-2.662-2.038c-.657-.503-1.637-.402-2.191.224l-39.756 45.083c-.574.65-.491 1.587.186 2.092l2.745 2.043c.675.502 1.686.384 2.258-.267l39.612-45.091c.551-.628.466-1.543-.19-2.045"
      fill="#fff" />
   <path
      d="M527.426 452.85c2.807 3.992 5.924 7.795 9.126 11.48 3.009 3.462 6.157 6.812 9.504 9.96 2.083 1.963 3.754 4.508 6.285 5.97 1.873 1.081 1.99.763 3.218-.6 1.982-2.199 4.236-3.43 6.483-1.432 1.757 1.561 4.093 2.996 5.123 5.176 1.096 2.332-.416 15.486-4.342 14.554-.011-.002-17.645-4.198-36.481-41.099l1.084-4.007"
      fill="url(#prefix__u)" />
   <path
      d="M531.177 461.53c-.055.582 2.124.983 2.816-1.497-.188-1.076-.526-5.79-1.358-6.521-4.428-3.902-12.324-8.288-12.324-8.288-.883 1.336.276 2.218.276 2.218l3.939 2.641c-.409 1.352-1.009 2.548-1.079 4.09-.051 1.169.387 2.315 1.167 3.2.784.89 1.84 2.039 2.794 2.911 1.8 1.65 3.77 1.245 3.77 1.245"
      fill="url(#prefix__v)" />
   <path
      d="M531.312 456.046l-1.455-2.26-3.467-1.842c-.542.44-.77 1.023.11 1.938.883.915 2.822 5.604 2.822 5.604l1.99-3.44"
      fill="url(#prefix__w)" />
   <path
      d="M572.486 518.614c-4.191 8.753 23.544 14.48 47.974 18.389l.447-58.718s3.74-24.905-13.32-27.668c-10.043-2.546-10.043-2.523-10.043-2.523s-12.852-1.861-23.603 2.558c-10.748 4.42-18.717 28.402-18.717 28.402l11.802 13.625a.409.409 0 00.7-.154l4.026-12.498.734 38.586"
      fill="url(#prefix__x)" />
   <path
      d="M595.949 475.758c.119-.22.18-.486.246-.724.3-1.088.816-2.184 1.206-3.258.193-.523.382-1.043.57-1.566.144-.39.517-1.007.517-1.417 1.383-3.799 2.765-7.6 4.147-11.401a.23.23 0 00-.14-.296.232.232 0 00-.299.139c-.529 1.444-1.05 2.89-1.579 4.335l-2.966 8.154c-.43 1.177-.857 2.355-1.284 3.532-.143.392-.332.767-.488 1.157-.082.213-.135.437-.213.65-.004.012-.193.485-.246.382.094.174.25.385.426.464a.784.784 0 00.103-.15"
      fill="url(#prefix__y)" />
   <path d="M568.65 423.248s1.378-3.867-2.141-4.555c-3.52-.69-.16 9.578-.16 9.578l2.302-5.023" fill="url(#prefix__z)"
      fill-rule="evenodd" />
   <path d="M596.756 433.743l1.39 15.156s-8.056 4.673-14.987.587l1.231-13.235 12.366-2.508" fill="url(#prefix__A)"
      fill-rule="evenodd" />
   <path
      d="M566.969 422.979s-3.527-6.004.968-9.161c0 0-2.412-5.281 2.15-9.103 0 0 7.267-16.886 22.518-5.04 0 0 13.135-3.878 17.359 12.338 0 0 4.366 2.433 2.367 8.492 0 0 .488 22.473-19.334 14.898l-26.028-12.424"
      fill="url(#prefix__B)" fill-rule="evenodd" />
   <path
      d="M573.529 410.415s-16.806 25.141.56 32.843c16.385 7.268 23.292-9.426 23.292-9.426s7.204-7.413 4.785-13.12c-2.419-5.709-24.54-13.42-28.638-10.297"
      fill="url(#prefix__C)" fill-rule="evenodd" />
   <path
      d="M599.01 429.875s-16.445-5.17-15.04-14.814c0 0-2.851.282-3.723-3.05 0 0-8.072 7.21-10.2 2.168 0 0 1.413-12.482 11.274-8.439 9.861 4.046 18.872 8.161 21.507 11.04 2.641 2.88 4.832 9.85-3.819 13.095"
      fill="url(#prefix__D)" fill-rule="evenodd" />
   <path d="M595.242 436.081l2.922-7.975s5.646-2.574 4.902 1.763c-.744 4.34-5.818 6.737-7.824 6.212"
      fill="url(#prefix__E)" fill-rule="evenodd" />
   <path
      d="M541.403 558.729l-32.56 58.118a.952.952 0 01-1.267.381l-30.3-15.707a2.617 2.617 0 01-.686-4.133 3.323 3.323 0 014.024-.601l25.228 14.126a.951.951 0 001.315-.402l23.909-47.526a.948.948 0 01.846-.52l9.491-3.734"
      fill="url(#prefix__F)" />
   <path
      d="M557.08 526.065l-53.438 19.033a3.426 3.426 0 00-2.213 2.56l-11.006 47.98c.88 3.22 2.802 3.023 7.057.211 6.357-14.092 15.29-28.487 15.015-36.335a4.368 4.368 0 013.532-2.9l31.434-4.377 9.618-26.173"
      fill="url(#prefix__G)" />
   <path
      d="M497.757 594.302c-3.18 2.404-5.196 2.823-7.125.47-6.548.945-9.378 3.254-9.423 6.582 6.458 1.277 12.905 1.56 19.332-.253-.187-2.976-.938-6.88-2.784-6.799"
      fill="url(#prefix__H)" />
   <path
      d="M579.23 530.035c-7.14 11.212-36.945 25.293-53.8 28.92-6.136-4.16-11.76-9.87-13.926-16.81 8.709-6.63 43.705-16.698 60.557-22.043l7.168 9.932"
      fill="url(#prefix__I)" />
   <path d="M624.559 542.447l12.9 5.125-.475-76.105c-4.821-7.658-8.886-6.826-12.425 0v70.981" fill="url(#prefix__J)" />
   <path
      d="M565.607 530.556l-53.436 19.03a3.421 3.421 0 00-2.216 2.559l-9.49 48.133c.876 3.22 2.519 3.364 6.777.555 6.355-14.093 14.058-28.984 13.783-36.83a4.363 4.363 0 013.526-2.9l31.433-4.377 9.621-26.171"
      fill="url(#prefix__K)" />
   <path
      d="M507.647 599.92c-3.243 2.366-5.276 2.756-7.182.359-6.597.845-9.479 3.121-9.585 6.467 6.478 1.388 12.962 1.777 19.453.056-.141-2.993-.83-6.936-2.687-6.882"
      fill="url(#prefix__L)" />
   <path
      d="M526.72 565.356a53.633 53.633 0 01-1.977-1.41l14.492-1.481a526.956 526.956 0 01-12.515 2.89m-12.606-13.807a4.77 4.77 0 012.377-5.304c3.753-2.029 9.496-4.563 16.1-7.245 15.361-6.239 35.394-13.278 45.911-16.615l18.892 5.84 8.07 2.493-5.516 1.11c-.305-.002-.614-.005-.919-.005-9.466 0-18.464 1.98-26.6 5.549l-50.897 10.252a15.549 15.549 0 00-7.42 3.925"
      fill="url(#prefix__M)" />
   <path
      d="M515.384 621.97h-7.047l.356-20.94.288-16.964.364-21.62a15.39 15.39 0 014.801-10.894 15.58 15.58 0 017.416-3.925l50.9-10.252a66.028 66.028 0 00-28.937 24.66l-4.255.433-14.496 1.48-4.695.48-1.602 19.637-.911 11.132-2.182 26.773m107.992-85.547a66.046 66.046 0 00-23.395-4.595l5.517-1.11 15.937-3.212 3.297-.663-1.356 9.58"
      fill="url(#prefix__N)" />
   <path
      d="M541.572 628.731h-31.697a.764.764 0 01-.761-.76v-4.174c0-.419.343-.76.761-.76h31.697c.418 0 .761.341.761.76v4.174c0 .417-.343.76-.761.76"
      fill="url(#prefix__O)" />
   <path
      d="M527.73 636.67c0 8.896-7.264 16.108-16.225 16.108-8.957 0-16.22-7.212-16.22-16.108s7.263-16.106 16.22-16.106c8.961 0 16.224 7.21 16.224 16.106"
      fill="url(#prefix__P)" />
   <path
      d="M523.962 636.653c0 6.827-5.574 12.359-12.448 12.359-6.873 0-12.443-5.532-12.443-12.359 0-6.824 5.57-12.356 12.443-12.356 6.874 0 12.448 5.532 12.448 12.356"
      fill="url(#prefix__Q)" />
   <path
      d="M652.765 446.055c-27.88-7.999-36.216 2.913-33.792 34.852V541.9h6.962v-72.157c.603-15.718 5.828-20.322 24.242-14.546 5.934.736 9.01-7.183 2.588-9.14"
      fill="url(#prefix__R)" />
   <path
      d="M621.346 527.714l-79.256.477v-.233c0-3.841 3.07-6.992 6.938-7.117l68.952-2.239c2.779-.09 4.89 2.451 4.274 5.144l-.908 3.968"
      fill="url(#prefix__S)" />
   <ellipse cx="598.808" cy="595.109" rx="59.654" ry="58.868" fill="#91b3fa" fill-rule="evenodd" />
   <path
      d="M598 660.756c-36.383 0-65.881-29.285-65.881-65.411a65.365 65.365 0 011.336-13.17 64.757 64.757 0 019.009-22.03 66.002 66.002 0 0128.941-24.661c8.134-3.568 17.129-5.548 26.595-5.548a66.034 66.034 0 0124.314 4.6 65.916 65.916 0 0111.708 6.037c17.981 11.68 29.856 31.85 29.856 54.774 0 36.126-29.496 65.41-65.877 65.41m1.121-120.327c-31.17 0-56.432 25.088-56.432 56.034 0 30.946 25.264 56.034 56.432 56.034 31.168 0 56.438-25.09 56.438-56.034 0-30.947-25.268-56.034-56.438-56.034"
      fill="url(#prefix__T)" />
   <path
      d="M512.878 472.798l33.588-2.581c1.377-.108 2.676.677 3.313 1.996l25.133 52.216c1.208 2.516-.539 5.507-3.171 5.42l-29.155-.976c-1.125-.038-2.168-.664-2.782-1.68l-29.572-48.658c-1.44-2.37.02-5.534 2.644-5.736"
      fill="url(#prefix__U)" />
   <path
      d="M608.328 483.596c-3.955-1.888-8.117-3.763-10.938-6.562L584.4 492.2s-26.734-9.45-32.622-5.208c-5.887 4.243-3.575 4.6-2.962 4.717.612.114 4.025-2.39 4.025-2.39s-3.194 3.24-1.89 3.657c1.303.419 5.229-2.476 5.229-2.476s-3.566 4.129-1.858 3.9c1.709-.23 3.492-2.49 3.492-2.49s-2.714 2.568-1.278 2.952c1.431.383 4.14-1.756 4.14-1.756s3.112 2.175 5.064 2.543c1.953.367 20.685 8.952 24.633 7.595 3.942-1.354 17.954-19.646 17.954-19.646"
      fill="url(#prefix__V)" />
   <path
      d="M535.08 409.759c-11.528 0-21.343-8.159-26.574-13.559-2.853-2.946-6.852-4.89-11.25-5.465-15.765-2.06-41.76-7.833-44.428-27.383-3.143-22.99 19.431-40.998 42.706-48.19 0 0 15.112-3.694 31.819-3.694 19.447 0 41.048 5.004 43.487 26.644 3.353 29.752-22.555 42.878-36.287 47.697-7.259 2.547-9.287 10.728-3.674 15.441 3.737 3.14 9.065 3.869 13.208 3.869.426 0 .84-.01 1.24-.023h.058c1.298 0 1.786 1.514.637 2.075-3.752 1.827-7.427 2.585-10.94 2.585m-76.77-53.893c-.762 0-1.411.505-1.482 1.173-.41 3.882 0 6.395.02 6.5.106.642.747 1.103 1.474 1.103.074 0 .148-.004.218-.012.818-.105 1.38-.758 1.263-1.466-.004-.02-.379-2.31 0-5.894.074-.708-.531-1.333-1.352-1.4-.047-.004-.094-.004-.141-.004m47.557-39.825c-.121 0-.246.016-.368.04-15.82 3.462-36.49 11.28-45.136 28.843-.32.653.031 1.407.793 1.689.192.066.387.101.583.101.582 0 1.133-.293 1.376-.786 8.166-16.59 27.957-24.028 43.12-27.346.797-.176 1.282-.88 1.079-1.568-.172-.582-.778-.973-1.447-.973"
      fill="url(#prefix__W)" />
   <path
      d="M509.716 347.24s1.143-13.449 16.679-11.229c14.72 2.108 10.004 19.487-10.731 30.546-2.246 1.2-5.032 1.378-7.464.484-9.104-3.341-30.307-12.91-18.616-26.2 7.557-8.581 20.131 6.4 20.131 6.4"
      fill="#fff" />
   <path
      d="M461.746 346.72a1.679 1.679 0 01-.584-.106c-.76-.278-1.111-1.034-.79-1.689 8.645-17.56 29.315-25.375 45.134-28.842a1.914 1.914 0 01.37-.038c.664 0 1.273.39 1.445.97.2.69-.281 1.394-1.08 1.57-15.164 3.317-34.954 10.756-43.12 27.346-.242.493-.795.788-1.375.788"
      fill="url(#prefix__X)" />
   <path
      d="M458.332 364.615c-.73 0-1.368-.461-1.478-1.103-.016-.103-.425-2.616-.016-6.5.068-.668.717-1.172 1.481-1.172.045 0 .094 0 .139.006.823.065 1.43.69 1.355 1.397-.38 3.585-.006 5.875 0 5.898.116.706-.449 1.358-1.265 1.461a1.607 1.607 0 01-.216.013"
      fill="url(#prefix__Y)" />
   <path
      d="M186.21 388.819s-17.435 40.238-28.166 34.875c-10.73-5.367-18.777-49.628-18.777-49.628s39.591-11.91 46.943 14.752"
      fill="url(#prefix__Z)" />
   <path
      d="M125.51 638.503s-1.457 8.253-2.172 16.423c-.28 3.193 2.182 5.965 5.384 6.097 10.879.453 34.147 1.334 42.498.962 1.256-.056 2.076-1.341 1.612-2.51a4.108 4.108 0 00-2.097-2.208l-38.439-17.664-6.787-1.099"
      fill="url(#prefix__aa)" />
   <path d="M124.314 633.66l1.172 9.871s6.733 3.133 11.331-.395l-2.788-11.002-9.714 1.525" fill="url(#prefix__ab)" />
   <path
      d="M125.196 448.073c-.506 2.577-2.716 128.634 10.76 185.132a1.92 1.92 0 01-1.126 2.232c-2.066.843-6.118 2.065-10.974 2.229a3.3 3.3 0 01-3.276-2.37c-3.851-13.108-22.307-78.776-24.718-141.508-2.69-70.095 0-2.386 0-2.386l1.578-43.33 27.754.007"
      fill="url(#prefix__ac)" />
   <path
      d="M81.292 642.81s-2.32 4.166-4.567 15.235c-.405 2 .991 3.913 3.022 4.113 3.592.354 9.122.807 13.552.778 2.042-.016 3.635-1.794 3.389-3.821-.49-4.04-2.02-10.67-6.741-15.837l-8.655-.469"
      fill="url(#prefix__ad)" />
   <path d="M79.255 630.11l2.736 14.927s2.707 2.014 8.059.554l-1.306-16.061-9.489.58" fill="url(#prefix__ae)" />
   <path
      d="M71.863 451.959c-11.02 66.509 2.39 164.383 6.913 183.534a2.988 2.988 0 002.413 2.27c2.018.333 5.342.607 8.62-.346a2.737 2.737 0 001.968-2.52c.606-15.488-.486-110.565 9.783-148.14a8.536 8.536 0 013.292-4.707l19.93-14.17 1.529-22.902-54.446 6.977"
      fill="url(#prefix__af)" />
   <path
      d="M143.3 328.437c-40.239-4.026-70.682 6.158-70.682 6.158-9.844 57.442-1.721 123.699-1.721 123.699 25.568 6.706 54.41-4.099 54.41-4.099 4.25-24.01 24.078-91.582 24.078-91.582 16.135-2.003 4.052-33.162-6.086-34.177"
      fill="url(#prefix__ag)" />
   <path
      d="M114.729 392.855s-40.118 18.606-49.476 6.886c-2.642-3.312-2.534-7.36-1.936-10.651-10.382-5.241-20.308-6.67-26.136-7.098-1.53 8.01.324 18.034 5.593 26.314 19.073 29.974 76.902-5.877 76.902-5.877l-4.948-9.573"
      fill="url(#prefix__ah)" />
   <path
      d="M127.96 402.627l14.238-49.72a1.449 1.449 0 011.227-1.042 618.7 618.7 0 0118.684-1.878c10.395-.877 22.466-1.59 29.68-.982a1.452 1.452 0 011.188 2.09c-4.1 8.301-20.974 42.058-29.424 53.12a1.462 1.462 0 01-1.175.575l-33.032-.308a1.454 1.454 0 01-1.385-1.855"
      fill="url(#prefix__ai)" />
   <path
      d="M115.328 405.47s-2.633-10.826-1.571-14.666c1.062-3.843 3.12-8.784 9.98-7.683 6.859 1.095 14.95 3.986 14.95 3.986s-.408 5.002-5.621 3.388l3.232 2.502s-.462 4.005-4.866 1.866l3.007 3.317s-1.89 3.29-5.13 1.18c-3.24-2.11-4.793 7.413-13.981 6.11"
      fill="url(#prefix__aj)" />
   <path
      d="M185.605 389.374s7.985-7.776 9.124-11.591c1.14-3.82 2.02-9.1-4.374-11.812-6.393-2.713-14.784-4.564-14.784-4.564s-2.312 4.457 2.962 5.858l-4.068.4s-1.736 3.64 3.133 4.168l-4.31 1.212s-.146 3.792 3.72 3.725c3.866-.067.121 8.826 8.597 12.603"
      fill="url(#prefix__ak)" />
   <path
      d="M112.655 301.61L102.147 332a1.096 1.096 0 00.499 1.32c2.864 1.582 13.185 6.158 25.62-1.725 1.296-.822 2.178-2.16 2.375-3.683l3.403-26.302h-21.39"
      fill="url(#prefix__al)" />
   <path d="M142.034 282.065s3.36 24.372-1.049 32.097c-4.408 7.73-17.62 2.218-26.892-8.771l-.123-25.024 28.065 1.698"
      fill="url(#prefix__am)" />
   <path
      d="M118.564 294.78a.894.894 0 00.818-1.095c-.382-1.644-1.018-4.946-.669-7.504 0 0-1.49-1.961 6.02-1.083 7.51.875 18.749 2.086 23.066-2.998 4.21-4.956 3.948-21.4-9.106-13.158a.895.895 0 01-1.335-.481c-.759-2.418-3.135-7.731-9.299-7.297-5.767.407-7.655 3.833-8.258 5.686a.89.89 0 01-1.304.493c-2.329-1.396-8.188-4.01-13.253 1.127-4.17 4.233-3.723 7.66-2.87 9.565a.893.893 0 01-.869 1.26c-1.83-.103-4.467.515-5.668 4.45-1.66 5.437 4.473 7.154 6.259 7.532a.902.902 0 01.65.537c.864 2.145 4.914 11.384 11.707 14.807.588.298 1.287-.134 1.3-.795l.2-10.049a.9.9 0 01.84-.878l1.77-.118"
      fill="url(#prefix__an)" />
   <path d="M119.344 296.513s-5.774-8.12-7.971-3.872c-2.198 4.252 4.58 9.002 8.91 8.705l-.939-4.833"
      fill="url(#prefix__ao)" />
   <path
      d="M85.29 366.583l-12.668-31.98s-30.179 20.506-35.748 46.67a.78.78 0 00.696.937c5.975.515 16.063 2.127 25.948 7.118 2.281-12.549 21.772-22.744 21.772-22.744"
      fill="url(#prefix__ap)" />
   <path
      d="M135.36 293.856l-.717-.951c.095-.073 2.354-1.774 4.63-1.439 1.012.149 1.852.677 2.5 1.561l-.964.706c-.458-.627-1.018-.983-1.712-1.085-1.752-.26-3.716 1.193-3.737 1.208"
      fill="url(#prefix__aq)" />
   <path
      d="M135.657 292.981c0 3.248-2.074 5.877-4.633 5.877s-4.633-2.63-4.633-5.877c0-3.244 2.074-5.873 4.633-5.873 2.56 0 4.633 2.629 4.633 5.873"
      fill="url(#prefix__ar)" />
   <path
      d="M147.574 292.981c0 3.248-1.52 5.877-3.393 5.877-1.873 0-3.392-2.63-3.392-5.877 0-3.244 1.519-5.873 3.392-5.873 1.874 0 3.393 2.629 3.393 5.873"
      fill="url(#prefix__as)" />
</svg>