<svg viewBox="0 0 25.095 20" xmlns="http://www.w3.org/2000/svg">
    <path
        d="M14.579 7.564c0-.987-.697-1.531-1.92-1.531h-2.25v3.179h1.897c1.465-.005 2.273-.594 2.273-1.648zm8.194-.571c-.424-1.38-.487-3.072-.438-4.38C22.385 1.25 21.322 0 19.893 0H5.21C3.777 0 2.719 1.255 2.768 2.612c.045 1.309-.013 3-.437 4.38C1.9 8.378 1.183 9.253 0 9.365v1.272c1.179.112 1.902.987 2.33 2.371.425 1.38.487 3.073.438 4.38C2.72 18.75 3.782 20 5.211 20h14.677c1.433 0 2.491-1.255 2.442-2.612-.044-1.308.014-3 .438-4.38.428-1.385 1.147-2.26 2.326-2.372V9.364c-1.174-.112-1.898-.987-2.322-2.371zm-9.68 8.327H8.72V4.68h4.349c1.933 0 3.201 1.044 3.201 2.652 0 1.13-.852 2.139-1.942 2.313v.058c1.482.16 2.478 1.188 2.478 2.603 0 1.88-1.397 3.014-3.715 3.014zm-.447-4.853h-2.238v3.5h2.336c1.527 0 2.335-.611 2.335-1.763 0-1.148-.83-1.737-2.434-1.737z"
        fill="#3ee8e5" />
</svg>