<svg viewBox="0 0 17.007 20" xmlns="http://www.w3.org/2000/svg">
    <path
        d="M7.327 4.586c-.216.023-.141.221-.261.225-.118.005-.094-.252.26-.225zm.649.033c.209-.054.21.157.325.119.11-.038-.002-.268-.325-.12zm7.219 13.814c-.647.325-1.491 1.048-1.807 1.347-.232.223-1.204.333-1.744.055-.64-.33-.301-.844-1.29-.869-.49-.011-.969-.015-1.448-.01-.423.006-.846.019-1.278.042-1.485.012-1.63.983-2.575.947-.647-.024-1.464-.534-2.866-.828-.986-.205-1.932-.254-2.135-.69-.202-.435.25-.922.28-1.355.037-.565-.428-1.334-.085-1.631.284-.247.906-.066 1.306-.29.427-.236.598-.433.598-.952.156.53-.007.97-.36 1.185-.21.126-.599.193-.919.16-.254-.023-.41.018-.488.115-.098.125-.067.345.057.637.125.292.274.478.254.835-.02.358-.413.783-.35 1.084.024.116.137.212.41.29.452.126 1.259.241 2.055.435.885.217 1.798.626 2.366.548 1.698-.237.73-2.057.455-2.49-1.433-2.256-2.38-3.733-3.14-3.147-.197.153-.205-.383-.196-.59.032-.741.409-1 .633-1.578.419-1.08.745-2.318 1.394-2.958.482-.617 1.235-1.634 1.379-2.17-.122-1.166-.159-2.393-.178-3.468C5.505 1.943 5.686.94 6.978.238 7.292.068 7.702.005 8.135 0c.776-.008 1.63.209 2.177.614.871.645 1.418 2.02 1.355 3.008-.052.76.085 1.558.329 2.377.292.974.754 1.658 1.488 2.437.884.937 1.572 2.785 1.766 3.956.183 1.093-.055 1.769-.295 1.803-.357.053-.58 1.188-1.7 1.135-.713-.035-.783-.456-.981-.816-.318-.574-.642-.395-.772.204-.067.307-.018.746.08 1.088.2.7.131 1.364.012 2.17-.228 1.545 1.08 1.837 1.963 1.103.87-.726 1.057-.841 2.16-1.217 1.662-.57 1.103-1.073.21-1.373-.802-.27-.835-1.624-.548-1.88.064 1.455.82 1.666 1.142 1.864 1.375.854-.52 1.554-1.326 1.96zm-3.701-4.26c.15-.18.33-.2.564-.204.036-.886 1.416-.82 1.868-.45 0-.205-.434-.39-.607-.476.3-1 .16-1.403-.04-2.348-.152-.721-.809-1.692-1.323-1.996.13.114.376.445.637.93.449.837.892 2.072.597 3.11-.114.396-.373.446-.552.466-.79.083-.326-.935-.654-2.337-.366-1.558-.741-1.675-.835-1.797-.454-2.027-.958-1.825-1.1-2.59-.129-.677.59-1.238-.387-1.427-.298-.059-.724-.36-.894-.382-.168-.023-.25-1.118.367-1.162.617-.046.735.697.614.99-.176.289.013.397.318.303.25-.077.088-.727.148-.824-.161-.93-.55-1.065-.955-1.143-1.537.118-.847 1.82-1.002 1.656-.218-.23-.873-.013-.87-.16.014-.869-.276-1.372-.677-1.383-.446-.012-.63.612-.657.964-.026.338.2 1.042.366.988.108-.035.294-.253.095-.252-.102.001-.257-.24-.273-.532-.016-.292.091-.586.47-.57.445.017.44.886.392.92-.142.098-.325.29-.344.322-.142.237-.425.295-.53.399-.197.198-.238.422-.09.508.51.292.344.616 1.056.647.467.018.819-.073 1.137-.17.248-.075 1.044-.245 1.212-.537.073-.124.164-.129.225-.093.107.061.13.268-.145.342-.394.107-.791.317-1.14.456-.347.141-.458.195-.786.256-.739.132-1.284-.267-.789.212.164.16.323.26.748.242.93-.037 1.973-1.155 2.076-.654.022.102-.294.242-.541.365-.873.429-1.487 1.277-2.046.983-.5-.263-.998-1.504-.989-.948.014.857-1.13 1.62-.603 2.595-.341.093-1.118 1.732-1.23 2.586-.06.483.047 1.09-.07 1.43-.167.49-.931-.468-.687-1.641.043-.207.006-.25-.049-.151-.31.549-.14 1.314.105 1.852.108.232.358.335.544.542.4.447 1.931 1.583 2.21 1.855a.689.689 0 01-.474 1.162c.367.692.724.757.718 1.888.415-.223.248-.71.075-1.03-.122-.22-.28-.32-.246-.371.026-.04.24-.223.368-.079.378.423 1.09.5 1.858.404.765-.098 1.586-.365 1.966-.975.178-.287.306-.388.388-.338.082.051.117.253.109.578-.01.361-.161.736-.255 1.035-.106.34-.138.58.192.593.099-.627.271-1.244.321-1.868.056-.71-.459-2.032.096-2.69zM6.802 4.093c-.026.14-.015.228.081.228.016 0 .033-.004.04-.04.046-.277-.098-.48-.157-.496-.136-.034-.119.161-.048.146.043-.009.101.063.084.162zm2.526-.382c-.14.013-.1.083-.03.103.091.027.177.182.197.35.001.016.117-.024.117-.06.008-.27-.223-.398-.284-.393z"
        fill="#3ee8e5" />
</svg>