<svg viewBox="0 0 640 500" xmlns="http://www.w3.org/2000/svg">
   <path
      d="M517.47 193.059c0-.138.958-.248 2.136-.248l.72.013-.233.233c.034-.827.125-1.416.233-1.416.106 0 .198.59.233 1.416l.009.23-.242.004-.72.014c-1.178 0-2.135-.11-2.135-.246m-5.71 0c0-.138.639-.249 1.427-.249s1.43.11 1.43.248c0 .136-.642.247-1.43.247-.788 0-1.427-.11-1.427-.247m-5.709 0c0-.137.64-.248 1.428-.248.788 0 1.426.11 1.426.248 0 .136-.638.247-1.426.247-.789 0-1.428-.11-1.428-.247m-5.71 0c0-.137.64-.248 1.427-.248.789 0 1.428.11 1.428.248 0 .136-.64.247-1.428.247-.788 0-1.427-.11-1.427-.247m-5.71 0c0-.137.64-.248 1.427-.248.79 0 1.429.11 1.429.248 0 .136-.64.247-1.429.247-.787 0-1.427-.11-1.427-.247m-5.71 0c0-.137.64-.248 1.428-.248.789 0 1.428.11 1.428.248 0 .136-.64.247-1.428.247-.788 0-1.427-.11-1.427-.247m-5.71 0c0-.137.639-.248 1.427-.248s1.428.11 1.428.248c0 .136-.64.247-1.428.247-.788 0-1.426-.11-1.426-.247m-5.712 0c0-.137.64-.248 1.429-.248.788 0 1.427.11 1.427.248 0 .136-.639.247-1.427.247-.789 0-1.429-.11-1.429-.247m-5.709 0c0-.137.64-.248 1.427-.248.79 0 1.428.11 1.428.248 0 .136-.639.247-1.428.247-.786 0-1.426-.11-1.426-.247m-5.71 0c0-.137.638-.248 1.427-.248.788 0 1.429.11 1.429.248 0 .136-.64.247-1.43.247-.788 0-1.425-.11-1.425-.247m-5.71 0c0-.137.639-.248 1.427-.248.789 0 1.428.11 1.428.248 0 .136-.64.247-1.428.247-.788 0-1.427-.11-1.427-.247m-5.71 0c0-.137.639-.248 1.428-.248.788 0 1.426.11 1.426.248 0 .136-.638.247-1.426.247-.79 0-1.428-.11-1.428-.247m-5.71 0c0-.137.64-.248 1.426-.248.79 0 1.43.11 1.43.248 0 .136-.64.247-1.429.247-.788 0-1.426-.11-1.426-.247m-5.71 0c0-.137.638-.248 1.427-.248.788 0 1.427.11 1.427.248 0 .136-.639.247-1.427.247-.789 0-1.428-.11-1.428-.247m-5.71 0c0-.137.64-.248 1.428-.248.789 0 1.427.11 1.427.248 0 .136-.638.247-1.427.247-.788 0-1.426-.11-1.426-.247m-5.711 0c0-.137.639-.248 1.427-.248.789 0 1.428.11 1.428.248 0 .136-.64.247-1.428.247-.788 0-1.427-.11-1.427-.247m-5.71 0c0-.137.64-.248 1.427-.248.789 0 1.428.11 1.428.248 0 .136-.64.247-1.428.247-.787 0-1.427-.11-1.427-.247m-5.71 0c0-.137.639-.248 1.429-.248.787 0 1.427.11 1.427.248 0 .136-.64.247-1.427.247-.79 0-1.428-.11-1.428-.247m-1.782-3.928c.137 0 .248.639.248 1.427 0 .789-.112 1.428-.248 1.428-.137 0-.248-.64-.248-1.428 0-.788.11-1.427.248-1.427m0-5.71c.137 0 .248.639.248 1.427s-.112 1.428-.248 1.428c-.137 0-.248-.64-.248-1.428 0-.788.11-1.427.248-1.427m0-5.709c.137 0 .248.64.248 1.428 0 .788-.11 1.426-.248 1.426-.137 0-.248-.638-.248-1.426 0-.789.11-1.428.248-1.428m0-5.71c.137 0 .248.639.248 1.427 0 .789-.11 1.428-.248 1.428-.137 0-.248-.64-.248-1.428 0-.788.11-1.427.248-1.427m0-5.71c.137 0 .248.64.248 1.428 0 .789-.11 1.426-.248 1.426-.137 0-.248-.637-.248-1.426 0-.788.11-1.428.248-1.428m0-5.71c.137 0 .248.64.248 1.428 0 .789-.11 1.428-.248 1.428-.137 0-.248-.64-.248-1.428 0-.788.11-1.427.248-1.427m0-5.71c.137 0 .248.639.248 1.427s-.11 1.428-.248 1.428c-.137 0-.248-.64-.248-1.428 0-.788.11-1.427.248-1.427m0-5.71c.137 0 .248.64.248 1.428 0 .788-.11 1.427-.248 1.427-.137 0-.248-.639-.248-1.427 0-.789.11-1.429.248-1.429m0-5.709c.137 0 .248.64.248 1.428 0 .788-.11 1.427-.248 1.427-.137 0-.248-.639-.248-1.427 0-.789.11-1.428.248-1.428m0-5.71c.137 0 .248.64.248 1.428 0 .788-.11 1.427-.248 1.427-.137 0-.248-.639-.248-1.427 0-.789.11-1.428.248-1.428m0-5.708c.137 0 .248.639.248 1.426 0 .788-.11 1.429-.248 1.429-.137 0-.248-.641-.248-1.43 0-.786.11-1.425.248-1.425m0-5.71c.137 0 .248.639.248 1.427s-.11 1.428-.248 1.428c-.137 0-.248-.64-.248-1.428 0-.788.11-1.427.248-1.427m0-5.71c.137 0 .248.64.248 1.426 0 .79-.11 1.43-.248 1.43-.137 0-.248-.64-.248-1.429 0-.788.11-1.427.248-1.427m0-5.71c.137 0 .248.64.248 1.428 0 .788-.11 1.427-.248 1.427-.137 0-.248-.639-.248-1.427 0-.789.11-1.428.248-1.428m0-5.71c.137 0 .248.64.248 1.428 0 .788-.11 1.427-.248 1.427-.137 0-.248-.639-.248-1.426 0-.789.11-1.428.248-1.428m0-5.71c.137 0 .248.639.248 1.427 0 .789-.11 1.428-.248 1.428-.137 0-.248-.64-.248-1.428 0-.788.11-1.427.248-1.427m0-5.71c.137 0 .248.639.248 1.427 0 .789-.11 1.428-.248 1.428-.137 0-.248-.64-.248-1.428 0-.788.11-1.427.248-1.427m0-5.71c.137 0 .248.64.248 1.427 0 .79-.11 1.428-.248 1.428-.137 0-.248-.638-.248-1.428 0-.787.11-1.427.248-1.427m5-.708c0 .137-.638.248-1.426.248-.788 0-1.427-.111-1.427-.248s.639-.248 1.427-.248 1.426.11 1.426.248m5.71 0c0 .137-.639.248-1.427.248-.789 0-1.428-.111-1.428-.248s.64-.248 1.428-.248c.788 0 1.429.11 1.429.248m5.708 0c0 .137-.64.248-1.427.248-.79 0-1.428-.111-1.428-.248s.639-.248 1.428-.248c.787 0 1.427.11 1.427.248m5.71 0c0 .137-.639.248-1.427.248-.789 0-1.429-.111-1.429-.248s.64-.248 1.429-.248c.788 0 1.426.11 1.426.248m5.71 0c0 .137-.639.248-1.427.248s-1.427-.111-1.427-.248.639-.248 1.427-.248 1.428.11 1.428.248m5.709 0c0 .137-.64.248-1.428.248-.788 0-1.426-.111-1.426-.248s.638-.248 1.426-.248c.789 0 1.428.11 1.428.248m5.71 0c0 .137-.64.248-1.426.248-.79 0-1.43-.111-1.43-.248s.64-.248 1.43-.248c.787 0 1.425.11 1.425.248m5.71 0c0 .137-.638.248-1.427.248-.788 0-1.427-.111-1.427-.248s.639-.248 1.427-.248c.789 0 1.428.11 1.428.248m5.709 0c0 .137-.64.248-1.428.248-.788 0-1.426-.111-1.426-.248s.638-.248 1.426-.248c.788 0 1.428.11 1.428.248m5.709 0c0 .137-.639.248-1.426.248-.79 0-1.428-.111-1.428-.248s.639-.248 1.427-.248 1.427.11 1.427.248m5.71 0c0 .137-.64.248-1.427.248-.79 0-1.427-.111-1.427-.248s.638-.248 1.427-.248c.788 0 1.428.11 1.428.248m5.709 0c0 .137-.64.248-1.428.248-.788 0-1.427-.111-1.427-.248s.639-.248 1.427-.248c.789 0 1.428.11 1.428.248m5.708 0c0 .137-.637.248-1.426.248-.788 0-1.427-.111-1.427-.248s.639-.248 1.427-.248c.789 0 1.426.11 1.426.248m5.712 0c0 .137-.64.248-1.428.248-.789 0-1.426-.111-1.426-.248s.637-.248 1.426-.248c.788 0 1.428.11 1.428.248m5.71 0c0 .137-.64.248-1.428.248-.789 0-1.428-.111-1.428-.248s.64-.248 1.428-.248c.788 0 1.427.11 1.427.248m5.709 0c0 .137-.638.248-1.426.248-.789 0-1.43-.111-1.43-.248s.641-.248 1.43-.248c.788 0 1.426.11 1.426.248m5.71 0c0 .137-.64.248-1.428.248-.788 0-1.426-.111-1.426-.248s.638-.248 1.426-.248c.789 0 1.428.11 1.428.248m5.346.364c-.064 0-.12-.136-.165-.364l.165.164c-.258.052-.64.084-1.064.084-.788 0-1.427-.111-1.427-.248s.639-.248 1.427-.248c.425 0 .806.032 1.064.084l.188.037-.024.127c-.043.228-.102.364-.164.364m0 5.71c-.138 0-.248-.64-.248-1.428 0-.788.11-1.427.248-1.427.136 0 .248.64.248 1.427 0 .788-.112 1.428-.248 1.428m0 5.71c-.138 0-.248-.64-.248-1.428 0-.788.11-1.427.248-1.427.136 0 .248.639.248 1.427 0 .789-.112 1.428-.248 1.428m0 5.709c-.138 0-.248-.64-.248-1.427 0-.788.11-1.428.248-1.428.136 0 .248.64.248 1.428 0 .788-.112 1.426-.248 1.426m0 5.711c-.138 0-.248-.64-.248-1.428 0-.788.11-1.427.248-1.427.136 0 .248.64.248 1.427 0 .789-.112 1.428-.248 1.428m0 5.71c-.138 0-.248-.64-.248-1.427 0-.789.11-1.428.248-1.428.136 0 .248.64.248 1.428 0 .786-.112 1.427-.248 1.427m0 5.709c-.138 0-.248-.64-.248-1.428 0-.788.11-1.426.248-1.426.136 0 .248.638.248 1.426 0 .789-.112 1.428-.248 1.428m0 5.71c-.138 0-.248-.64-.248-1.428 0-.788.11-1.427.248-1.427.136 0 .248.639.248 1.427s-.112 1.428-.248 1.428m0 5.71c-.138 0-.248-.64-.248-1.428 0-.789.11-1.427.248-1.427.136 0 .248.638.248 1.427 0 .788-.112 1.428-.248 1.428m0 5.709c-.138 0-.248-.64-.248-1.428 0-.788.11-1.427.248-1.427.136 0 .248.64.248 1.427 0 .789-.112 1.428-.248 1.428m0 5.71c-.138 0-.248-.639-.248-1.427 0-.789.11-1.428.248-1.428.136 0 .248.64.248 1.428 0 .788-.112 1.427-.248 1.427m0 5.71c-.138 0-.248-.64-.248-1.428 0-.789.11-1.428.248-1.428.136 0 .248.64.248 1.428 0 .788-.112 1.427-.248 1.427m0 5.71c-.138 0-.248-.639-.248-1.427 0-.789.11-1.428.248-1.428.136 0 .248.64.248 1.428 0 .788-.112 1.427-.248 1.427m0 5.71c-.138 0-.248-.64-.248-1.427 0-.788.11-1.428.248-1.428.136 0 .248.64.248 1.428 0 .787-.112 1.426-.248 1.426m0 5.71c-.138 0-.248-.64-.248-1.427 0-.789.11-1.428.248-1.428.136 0 .248.64.248 1.428 0 .788-.112 1.427-.248 1.427m0 5.71c-.138 0-.248-.64-.248-1.427 0-.789.11-1.428.248-1.428.136 0 .248.64.248 1.428 0 .787-.112 1.426-.248 1.426m0 5.71c-.138 0-.248-.639-.248-1.427 0-.789.11-1.426.248-1.426.136 0 .248.637.248 1.426 0 .788-.112 1.427-.248 1.427m0 5.71c-.138 0-.248-.639-.248-1.427 0-.789.11-1.428.248-1.428.136 0 .248.64.248 1.428 0 .788-.112 1.427-.248 1.427"
      fill="#dadbd8" />
   <path
      d="M524.091 195.793h-7.531v-7.532h7.531v7.532m-109.232 1.031h7.532v-7.533h-7.532zM524.091 94.39h-7.531v-7.532h7.531v7.532m-101.7.734h-7.532V87.59h7.532v7.531m-271.092 66.502c0-.137.956-.248 2.136-.248.23.004.454.01.718.014l-.233.234c.035-.829.125-1.418.234-1.418.107 0 .198.59.233 1.419l.009.227-.243.005-.718.015c-1.18 0-2.136-.112-2.136-.248m-5.71 0c0-.138.639-.248 1.427-.248.789 0 1.428.11 1.428.248 0 .136-.64.248-1.428.248-.788 0-1.427-.112-1.427-.248m-5.71 0c0-.138.639-.248 1.427-.248s1.43.11 1.43.248c0 .136-.642.248-1.43.248-.788 0-1.427-.112-1.427-.248m-5.709 0c0-.138.64-.248 1.428-.248.788 0 1.427.11 1.427.248 0 .136-.64.248-1.427.248-.789 0-1.428-.112-1.428-.248m-5.71 0c0-.138.639-.248 1.427-.248.789 0 1.428.11 1.428.248 0 .136-.64.248-1.428.248-.788 0-1.427-.112-1.427-.248m-5.71 0c0-.138.64-.248 1.427-.248.789 0 1.428.11 1.428.248 0 .136-.64.248-1.428.248-.787 0-1.426-.112-1.426-.248m-5.71 0c0-.138.639-.248 1.427-.248.789 0 1.428.11 1.428.248 0 .136-.64.248-1.428.248-.788 0-1.427-.112-1.427-.248m-5.71 0c0-.138.64-.248 1.427-.248.788 0 1.428.11 1.428.248 0 .136-.64.248-1.428.248-.788 0-1.426-.112-1.426-.248m-5.71 0c0-.138.638-.248 1.427-.248.788 0 1.427.11 1.427.248 0 .136-.639.248-1.427.248-.789 0-1.428-.112-1.428-.248m-5.71 0c0-.138.64-.248 1.428-.248.788 0 1.427.11 1.427.248 0 .136-.639.248-1.427.248-.787 0-1.428-.112-1.428-.248m-5.71 0c0-.138.64-.248 1.428-.248.789 0 1.428.11 1.428.248 0 .136-.64.248-1.428.248-.788 0-1.427-.112-1.427-.248m-5.71 0c0-.138.64-.248 1.428-.248.788 0 1.428.11 1.428.248 0 .136-.64.248-1.428.248-.788 0-1.427-.112-1.427-.248m-5.71 0c0-.138.64-.248 1.427-.248.79 0 1.428.11 1.428.248 0 .136-.639.248-1.428.248-.788 0-1.427-.112-1.427-.248m-5.71 0c0-.138.64-.248 1.427-.248.79 0 1.428.11 1.428.248 0 .136-.639.248-1.428.248-.788 0-1.426-.112-1.426-.248m-5.71 0c0-.138.638-.248 1.427-.248.788 0 1.427.11 1.427.248 0 .136-.639.248-1.427.248-.789 0-1.428-.112-1.428-.248m-5.71 0c0-.138.64-.248 1.428-.248.789 0 1.428.11 1.428.248 0 .136-.64.248-1.428.248-.788 0-1.427-.112-1.427-.248m-5.71 0c0-.138.639-.248 1.428-.248.788 0 1.427.11 1.427.248 0 .136-.64.248-1.427.248-.79 0-1.428-.112-1.428-.248m-5.71 0c0-.138.64-.248 1.428-.248.788 0 1.428.11 1.428.248 0 .136-.64.248-1.428.248-.788 0-1.427-.112-1.427-.248m-1.783-3.928c.138 0 .249.64.249 1.427 0 .789-.111 1.427-.249 1.427-.136 0-.247-.638-.247-1.427 0-.788.11-1.427.247-1.427m0-5.71c.138 0 .249.639.249 1.427 0 .789-.111 1.428-.249 1.428-.136 0-.247-.64-.247-1.428 0-.788.11-1.427.247-1.427m0-5.71c.138 0 .249.64.249 1.428 0 .788-.111 1.426-.249 1.426-.136 0-.247-.638-.247-1.426 0-.788.11-1.427.247-1.427m0-5.71c.138 0 .249.639.249 1.427s-.111 1.428-.249 1.428c-.136 0-.247-.64-.247-1.428 0-.788.11-1.427.247-1.427m0-5.709c.138 0 .249.638.249 1.427 0 .787-.111 1.427-.249 1.427-.136 0-.247-.64-.247-1.426 0-.79.11-1.429.247-1.429m0-5.71c.138 0 .249.64.249 1.428 0 .787-.111 1.427-.249 1.427-.136 0-.247-.64-.247-1.427 0-.789.11-1.428.247-1.428m0-5.71c.138 0 .249.64.249 1.428 0 .788-.111 1.427-.249 1.427-.136 0-.247-.639-.247-1.427 0-.789.11-1.428.247-1.428m0-5.708c.138 0 .249.639.249 1.427 0 .787-.111 1.428-.249 1.428-.136 0-.247-.641-.247-1.428 0-.788.11-1.427.247-1.427m0-5.71c.138 0 .249.639.249 1.427s-.111 1.428-.249 1.428c-.136 0-.247-.64-.247-1.428 0-.788.11-1.427.247-1.427m0-5.711c.138 0 .249.64.249 1.428 0 .788-.111 1.428-.249 1.428-.136 0-.247-.64-.247-1.428 0-.788.11-1.428.247-1.428m0-5.709c.138 0 .249.64.249 1.428 0 .788-.111 1.426-.249 1.426-.136 0-.247-.638-.247-1.426 0-.789.11-1.428.247-1.428m0-5.71c.138 0 .249.64.249 1.428 0 .788-.111 1.427-.249 1.427-.136 0-.247-.639-.247-1.427s.11-1.428.247-1.428m0-5.71c.138 0 .249.64.249 1.428 0 .789-.111 1.427-.249 1.427-.136 0-.247-.638-.247-1.426 0-.79.11-1.429.247-1.429m0-5.71c.138 0 .249.64.249 1.428 0 .789-.111 1.428-.249 1.428-.136 0-.247-.64-.247-1.428 0-.788.11-1.427.247-1.427m0-5.71c.138 0 .249.64.249 1.427 0 .79-.111 1.428-.249 1.428-.136 0-.247-.638-.247-1.428 0-.787.11-1.427.247-1.427m0-5.709c.138 0 .249.64.249 1.428 0 .788-.111 1.427-.249 1.427-.136 0-.247-.639-.247-1.427 0-.789.11-1.428.247-1.428m0-5.71c.138 0 .249.64.249 1.428 0 .788-.111 1.427-.249 1.427-.136 0-.247-.639-.247-1.427 0-.789.11-1.428.247-1.428m0-5.71c.138 0 .249.64.249 1.427 0 .789-.111 1.429-.249 1.429-.136 0-.247-.64-.247-1.428 0-.789.11-1.427.247-1.427m5.002-.709c0 .136-.64.247-1.428.247-.788 0-1.427-.11-1.427-.247s.639-.248 1.427-.248c.789 0 1.428.11 1.428.248m5.71 0c0 .136-.64.247-1.428.247-.789 0-1.427-.11-1.427-.247s.638-.248 1.427-.248c.788 0 1.427.11 1.427.248m5.71 0c0 .136-.639.247-1.427.247-.789 0-1.428-.11-1.428-.247s.64-.248 1.428-.248c.788 0 1.427.11 1.427.248m5.71 0c0 .136-.64.247-1.428.247-.788 0-1.427-.11-1.427-.247s.639-.248 1.427-.248 1.428.11 1.428.248m5.709 0c0 .136-.64.247-1.427.247-.788 0-1.427-.11-1.427-.247s.639-.248 1.427-.248 1.427.11 1.427.248m5.71 0c0 .136-.64.247-1.428.247-.788 0-1.427-.11-1.427-.247s.639-.248 1.427-.248c.789 0 1.428.11 1.428.248m5.71 0c0 .136-.64.247-1.428.247-.788 0-1.427-.11-1.427-.247s.639-.248 1.427-.248 1.427.11 1.427.248m5.71 0c0 .136-.639.247-1.427.247-.789 0-1.427-.11-1.427-.247s.638-.248 1.427-.248c.788 0 1.427.11 1.427.248m5.71 0c0 .136-.64.247-1.428.247-.788 0-1.427-.11-1.427-.247s.639-.248 1.427-.248 1.428.11 1.428.248m5.71 0c0 .136-.64.247-1.428.247-.788 0-1.427-.11-1.427-.247s.639-.248 1.427-.248c.789 0 1.428.11 1.428.248m5.709 0c0 .136-.64.247-1.428.247-.788 0-1.427-.11-1.427-.247s.639-.248 1.427-.248c.789 0 1.428.11 1.428.248m5.71 0c0 .136-.64.247-1.428.247-.788 0-1.427-.11-1.427-.247s.639-.248 1.427-.248c.789 0 1.428.11 1.428.248m5.71 0c0 .136-.64.247-1.427.247-.789 0-1.428-.11-1.428-.247s.64-.248 1.427-.248c.789 0 1.427.11 1.427.248m5.71 0c0 .136-.639.247-1.427.247-.789 0-1.428-.11-1.428-.247s.64-.248 1.428-.248c.788 0 1.427.11 1.427.248m5.709 0c0 .136-.638.247-1.426.247-.789 0-1.428-.11-1.428-.247s.64-.248 1.428-.248c.788 0 1.426.11 1.426.248m5.71 0c0 .136-.64.247-1.428.247-.788 0-1.426-.11-1.426-.247s.638-.248 1.426-.248c.789 0 1.428.11 1.428.248m5.71 0c0 .136-.64.247-1.428.247-.788 0-1.427-.11-1.427-.247s.639-.248 1.427-.248c.789 0 1.428.11 1.428.248m5.346.364c-.064 0-.121-.136-.165-.364l.165.165c-.258.05-.64.082-1.064.082-.789 0-1.426-.11-1.426-.247s.637-.248 1.426-.248c.425 0 .806.032 1.063.083l.189.038-.024.127c-.043.228-.102.365-.164.365m0 5.71c-.138 0-.248-.64-.248-1.428 0-.79.11-1.429.248-1.429.136 0 .247.64.247 1.43 0 .786-.11 1.427-.247 1.427m0 5.708c-.138 0-.248-.639-.248-1.427 0-.789.11-1.428.248-1.428.136 0 .247.64.247 1.428 0 .788-.11 1.427-.247 1.427m0 5.71c-.138 0-.248-.64-.248-1.427 0-.79.11-1.428.248-1.428.136 0 .247.639.247 1.428 0 .787-.11 1.427-.247 1.427m0 5.71c-.138 0-.248-.64-.248-1.428 0-.788.11-1.427.248-1.427.136 0 .247.639.247 1.427 0 .789-.11 1.428-.247 1.428m0 5.71c-.138 0-.248-.64-.248-1.428 0-.788.11-1.427.248-1.427.136 0 .247.639.247 1.427 0 .789-.11 1.428-.247 1.428m0 5.709c-.138 0-.248-.64-.248-1.428 0-.788.11-1.426.248-1.426.136 0 .247.638.247 1.426 0 .789-.11 1.428-.247 1.428m0 5.71c-.138 0-.248-.64-.248-1.428 0-.788.11-1.427.248-1.427.136 0 .247.64.247 1.427 0 .789-.11 1.428-.247 1.428m0 5.71c-.138 0-.248-.639-.248-1.429 0-.787.11-1.426.248-1.426.136 0 .247.64.247 1.426 0 .79-.11 1.428-.247 1.428m0 5.71c-.138 0-.248-.64-.248-1.428 0-.788.11-1.427.248-1.427.136 0 .247.639.247 1.427 0 .789-.11 1.428-.247 1.428m0 5.709c-.138 0-.248-.638-.248-1.426 0-.79.11-1.428.248-1.428.136 0 .247.639.247 1.427 0 .789-.11 1.427-.247 1.427m0 5.71c-.138 0-.248-.64-.248-1.428 0-.788.11-1.427.248-1.427.136 0 .247.64.247 1.427 0 .789-.11 1.428-.247 1.428m0 5.71c-.138 0-.248-.64-.248-1.427 0-.789.11-1.428.248-1.428.136 0 .247.64.247 1.428 0 .788-.11 1.427-.247 1.427m0 5.71c-.138 0-.248-.639-.248-1.427 0-.789.11-1.428.248-1.428.136 0 .247.64.247 1.428 0 .788-.11 1.427-.247 1.427m0 5.71c-.138 0-.248-.64-.248-1.428 0-.789.11-1.428.248-1.428.136 0 .247.64.247 1.428 0 .788-.11 1.427-.247 1.427m0 5.71c-.138 0-.248-.639-.248-1.427s.11-1.428.248-1.428c.136 0 .247.64.247 1.428 0 .788-.11 1.427-.247 1.427m0 5.71c-.138 0-.248-.64-.248-1.427 0-.79.11-1.428.248-1.428.136 0 .247.638.247 1.428 0 .787-.11 1.426-.247 1.426m0 5.71c-.138 0-.248-.639-.248-1.427 0-.789.11-1.428.248-1.428.136 0 .247.64.247 1.428 0 .788-.11 1.427-.247 1.427"
      fill="#dadbd8" />
   <path
      d="M157.919 164.36h-7.53v-7.534h7.53v7.534m-101.7 1.03h-7.533v-7.533h7.533v7.533m101.7-102.434h-7.53v-7.532h7.53v7.532m-101.7.733h-7.533v-7.531h7.533v7.531m578.633 210.15c0-.107.744-.193 1.66-.193l.56.012-.18.181c.025-.644.095-1.103.18-1.103.083 0 .154.459.181 1.103l.007.177-.19.004-.558.011c-.917 0-1.66-.086-1.66-.192m-4.44 0c0-.106.497-.193 1.11-.193.612 0 1.11.087 1.11.193 0 .107-.498.192-1.11.192-.613 0-1.11-.085-1.11-.192m-4.44 0c0-.106.497-.193 1.11-.193.613 0 1.11.087 1.11.193 0 .107-.497.192-1.11.192-.613 0-1.11-.085-1.11-.192m-4.44 0c0-.106.497-.193 1.11-.193.613 0 1.11.087 1.11.193 0 .107-.497.192-1.11.192-.613 0-1.11-.085-1.11-.192m-4.44 0c0-.106.497-.193 1.11-.193.613 0 1.11.087 1.11.193 0 .107-.497.192-1.11.192-.613 0-1.11-.085-1.11-.192m-4.44 0c0-.106.497-.193 1.111-.193.613 0 1.11.087 1.11.193 0 .107-.497.192-1.11.192-.614 0-1.11-.085-1.11-.192m-4.44 0c0-.106.497-.193 1.11-.193.613 0 1.11.087 1.11.193 0 .107-.497.192-1.11.192-.613 0-1.11-.085-1.11-.192m-4.44 0c0-.106.497-.193 1.11-.193.614 0 1.11.087 1.11.193 0 .107-.496.192-1.11.192-.612 0-1.11-.085-1.11-.192m-4.44 0c0-.106.497-.193 1.11-.193.614 0 1.111.087 1.111.193 0 .107-.497.192-1.11.192-.614 0-1.11-.085-1.11-.192m-4.44 0c0-.106.497-.193 1.11-.193.614 0 1.11.087 1.11.193 0 .107-.496.192-1.11.192-.613 0-1.11-.085-1.11-.192m-4.44 0c0-.106.496-.193 1.11-.193.614 0 1.11.087 1.11.193 0 .107-.496.192-1.11.192-.613 0-1.11-.085-1.11-.192m-4.44 0c0-.106.498-.193 1.11-.193.614 0 1.111.087 1.111.193 0 .107-.497.192-1.11.192-.613 0-1.111-.085-1.111-.192m-4.44 0c0-.106.498-.193 1.11-.193.614 0 1.111.087 1.111.193 0 .107-.497.192-1.11.192-.612 0-1.111-.085-1.111-.192m-4.44 0c0-.106.498-.193 1.111-.193s1.11.087 1.11.193c0 .107-.497.192-1.11.192-.613 0-1.11-.085-1.11-.192m-4.44 0c0-.106.497-.193 1.11-.193.613 0 1.11.087 1.11.193 0 .107-.497.192-1.11.192-.613 0-1.11-.085-1.11-.192m-4.44 0c0-.106.497-.193 1.11-.193.614 0 1.11.087 1.11.193 0 .107-.496.192-1.11.192-.612 0-1.11-.085-1.11-.192m-4.44 0c0-.106.497-.193 1.111-.193.613 0 1.11.087 1.11.193 0 .107-.497.192-1.11.192-.614 0-1.11-.085-1.11-.192m-4.44 0c0-.106.498-.193 1.11-.193.613 0 1.11.087 1.11.193 0 .107-.497.192-1.11.192-.612 0-1.11-.085-1.11-.192m-1.385-3.055c.106 0 .192.498.192 1.11 0 .614-.086 1.112-.193 1.112-.106 0-.192-.498-.192-1.111s.086-1.11.192-1.11m0-4.44c.107 0 .193.497.193 1.11 0 .614-.086 1.11-.193 1.11-.106 0-.192-.496-.192-1.11 0-.613.086-1.11.192-1.11m0-4.44c.107 0 .193.497.193 1.11 0 .614-.086 1.11-.193 1.11-.106 0-.192-.496-.192-1.11 0-.613.086-1.11.192-1.11m0-4.439c.107 0 .193.497.193 1.11 0 .613-.086 1.11-.193 1.11-.106 0-.192-.497-.192-1.11 0-.613.086-1.11.192-1.11m0-4.44c.107 0 .193.497.193 1.11 0 .613-.086 1.11-.193 1.11-.106 0-.192-.497-.192-1.11 0-.613.086-1.11.192-1.11m0-4.44c.107 0 .193.497.193 1.11 0 .613-.086 1.11-.193 1.11-.106 0-.192-.497-.192-1.11 0-.613.086-1.11.192-1.11m0-4.44c.107 0 .193.497.193 1.11 0 .613-.086 1.11-.193 1.11-.106 0-.192-.497-.192-1.11 0-.613.086-1.11.192-1.11m0-4.44c.107 0 .193.498.193 1.11 0 .614-.086 1.11-.193 1.11-.106 0-.192-.496-.192-1.11 0-.612.086-1.11.192-1.11m0-4.438c.107 0 .193.497.193 1.109 0 .613-.086 1.11-.193 1.11-.106 0-.192-.497-.192-1.11 0-.612.086-1.11.192-1.11m0-4.44c.107 0 .193.498.193 1.11 0 .614-.086 1.11-.193 1.11-.106 0-.192-.496-.192-1.11 0-.612.086-1.109.192-1.109m0-4.44c.107 0 .193.497.193 1.109 0 .614-.086 1.11-.193 1.11-.106 0-.192-.496-.192-1.11 0-.612.086-1.109.192-1.109m0-4.44c.107 0 .193.497.193 1.11 0 .613-.086 1.11-.193 1.11-.106 0-.192-.497-.192-1.11 0-.613.086-1.11.192-1.11m0-4.44c.107 0 .193.497.193 1.11 0 .614-.086 1.11-.193 1.11-.106 0-.192-.496-.192-1.11 0-.613.086-1.11.192-1.11m0-4.44c.107 0 .193.497.193 1.11 0 .614-.086 1.11-.193 1.11-.106 0-.192-.496-.192-1.11 0-.613.086-1.11.192-1.11m0-4.44c.107 0 .193.498.193 1.11 0 .614-.086 1.111-.193 1.111-.106 0-.192-.497-.192-1.11 0-.613.086-1.11.192-1.11m0-4.44c.107 0 .193.497.193 1.11 0 .613-.086 1.11-.193 1.11-.106 0-.192-.497-.192-1.11 0-.613.086-1.11.192-1.11m0-4.44c.107 0 .193.497.193 1.11 0 .613-.086 1.11-.193 1.11-.106 0-.192-.497-.192-1.11 0-.613.086-1.11.192-1.11m0-4.44c.107 0 .193.497.193 1.11 0 .613-.086 1.11-.193 1.11-.106 0-.192-.497-.192-1.11 0-.613.086-1.11.192-1.11m3.888-.55c0 .107-.496.192-1.108.192-.613 0-1.11-.085-1.11-.192s.497-.194 1.11-.194c.612 0 1.108.087 1.108.194m4.44 0c0 .107-.496.192-1.108.192-.614 0-1.11-.085-1.11-.192s.496-.194 1.11-.194c.612 0 1.108.087 1.108.194m4.44 0c0 .107-.497.192-1.109.192s-1.11-.085-1.11-.192.497-.194 1.11-.194c.612 0 1.11.087 1.11.194m4.439 0c0 .107-.497.192-1.109.192-.613 0-1.11-.085-1.11-.192s.497-.194 1.11-.194c.612 0 1.109.087 1.109.194m4.44 0c0 .107-.497.192-1.109.192-.614 0-1.11-.085-1.11-.192s.496-.194 1.11-.194c.612 0 1.109.087 1.109.194m4.44 0c0 .107-.497.192-1.11.192-.613 0-1.11-.085-1.11-.192s.497-.194 1.11-.194c.613 0 1.11.087 1.11.194m4.44 0c0 .107-.497.192-1.11.192-.614 0-1.11-.085-1.11-.192s.496-.194 1.11-.194c.613 0 1.11.087 1.11.194m4.44 0c0 .107-.497.192-1.11.192-.613 0-1.11-.085-1.11-.192s.496-.194 1.11-.194c.613 0 1.11.087 1.11.194m4.439 0c0 .107-.497.192-1.11.192-.613 0-1.11-.085-1.11-.192s.497-.194 1.11-.194c.613 0 1.11.087 1.11.194m4.44 0c0 .107-.497.192-1.11.192-.613 0-1.11-.085-1.11-.192s.497-.194 1.11-.194c.613 0 1.11.087 1.11.194m4.44 0c0 .107-.497.192-1.11.192-.613 0-1.111-.085-1.111-.192s.498-.194 1.11-.194c.614 0 1.11.087 1.11.194m4.44 0c0 .107-.496.192-1.11.192-.612 0-1.11-.085-1.11-.192s.498-.194 1.11-.194c.614 0 1.11.087 1.11.194m4.44 0c0 .107-.496.192-1.11.192-.614 0-1.11-.085-1.11-.192s.496-.194 1.11-.194c.614 0 1.11.087 1.11.194m4.44 0c0 .107-.496.192-1.11.192-.614 0-1.11-.085-1.11-.192s.496-.194 1.11-.194c.614 0 1.11.087 1.11.194m4.44 0c0 .107-.497.192-1.11.192-.614 0-1.11-.085-1.11-.192s.496-.194 1.11-.194c.613 0 1.11.087 1.11.194m4.44 0c0 .107-.498.192-1.111.192s-1.11-.085-1.11-.192.497-.194 1.11-.194c.613 0 1.11.087 1.11.194m4.44 0c0 .107-.497.192-1.11.192-.613 0-1.11-.085-1.11-.192s.497-.194 1.11-.194c.613 0 1.11.087 1.11.194m4.156.283c-.048 0-.093-.106-.127-.283l.127.127a4.55 4.55 0 01-.826.065c-.614 0-1.11-.085-1.11-.192s.496-.193 1.11-.193c.33 0 .626.025.826.065l.147.03-.019.098c-.034.177-.078.283-.128.283m0 4.44c-.106 0-.192-.497-.192-1.11 0-.614.086-1.11.192-1.11.107 0 .194.496.194 1.11 0 .613-.087 1.11-.194 1.11m0 4.44c-.106 0-.192-.497-.192-1.11 0-.614.086-1.11.192-1.11.107 0 .194.496.194 1.11 0 .613-.087 1.11-.194 1.11m0 4.44c-.106 0-.192-.498-.192-1.11 0-.614.086-1.111.192-1.111.107 0 .194.497.194 1.11 0 .613-.087 1.11-.194 1.11m0 4.44c-.106 0-.192-.497-.192-1.11 0-.613.086-1.11.192-1.11.107 0 .194.497.194 1.11 0 .613-.087 1.11-.194 1.11m0 4.44c-.106 0-.192-.497-.192-1.11 0-.613.086-1.11.192-1.11.107 0 .194.497.194 1.11 0 .613-.087 1.11-.194 1.11m0 4.44c-.106 0-.192-.498-.192-1.111 0-.612.086-1.11.192-1.11.107 0 .194.498.194 1.11 0 .613-.087 1.11-.194 1.11m0 4.44c-.106 0-.192-.497-.192-1.11 0-.613.086-1.11.192-1.11.107 0 .194.497.194 1.11 0 .613-.087 1.11-.194 1.11m0 4.44c-.106 0-.192-.498-.192-1.11 0-.613.086-1.11.192-1.11.107 0 .194.497.194 1.11 0 .612-.087 1.11-.194 1.11m0 4.439c-.106 0-.192-.497-.192-1.11 0-.612.086-1.109.192-1.109.107 0 .194.497.194 1.11 0 .612-.087 1.109-.194 1.109m0 4.44c-.106 0-.192-.497-.192-1.11 0-.613.086-1.11.192-1.11.107 0 .194.497.194 1.11 0 .613-.087 1.11-.194 1.11m0 4.44c-.106 0-.192-.497-.192-1.11 0-.613.086-1.11.192-1.11.107 0 .194.497.194 1.11 0 .613-.087 1.11-.194 1.11m0 4.44c-.106 0-.192-.497-.192-1.11 0-.614.086-1.11.192-1.11.107 0 .194.496.194 1.11 0 .613-.087 1.11-.194 1.11m0 4.44c-.106 0-.192-.497-.192-1.11 0-.614.086-1.11.192-1.11.107 0 .194.496.194 1.11 0 .613-.087 1.11-.194 1.11m0 4.439c-.106 0-.192-.497-.192-1.11 0-.613.086-1.11.192-1.11.107 0 .194.497.194 1.11 0 .613-.087 1.11-.194 1.11m0 4.44c-.106 0-.192-.497-.192-1.11 0-.613.086-1.11.192-1.11.107 0 .194.497.194 1.11 0 .613-.087 1.11-.194 1.11m0 4.44c-.106 0-.192-.497-.192-1.111 0-.612.086-1.109.192-1.109.107 0 .194.497.194 1.109 0 .614-.087 1.11-.194 1.11m0 4.44c-.106 0-.192-.496-.192-1.11 0-.612.086-1.11.192-1.11.107 0 .194.498.194 1.11 0 .614-.087 1.111-.194 1.111"
      fill="#dadbd8" />
   <path
      d="M640 275.966h-5.856v-5.856H640v5.856m-79.08.802h-5.857v-5.858h5.856v5.858M640 197.118h-5.856v-5.859H640v5.858m-79.08.569h-5.857v-5.856h5.856v5.856"
      fill="#dadbd8" />
   <path
      d="M640 419.926c0 .141-152.63.258-340.867.258-188.302 0-340.9-.117-340.9-.258 0-.144 152.598-.26 340.9-.26 188.237 0 340.867.116 340.867.26m-31.367-.267h-92.178c-6.35 0-11.498-5.147-11.498-11.496V265.875c0-6.349 5.148-11.496 11.498-11.496h92.179c6.349 0 11.497 5.147 11.497 11.496v142.287c0 6.35-5.148 11.498-11.498 11.498"
      fill="#17282f" />
   <path d="M508.59 403.715h107.734V265.686H508.59z" fill="#fff" />
   <path
      d="M566.964 411.354a4.42 4.42 0 11-8.838 0 4.42 4.42 0 018.838 0m12.023-150.39h-32.886a.902.902 0 01-.901-.901v-.024c0-.498.404-.901.901-.901h32.886a.9.9 0 01.901.9v.025a.9.9 0 01-.9.9m28.145 95.371h-43.146v-28.142h43.147v28.142"
      fill="#33535f" />
   <path
      d="M570.245 333.773a1.729 1.729 0 11-3.457 0 1.728 1.728 0 013.456 0m33.126-.112l.045.044 1.252 1.225-.04-3.678-2.492.027.039 3.606zm1.424 1.567l-1.422-1.39-1.318 1.348-.044-4.03 2.74-.029.045 4.101m-10.869-2.372c0 .144-4.74.259-10.582.259-5.846 0-10.586-.115-10.586-.259 0-.143 4.74-.259 10.586-.259 5.843 0 10.582.116 10.582.26m-13.007 2.371c0 .142-1.827.26-4.08.26-2.254 0-4.08-.117-4.08-.26 0-.143 1.826-.26 4.08-.26 2.253 0 4.08.117 4.08.26"
      fill="#fafaf9" />
   <path
      d="M548.053 273.925a6.958 6.958 0 110 13.917 6.958 6.958 0 010-13.917m-29.5-3.83c-1.698.327-3.43.297-5.163.266-1.568-.027-3.136-.054-4.68.182l-.12.024v22.552c10.116.996 20.129 3.543 30.182 5.304 13.431 2.352 27.843 3.182 40.156-2.682 9.912-4.724 17.418-13.291 26.588-19.328a56.524 56.524 0 0110.808-5.53v-5.197H524.34c-.803 2.228-3.312 3.933-5.787 4.409"
      fill="#f03d5f" />
   <path
      d="M566.53 304.689a.599.599 0 11.003-1.198.599.599 0 01-.003 1.198m-3.793 0a.598.598 0 11.002-1.196.598.598 0 01-.002 1.196m-3.792 0a.599.599 0 010-1.197.598.598 0 010 1.197m19.983-8.948c-12.312 5.864-26.724 5.034-40.156 2.682-10.053-1.76-20.066-4.308-30.182-5.304v15.79h107.734v-38.025a56.479 56.479 0 00-10.808 5.53c-9.172 6.036-16.677 14.603-26.59 19.327"
      fill="#f03d5f" />
   <path
      d="M616.324 308.909H508.59v-15.79c10.117.996 20.129 3.543 30.182 5.304 5.931 1.037 12.051 1.78 18.099 1.78 7.65 0 15.181-1.187 22.057-4.462 9.912-4.724 17.418-13.291 26.588-19.328a56.524 56.524 0 0110.808-5.53v38.026m-50.391-4.82a.599.599 0 101.196 0 .599.599 0 00-1.196 0m-3.793 0a.598.598 0 101.195 0 .598.598 0 00-1.195 0m-3.793 0a.598.598 0 101.196 0 .598.598 0 10-1.196 0"
      fill="#ba2c42" />
   <path
      d="M558.945 303.492a.598.598 0 100 1.196.598.598 0 000-1.196m3.792 0a.598.598 0 10.002 1.197.598.598 0 00-.002-1.197m3.793 0a.599.599 0 100 1.198.599.599 0 000-1.198"
      fill="#17282f" />
   <path d="M548.053 287.842a6.958 6.958 0 100-13.917 6.958 6.958 0 100 13.917" fill="#f03d5f" />
   <path d="M548.053 287.842a6.96 6.96 0 110-13.918 6.96 6.96 0 010 13.918" fill="#ba2c42" />
   <path
      d="M518.553 270.095c2.474-.476 4.983-2.18 5.786-4.409H508.59v4.88l.12-.023c1.544-.236 3.112-.21 4.68-.182 1.733.031 3.465.06 5.163-.266"
      fill="#f03d5f" />
   <path
      d="M604.334 317.722c0 .143-18.75.259-41.874.259-23.132 0-41.878-.116-41.878-.259 0-.143 18.746-.26 41.878-.26 23.124 0 41.874.117 41.874.26m-20.366 2.885c0 .145-10.046.26-22.434.26-12.393 0-22.436-.115-22.436-.26 0-.143 10.043-.258 22.436-.258 12.388 0 22.434.115 22.434.258"
      fill="#17282f" />
   <path d="M558.026 356.334h-43.145v-28.142h43.146v28.142" fill="#f03d5f" />
   <path
      d="M521.139 333.773a1.73 1.73 0 11-3.46 0 1.73 1.73 0 013.459 0m33.125-.112l.045.044 1.251 1.225-.04-3.678-2.49.027.038 3.606zm1.423 1.567l-1.42-1.39-1.32 1.348-.043-4.03 2.74-.029.043 4.101m-10.867-2.372c0 .144-4.739.259-10.583.259-5.846 0-10.584-.115-10.584-.259 0-.143 4.738-.259 10.584-.259 5.844 0 10.583.116 10.583.26m-13.008 2.371c0 .142-1.826.26-4.08.26-2.252 0-4.08-.117-4.08-.26 0-.143 1.828-.26 4.08-.26 2.254 0 4.08.117 4.08.26"
      fill="#fafaf9" />
   <path
      d="M558.026 360.157c0 .142-9.659.258-21.571.258-11.917 0-21.574-.116-21.574-.258 0-.144 9.657-.26 21.574-.26 11.912 0 21.571.116 21.571.26m0 2.566c0 .142-9.659.26-21.571.26-11.917 0-21.574-.118-21.574-.26 0-.143 9.657-.26 21.574-.26 11.912 0 21.571.117 21.571.26m-20.661 2.567c0 .141-5.034.26-11.243.26-6.21 0-11.241-.118-11.241-.26 0-.144 5.032-.26 11.241-.26s11.243.116 11.243.26"
      fill="#17282f" />
   <path d="M558.026 398.386h-43.145v-28.141h43.146v28.14" fill="#f03d5f" />
   <path
      d="M521.139 375.826a1.729 1.729 0 11-3.458-.001 1.728 1.728 0 013.457 0m33.125-.111l.045.043 1.251 1.225-.04-3.677-2.49.027.038 3.606zm1.423 1.566l-1.42-1.39-1.32 1.349-.043-4.03 2.74-.03.043 4.101m-10.867-2.371c0 .142-4.739.259-10.583.259-5.846 0-10.584-.117-10.584-.26 0-.143 4.738-.259 10.584-.259 5.844 0 10.583.116 10.583.26m-13.008 2.371c0 .143-1.826.26-4.08.26-2.252 0-4.08-.117-4.08-.26 0-.143 1.828-.259 4.08-.259 2.254 0 4.08.116 4.08.259"
      fill="#fafaf9" />
   <path
      d="M558.026 402.209c0 .141-9.659.259-21.571.259-11.917 0-21.574-.117-21.574-.26 0-.143 9.657-.258 21.574-.258 11.912 0 21.571.115 21.571.259"
      fill="#17282f" />
   <path d="M608.293 398.386h-43.146v-28.141h43.146v28.14" fill="#33535f" />
   <path
      d="M571.405 375.826a1.728 1.728 0 11-3.457-.001 1.728 1.728 0 013.457 0m33.125-.111l.044.043 1.252 1.225-.04-3.677-2.492.027.039 3.606zm1.422 1.566l-1.42-1.39-1.32 1.349-.044-4.03 2.74-.03.045 4.101m-10.868-2.371c0 .142-4.74.259-10.583.259-5.846 0-10.583-.117-10.583-.26 0-.143 4.737-.259 10.583-.259 5.843 0 10.583.116 10.583.26m-13.007 2.371c0 .143-1.828.26-4.08.26-2.253 0-4.08-.117-4.08-.26 0-.143 1.827-.259 4.08-.259 2.252 0 4.08.116 4.08.259"
      fill="#fafaf9" />
   <path
      d="M608.293 402.209c0 .141-9.66.259-21.573.259-11.916 0-21.574-.117-21.574-.26 0-.143 9.658-.258 21.574-.258 11.913 0 21.573.115 21.573.259m-.57-42.052c0 .142-9.66.258-21.572.258-11.917 0-21.574-.116-21.574-.258 0-.144 9.657-.26 21.574-.26 11.913 0 21.572.116 21.572.26m0 2.566c0 .142-9.66.26-21.572.26-11.917 0-21.574-.118-21.574-.26 0-.143 9.657-.26 21.574-.26 11.913 0 21.572.117 21.572.26m-20.663 2.567c0 .141-5.033.26-11.24.26-6.21 0-11.243-.118-11.243-.26 0-.144 5.033-.26 11.242-.26 6.208 0 11.241.116 11.241.26"
      fill="#17282f" />
   <path
      d="M508.59 270.567v-4.88h15.749c-.803 2.227-3.312 3.932-5.787 4.408l-.043.008-.048.009-.085.016c-1.144.203-2.304.25-3.468.25h-.006a81.289 81.289 0 01-1.512-.017h-.116a78.954 78.954 0 00-1.394-.016h-.011c-1.048 0-2.092.039-3.126.194l-.033.005-.12.024"
      fill="#f46789" />
   <path
      d="M484.753 140.944h-315.74c-5.443 0-9.857 4.412-9.857 9.855v223.016c0 5.444 4.413 9.857 9.857 9.857h121.181s7.708 23.837-16.188 36.17h113.31s-26.98-9.25-20.043-36.17h117.48c5.444 0 9.857-4.413 9.857-9.856V150.8a9.856 9.856 0 00-9.857-9.857"
      fill="#17282f" />
   <path
      d="M331.099 360.217c4.295 6.139-2.427 12.861-8.566 8.567a2.21 2.21 0 01-.529-.53c-4.282-6.137 2.431-12.85 8.567-8.565.202.142.387.326.528.528"
      fill="#33535f" />
   <path
      d="M483.57 344.448H169.54a3.257 3.257 0 01-3.258-3.257V157.57a3.258 3.258 0 013.258-3.258h314.03a3.258 3.258 0 013.26 3.258v183.62a3.257 3.257 0 01-3.26 3.257"
      fill="#fafaf9" />
   <path
      d="M169.54 154.81a2.764 2.764 0 00-2.76 2.76v183.621a2.763 2.763 0 002.76 2.76h314.03a2.764 2.764 0 002.76-2.76V157.57a2.764 2.764 0 00-2.76-2.76H169.54m314.03 190.135H169.54a3.76 3.76 0 01-3.755-3.755V157.57a3.76 3.76 0 013.755-3.755h314.03a3.76 3.76 0 013.756 3.755v183.62a3.76 3.76 0 01-3.756 3.756"
      fill="#fff" />
   <path
      d="M192.572 161.656a2.56 2.56 0 11-5.121 0 2.56 2.56 0 015.12 0m-15.515 0a2.56 2.56 0 11-5.119 0 2.56 2.56 0 015.119 0m7.447 0a2.56 2.56 0 11-5.12 0 2.56 2.56 0 115.12 0"
      fill="#33535f" />
   <path
      d="M387.297 258.687c0 .142-26.61.259-59.427.259-32.828 0-59.432-.117-59.432-.26 0-.143 26.605-.259 59.432-.259 32.818 0 59.427.116 59.427.26m-28.904 4.095c0 .144-14.255.259-31.837.259-17.587 0-31.84-.115-31.84-.258 0-.144 14.253-.26 31.84-.26 17.582 0 31.838.116 31.838.26"
      fill="#17282f" />
   <path d="M197.925 329.874h75.866v-49.48h-75.866z" fill="#f03d5f" />
   <path d="M365.8 329.874h-75.865v-49.48h75.866v49.481" fill="#33535f" />
   <path
      d="M364.806 335.63c0 .142-16.414.259-36.656.259-20.249 0-36.66-.117-36.66-.26 0-.143 16.41-.258 36.66-.258 20.242 0 36.656.115 36.656.258"
      fill="#17282f" />
   <path
      d="M300.938 290.205a3.039 3.039 0 01-3.04 3.038 3.04 3.04 0 113.04-3.038m58.245-.195l.079.075 2.2 2.154-.07-6.465-4.382.047.068 6.34zm2.501 2.752l-2.497-2.444-2.321 2.371-.076-7.085 4.817-.051.078 7.209m-19.11-4.17c0 .143-8.331.26-18.607.26-10.28 0-18.61-.117-18.61-.26 0-.143 8.33-.259 18.61-.259 10.276 0 18.608.116 18.608.26m-22.87 4.169c0 .143-3.213.26-7.174.26-3.963 0-7.175-.117-7.175-.26 0-.142 3.212-.258 7.175-.258 3.961 0 7.174.116 7.174.258"
      fill="#fafaf9" />
   <path d="M457.81 329.874h-75.867v-49.48h75.867v49.481" fill="#f03d5f" />
   <path
      d="M456.815 335.63c0 .142-16.413.259-36.655.259-20.25 0-36.66-.117-36.66-.26 0-.143 16.41-.258 36.66-.258 20.242 0 36.655.115 36.655.258"
      fill="#17282f" />
   <path
      d="M392.948 290.205a3.039 3.039 0 01-3.04 3.038 3.04 3.04 0 113.04-3.038m58.245-.195l.079.075 2.199 2.154-.07-6.465-4.38.047.066 6.34zm2.5 2.752l-2.496-2.444-2.322 2.371-.076-7.085 4.818-.051.077 7.209m-19.109-4.17c0 .143-8.332.26-18.608.26-10.28 0-18.61-.117-18.61-.26 0-.143 8.33-.259 18.61-.259 10.276 0 18.608.116 18.608.26m-22.87 4.169c0 .143-3.212.26-7.174.26s-7.175-.117-7.175-.26c0-.142 3.213-.258 7.175-.258 3.962 0 7.173.116 7.173.258"
      fill="#fafaf9" />
   <path
      d="M484.34 305.8c0 5.812-4.712 10.521-10.523 10.521s-10.521-4.71-10.521-10.521c0-5.81 4.71-10.521 10.521-10.521 5.811 0 10.522 4.71 10.522 10.52"
      fill="#dadbd8" />
   <path
      d="M472.221 310.281c-.032-.04.534-.56 1.477-1.367a189.459 189.459 0 013.742-3.106l-.005.285-.073-.063a192.167 192.167 0 01-3.686-3.273c-.93-.852-1.49-1.399-1.456-1.438.034-.038.654.437 1.628 1.238a195.742 195.742 0 013.76 3.19l.072.065.17.145-.174.142a193.364 193.364 0 01-3.812 3.019c-.987.756-1.612 1.203-1.644 1.164"
      fill="#17282f" />
   <path
      d="M317.167 206.955c-5.99-.173-10.706-5.17-10.53-11.16.172-5.989 5.169-10.704 11.158-10.53 5.99.173 10.706 5.17 10.532 11.16-.174 5.988-5.17 10.704-11.16 10.53M185.88 165.033l-.36 12.422.36-12.42 95.752 2.941c.694 5.083-4.58 9.165-9.643 9.99-2.66.43-5.358.305-8.06.181-2.442-.113-4.886-.227-7.302.072-10.173 1.258-18.006 9.397-27.447 13.385-15.504 6.55-35.117.404-43.661-14.095l-1.87 64.554.094-3.237c11.007-18.193 34.472-26.47 55.735-26.5 21.264-.03 41.915 6.43 62.746 10.703 20.83 4.272 43.254 6.217 62.707-2.37 15.665-6.912 27.747-19.926 42.315-28.923 29.58-18.267 69.626-17.935 98.899.82l-1.703 58.772-320.793-9.265 321.149 9.468 2.232-77.03-321.15-9.469"
      fill="#f03d5f" />
   <path
      d="M474.563 217.111a3.536 3.536 0 11-4.854-5.142 3.536 3.536 0 014.854 5.142M351.642 237.84a1.262 1.262 0 11.072-2.524 1.262 1.262 0 01-.072 2.524m-8.002-.232a1.263 1.263 0 11.072-2.525 1.263 1.263 0 01-.072 2.525m-8.003-.232a1.264 1.264 0 01-1.226-1.299 1.262 1.262 0 111.226 1.3m170.508-44.822c-29.273-18.754-69.32-19.086-98.899-.819-14.568 8.997-26.65 22.011-42.315 28.924-19.453 8.586-41.877 6.64-62.707 2.369-20.83-4.272-41.482-10.733-62.745-10.704-21.263.03-44.73 8.308-55.736 26.501l-.094 3.237 320.793 9.265 1.703-58.773"
      fill="#f03d5f" />
   <path
      d="M504.442 251.329l-320.793-9.266.094-3.237c11.007-18.193 34.472-26.47 55.735-26.5h.15c21.21 0 41.815 6.44 62.596 10.703 10.243 2.1 20.869 3.639 31.34 3.639 10.824-.001 21.48-1.645 31.367-6.008 15.665-6.913 27.747-19.927 42.315-28.924 14.56-8.992 31.655-13.476 48.754-13.476 17.638 0 35.281 4.773 50.145 14.295l-1.703 58.773m-154.026-14.745a1.262 1.262 0 001.226 1.257h.037a1.262 1.262 0 001.26-1.226l.001-.033a1.263 1.263 0 00-1.226-1.265h-.037c-.68 0-1.241.541-1.261 1.226v.04m-8.003-.24a1.262 1.262 0 001.227 1.266h.037c.68 0 1.24-.54 1.26-1.225v-.04a1.263 1.263 0 00-1.224-1.259h-.04c-.679 0-1.24.542-1.26 1.226v.032m-8.002-.224a1.262 1.262 0 001.226 1.258h.037c.68 0 1.24-.54 1.261-1.225v-.04a1.264 1.264 0 00-1.224-1.259h-.039c-.68 0-1.241.541-1.261 1.225v.041M468.6 214.544a3.525 3.525 0 00.964 2.422 3.528 3.528 0 002.573 1.11 3.521 3.521 0 002.426-.965 3.525 3.525 0 001.11-2.575 3.525 3.525 0 00-.965-2.423 3.53 3.53 0 00-2.572-1.11 3.525 3.525 0 00-2.427.965 3.524 3.524 0 00-1.11 2.576"
      fill="#ba2c42" />
   <path
      d="M335.711 234.854a1.262 1.262 0 10-.074 2.523 1.262 1.262 0 00.074-2.523m8.002.23a1.263 1.263 0 10-.073 2.522 1.263 1.263 0 00.073-2.522m8.001.232a1.262 1.262 0 10-.072 2.524 1.262 1.262 0 00.072-2.524"
      fill="#17282f" />
   <path
      d="M229.18 191.604c9.441-3.988 17.274-12.127 27.446-13.385 2.417-.299 4.86-.185 7.303-.072 2.702.124 5.4.25 8.06-.182 5.064-.824 10.336-4.906 9.643-9.989l-95.751-2.941-.36 12.42-.003.054c8.544 14.5 28.158 20.644 43.662 14.095"
      fill="#f03d5f" />
   <path
      d="M215.999 194.218c-12.122 0-24.247-6.132-30.48-16.71l.002-.053.36-12.42 95.75 2.941c.042.308.063.612.062.912-.005 4.653-4.947 8.304-9.703 9.077l-.117.019-.04.006-.058.009-.038.006a.332.332 0 00-.027.004l-.025.003c-1.297.19-2.603.254-3.914.254h-.006c-1.175 0-2.354-.051-3.533-.105h-.016l-.07-.004-.091-.005h-.007l-.118-.005c-1.278-.06-2.557-.12-3.833-.12h-.011c-1.1 0-2.2.046-3.293.173l-.067.007-.1.012c-10.171 1.258-18.005 9.397-27.445 13.385l-.172.071c-4.144 1.723-8.574 2.543-13.006 2.543h-.004"
      fill="#f46789" />
   <path
      d="M317.795 185.265c-5.99-.174-10.986 4.541-11.159 10.53-.175 5.99 4.541 10.987 10.531 11.16 5.99.174 10.986-4.542 11.16-10.53.174-5.99-4.542-10.987-10.532-11.16"
      fill="#f03d5f" />
   <path
      d="M317.487 206.96c-.106 0-.213 0-.32-.005-5.884-.17-10.539-4.995-10.536-10.845 0-.104.002-.209.005-.314.17-5.883 4.993-10.536 10.838-10.536.107 0 .215 0 .322.005 5.884.17 10.539 4.994 10.536 10.844 0 .105-.001.21-.004.315-.172 5.881-4.99 10.533-10.834 10.536h-.007"
      fill="#ba2c42" />
   <path d="M469.709 211.968a3.537 3.537 0 104.856 5.143 3.537 3.537 0 00-4.856-5.142" fill="#f03d5f" />
   <path
      d="M457.791 251.694c2.655-4.456 3.429-10.399 4.11-15.54.321-2.42.884-5.863-.813-7.382-1.818-1.628-1.986-4.129-4.078-5.386-2.092-1.258-4.934-1.37-6.914.056"
      fill="#17282f" />
   <path
      d="M450.427 267.481a7.16 7.16 0 01-7.704-6.868c-.15-3.898-.28-7.84-.28-7.84s-5.908-.552-6.338-6.398c-.427-5.846-.231-19.343-.231-19.343a20.371 20.371 0 0120.588 1.324l-.364 20.576V260c-.04 3.713-1.97 7.196-5.671 7.48"
      fill="#f8a58d" />
   <path
      d="M441.933 239.238c1.01-1.25 2.648-1.747 3.996-.872 1.346.875 1.864 2.819 1.13 4.248-.515 1.01-1.693 1.923-2.866 2.17-1.105.23-1.888 1.296-1.758 2.416.168 1.467 2.609 2.02 3.71 3.233 1.714 1.89 5.475 2.69 8.007 2.989 2.491.295 2.19.319 3.64-1.728 1.053-1.49 1.383-2.923 1.42-4.747l.27-12.932c.031-1.553.06-3.127-.295-4.64-.358-1.512-1.15-2.982-2.448-3.836-1.423-.936-3.224-1.015-4.843-1.54-2.025-.655-3.745-1.998-5.638-2.967-1.896-.97-4.219-1.548-6.121-.593-1.365.684-2.28 2.046-3.608 2.802-1.889 1.075-4.462.83-5.38 3.61a4.717 4.717 0 00.03 2.973c1.282 3.782 5.966 5.307 9.341 3.672.067.64-.564 2.066.11 4.09.216.647.292 1.634 1.303 1.65"
      fill="#17282f" />
   <path
      d="M442.98 242.887c.055-.039.263.288.729.248.446-.03 1.03-.567 1.05-1.305.056-.746-.504-1.263-.968-1.424-.469-.183-.812-.104-.833-.184-.03-.051.318-.288.934-.168a1.721 1.721 0 011.385 1.8c-.028.996-.888 1.718-1.565 1.647a.886.886 0 01-.666-.347c-.102-.15-.097-.255-.067-.267"
      fill="#f68260" />
   <path
      d="M459.837 235.411c.997-1.936 2.871-3.438 5.015-3.825 2.143-.387 4.5.419 5.835 2.139 1.335 1.72 1.501 4.307.264 6.102-1.413 2.053-4.12 2.697-6.592 3.021a10.17 10.17 0 007.218 3.466c-1.945 1.316-4.629 1.445-6.69.321l4.02 3.43c-4.014.988-8.577-1.213-10.302-4.967-1.726-3.756-.424-8.651 2.942-11.052"
      fill="#17282f" />
   <path
      d="M463.532 242.571c.047.038-.806.466-2.087-.045-1.251-.457-2.653-1.991-2.93-4.031a5.424 5.424 0 01.325-2.816 5.469 5.469 0 011.292-1.912c.967-.913 1.8-1.101 1.807-1.051.044.082-.709.388-1.544 1.307-.834.883-1.664 2.53-1.366 4.397.257 1.863 1.465 3.271 2.567 3.772 1.112.547 1.93.287 1.936.38"
      fill="#f03d5f" />
   <path
      d="M472 236.695c-.067.06-.497-.655-1.657-1.086-1.136-.45-2.904-.531-4.756-.154a12.365 12.365 0 00-4.441 1.884c-1.04.696-1.583 1.269-1.648 1.207-.042-.034.412-.705 1.43-1.503 1.002-.804 2.606-1.7 4.555-2.095 1.934-.395 3.803-.253 5.004.324 1.228.567 1.572 1.419 1.514 1.424"
      fill="#33535f" />
   <path
      d="M470.23 240.619c.018.058-.502.303-1.417.4-.905.1-2.223-.002-3.51-.604s-2.21-1.547-2.714-2.307c-.512-.764-.657-1.32-.602-1.344.075-.034.336.455.895 1.124a7.799 7.799 0 002.641 2.057 7.806 7.806 0 003.271.708c.872 0 1.416-.113 1.436-.034m-8.906 7.844c-.026.051-.684-.212-1.526-.972-.836-.745-1.816-2.053-2.253-3.748-.437-1.697-.21-3.315.164-4.371.37-1.071.818-1.62.866-1.589.075.04-.251.645-.515 1.692-.268 1.038-.42 2.556-.013 4.138.408 1.583 1.274 2.838 2.01 3.617.736.79 1.314 1.162 1.267 1.233m-12.26-23.203c-.055.002.593-.963 2.262-1.217a5.123 5.123 0 012.819.42c.999.453 1.911 1.286 2.599 2.319 1.381 2.1 1.635 4.392 1.81 5.94.146 1.575.19 2.547.123 2.556-.075.012-.249-.955-.487-2.509-.264-1.531-.58-3.735-1.878-5.7-.643-.967-1.477-1.741-2.372-2.173a5 5 0 00-2.572-.488c-1.541.134-2.25.941-2.305.852m-16.462 5.98c.003.022-.335.046-.814-.265-.448-.284-1.109-1.055-.883-2.138a2.255 2.255 0 01.96-1.388c.54-.368 1.247-.38 1.869-.372.637.013 1.24-.035 1.74-.44.508-.384.903-.98 1.42-1.536 1.042-1.128 2.392-1.812 3.662-2.111a7.73 7.73 0 013.446-.067c.967.206 1.7.545 2.159.843.46.296.678.508.66.531-.052.1-1.01-.71-2.884-1.014a7.818 7.818 0 00-3.263.17c-1.192.305-2.437.96-3.398 1.998-.484.513-.892 1.14-1.5 1.592-.298.226-.66.395-1.024.459-.361.068-.706.06-1.024.052-.638-.022-1.21-.015-1.635.26a1.896 1.896 0 00-.831 1.11c-.236.868.268 1.582.645 1.889.398.332.71.38.695.427m15.641 16.266c-.016-.042.29-.156.763-.481a4.851 4.851 0 001.576-1.778c.467-.88.671-2.14.256-3.4a4.368 4.368 0 00-1.052-1.74c-.504-.51-1.137-.933-1.82-1.328-.681-.395-1.376-.765-2.014-1.2a6.802 6.802 0 01-1.627-1.536 7.082 7.082 0 01-1.366-3.481 6.361 6.361 0 01.204-2.506c.166-.572.351-.851.37-.842.113.02-.51 1.257-.211 3.3a6.998 6.998 0 001.382 3.239c.8 1.087 2.12 1.793 3.524 2.58.695.401 1.373.852 1.922 1.421a4.77 4.77 0 011.145 1.95c.433 1.398.159 2.788-.39 3.719a4.65 4.65 0 01-1.794 1.774c-.527.285-.86.335-.868.309"
      fill="#33535f" />
   <path
      d="M458.379 238.928c.005.035-.26.098-.751.185-.493.067-1.213.132-2.106.077-1.774-.075-4.272-.68-6.544-2.236-2.266-1.536-3.834-3.636-4.284-5.41-.236-.882-.194-1.641-.074-2.131.125-.492.283-.728.307-.717.098.012-.425 1.087.119 2.744.507 1.634 2.043 3.605 4.223 5.084a13.785 13.785 0 006.283 2.302c1.73.195 2.816.002 2.826.102"
      fill="#33535f" />
   <path d="M438.121 437.359l-2.915 6.154 13.044-.155.58-6.526-10.709.527" fill="#f03d5f" />
   <path
      d="M448.502 442.12c0 .056-.726.12-1.9.15a93.882 93.882 0 01-4.585-.022l-4.578-.147c-1.172-.048-1.897-.09-1.897-.15 0-.054.725-.114 1.898-.142a99.627 99.627 0 014.587.026l4.577.143c1.172.045 1.897.084 1.898.143"
      fill="#17282f" />
   <path
      d="M442.91 436.584c.113.007.137 1.238.054 2.751-.084 1.513-.244 2.735-.358 2.729-.116-.007-.14-1.239-.056-2.752.085-1.512.245-2.735.358-2.728"
      fill="#17282f" />
   <path
      d="M435.227 443.655l-.006-.142 6.576-.078-6.57.22m13.036-.438l.003-.045-.003.045m-12.397-1.097l.015-.032-.015.033"
      fill="#fff" />
   <path
      d="M435.221 443.513v-.006l.645-1.386.015-.034 1.033-.009.525.023c1.326.043 2.871.093 4.578.146 1.079.028 2.098.042 2.994.042.59 0 1.126-.006 1.59-.018.843-.023 1.455-.062 1.733-.102l-.067 1.002-.004.046-6.464.217-6.576.079m13.117-1.438a20.76 20.76 0 00-1.364-.082l1.37-.012-.006.094"
      fill="#f89db4" />
   <path
      d="M445.01 442.29c-.895 0-1.914-.014-2.993-.042a5601.48 5601.48 0 01-4.578-.147l-.525-.022 5.662-.048c.01.021.019.031.03.033.012 0 .023-.012.034-.034l4.335-.037c.655.027 1.13.052 1.365.082l-.006.094c-.28.041-.89.08-1.732.102-.465.013-1.002.02-1.591.02"
      fill="#9ba6a6" />
   <path d="M442.607 442.064c-.011-.001-.022-.012-.03-.033h.064c-.012.021-.022.033-.034.033" fill="#9ba6a6" />
   <path
      d="M494.82 439.885l-20.286-116.701.03-.007-.13-.508-.003-.021h-.001c-3.458-13.716-6.19-17.08-6.19-17.08l-33.711.918c-2.644 4.756-2.979 16.162-2.979 16.162-.363 1.398 6.572 114.711 6.572 114.711l10.404-.286 5.642-107.207 30.15 110.253 10.503-.233M381.758 247.783c-.081-2.124.818-6.202 1.317-6.515.498-.312 1.102.286.857.896-.198.493-.281 1.419-.315 2.118a5.177 5.177 0 00.196 1.705c.14.479.277.896.408 1.27l.233.686 22.287 19.95 13.92-.85 2.76 14.212-22.651-1.977-23.282-25.693.004-.003c-1.971-1.418-3.989-3.154-5.254-3.98-2.287-1.492-1.634-1.908-1.353-2.146l10.874.327m125.145-11.866l-13.87 28.342-13.903 5.928-5.191-12.513 10.2-2.7 15.881-25.347.035-.724c.023-.391.038-.826.04-1.318a5.213 5.213 0 00-.284-1.707c-.227-.66-.563-1.53-.89-1.949-.404-.518.01-1.26.574-1.098.568.162 1.716 1.56 2.225 3.622.512 2.062 1.885-.941 2.406-2.027.52-1.084 2.284-4.363 2.738-4.458.67-.14.95.566.406 1.638-.55 1.084-1.953 4.403-1.374 4.665l.98-.057.777 3.842a9.179 9.179 0 01-.75 5.862"
      fill="#f8a58d" />
   <path
      d="M497.794 440.99l-.05-1.33-13.47.388.117 4.386.834.027c3.706.091 18.851.224 21.303-.541 2.734-.851-8.734-2.93-8.734-2.93"
      fill="#f03d5f" />
   <path
      d="M484.399 444.254l-.105-3.483c.155-.017.308-.023.462-.023a4.816 4.816 0 012.7.845c.876.596 1.511 1.492 1.761 2.473l-4.813.088-.005.1"
      fill="#f89db4" />
   <path
      d="M491.142 444.576c-2.56 0-4.955-.044-6.75-.142l.833.027c1.33.033 4.133.07 7.294.07 1.547 0 3.18-.009 4.769-.032-2.009.05-4.13.077-6.145.077m15.263-.621c.043-.012.083-.022.122-.035.38-.119.485-.261.385-.418.084.097.104.19.037.276-.046.061-.235.12-.544.177m-2.073-1.52"
      fill="#fff" />
   <path
      d="M492.518 444.531c-3.16 0-5.964-.037-7.294-.07l-.833-.027.007-.18 4.852-.049a3.428 3.428 0 00-.033-.139l13.048-.24s.358-1.584 1.138-1.636a43.521 43.521 0 01.93.245c.922.261 2.246.688 2.58 1.068.1.156-.006.298-.386.418-.037.012-.078.022-.122.035-1.352.245-5.002.441-9.118.544-1.589.023-3.221.032-4.77.032"
      fill="#f89db4" />
   <path d="M484.399 444.254l.005-.1 4.813-.088c.012.047.023.093.033.14l-4.85.048" fill="#fcd5df" />
   <path
      d="M484.193 444.152c0 .005.08.011.232.017l.663.021c.663.007 1.478.019 2.44.033a257.886 257.886 0 0016.096-.413l2.434-.157.66-.054c.152-.015.23-.024.23-.028 0-.006-.08-.006-.23-.002l-.665.024-2.435.11a421.602 421.602 0 01-8.044.288c-3.142.08-5.986.112-8.046.124l-2.44.015-.663.009a1.504 1.504 0 00-.231.013"
      fill="#17282f" />
   <path
      d="M502.269 444.02c.05.005.072-.537.422-1.093.342-.561.834-.851.806-.89-.012-.037-.58.213-.947.814-.373.597-.32 1.18-.281 1.17m-4.014-1.763c.039.022.222-.197.409-.489.188-.291.307-.545.27-.567-.04-.021-.223.197-.41.49-.187.29-.307.544-.268.566m-1.102-.506c.031.031.239-.105.463-.305.225-.198.382-.385.352-.415-.03-.03-.239.107-.463.305-.225.2-.383.385-.352.415m-.723-1.158c0 .042.315.07.702.065.388-.006.7-.045.7-.086 0-.043-.315-.07-.703-.066-.386.007-.7.045-.699.088m-.26-.825c-.015.038.331.172.786.192.456.02.814-.083.803-.122-.009-.043-.362-.01-.795-.03-.432-.017-.782-.082-.794-.04"
      fill="#17282f" />
   <path
      d="M498.677 441.159c0 .016.331.045.862-.028a5.316 5.316 0 00.911-.213c.167-.06.341-.105.52-.214.083-.056.175-.133.206-.254.032-.122-.042-.255-.142-.318-.835-.375-1.646.078-1.94.481a1.397 1.397 0 00-.265.543c-.03.137-.025.216-.015.217.03.009.047-.318.37-.694a1.575 1.575 0 01.723-.465c.302-.09.735-.125 1.03.039.14.09.09.242-.059.33-.139.088-.32.144-.478.206a6.495 6.495 0 01-.88.237c-.515.098-.844.108-.843.133"
      fill="#17282f" />
   <path
      d="M498.901 441.193c.013.009.134-.199.083-.56a1.268 1.268 0 00-.252-.579c-.158-.173-.361-.413-.73-.388-.2.028-.29.242-.255.376.02.14.09.258.158.355.133.195.284.354.421.473.279.238.494.326.503.31.014-.018-.177-.139-.422-.385a2.856 2.856 0 01-.375-.47c-.123-.168-.213-.47 0-.512.216-.025.443.17.58.325.14.17.221.355.26.516.075.323.001.533.029.539m-14.538-.46c.004.029.384-.043.992.007a4.551 4.551 0 012.186.77 4.076 4.076 0 011.406 1.74c.22.53.25.888.281.883.009 0 .011-.09-.007-.252a3.064 3.064 0 00-.167-.667c-.191-.55-.642-1.283-1.415-1.824a4.358 4.358 0 00-2.276-.758 3.89 3.89 0 00-.737.038c-.172.028-.264.054-.262.063m6.538 2.212c-.006.039.872.15 1.962.129 1.09-.018 1.964-.159 1.957-.197-.006-.044-.88.03-1.96.046-1.08.02-1.956-.022-1.96.022"
      fill="#17282f" />
   <path
      d="M488.273 443.01c-.032.032.076.172.172.356.097.183.148.348.195.344.043 0 .062-.198-.05-.41-.11-.213-.29-.32-.318-.29m-1.026-1.12c-.031.03.06.158.203.284.142.129.284.207.315.177.03-.03-.06-.156-.202-.284-.144-.127-.283-.207-.316-.176m-1.432-.486c.01.041.188.035.388.094.2.055.343.154.378.124.035-.023-.082-.198-.33-.268s-.451.012-.436.05m-1.016-.221c-.015.04.063.101.176.14.113.037.216.034.231-.005.015-.04-.064-.103-.177-.14-.112-.037-.216-.034-.231.005m-19.584-160.361l.409-1.496c1.034-.645 13.209-8.237 13.67-8.307.483-.073-5.424-13.977-5.424-13.977l-13.856 1.985c-1.394-.39-3.914-.48-3.914-.48l-13.14-.11s-5.88.7-7.752 2.057l-14.736 5.566 3.331 17.146 12.842-2.267c-.624 1.753-.02 4.805.522 8.269.67 4.266 1.035 10.232-1.146 13.931 0 0-2.716 9.376-2.722 16.82l37.686-4.402s-.112-8.089-7.574-17.696l.358-10.129 1.446-6.91"
      fill="#17282f" />
   <path
      d="M437.85 276.475c-.07.008-.28-1.233-.564-3.26l.287.128-3.556 2.638-.352.262-.036-.442-.285-3.542.402.195-.164.11-3.927 2.61-.263.174-.093-.296a12.985 12.985 0 01-.613-3.354l.26.154a5.482 5.482 0 00-1.916 1.449c-.374.44-.536.726-.572.705-.027-.012.072-.332.41-.83a5.16 5.16 0 011.922-1.657l.237-.12.024.274c.09.948.29 2.056.696 3.232l-.357-.122 3.902-2.648.166-.112.371-.248.033.445.254 3.545-.386-.18c1.346-.942 2.57-1.797 3.631-2.537l.258-.182.029.308c.19 2.037.272 3.292.201 3.301m18.904-6.423c-.056.045-.905-.886-2.24-2.434l.307-.05-1.556 4.148-.155.41-.269-.353-2.16-2.822.444-.054-.078.183-1.885 4.322-.125.288-.241-.197a13.019 13.019 0 01-2.334-2.487l.304-.013a5.514 5.514 0 00-.826 2.257c-.076.573-.056.9-.097.903-.032.004-.12-.32-.105-.92a5.16 5.16 0 01.715-2.434l.135-.23.17.217a13.868 13.868 0 002.333 2.339l-.364.09 1.844-4.34.078-.182.177-.41.27.355 2.136 2.84-.423.059 1.674-4.1.12-.292.19.241c1.264 1.608 2.014 2.62 1.96 2.666m-16.111 10.585c.067.024-.302 1.229-.955 3.167l-.2-.241 4.362-.769.431-.076-.164.41-1.332 3.296-.273-.355.198-.025 4.68-.576.312-.038-.047.306a13.047 13.047 0 01-.953 3.274l-.167-.254a5.507 5.507 0 002.363-.438c.532-.225.805-.41.829-.374.019.022-.215.264-.74.558a5.177 5.177 0 01-2.46.622h-.266l.1-.256a13.867 13.867 0 00.825-3.2l.265.268c-1.442.19-3.016.401-4.674.62l-.199.026-.443.058.17-.412c.477-1.15.933-2.259 1.357-3.285l.267.334-4.382.645-.313.045.112-.287c.741-1.906 1.231-3.068 1.297-3.043m22.294-18.985c.068.024-.301 1.23-.954 3.167l-.201-.24 4.362-.77.432-.077-.165.411-1.33 3.296-.274-.355.198-.025 4.68-.576.31-.038-.046.306a13.085 13.085 0 01-.953 3.275l-.166-.255a5.51 5.51 0 002.363-.438c.532-.225.804-.409.829-.374.017.024-.216.264-.741.558a5.164 5.164 0 01-2.459.622h-.266l.1-.255a13.924 13.924 0 00.825-3.2l.264.267-4.674.623-.198.024-.442.057.169-.412 1.358-3.285.264.334-4.381.645-.311.045.112-.287c.74-1.906 1.229-3.067 1.295-3.044m-27.314.476c.067-.024.567 1.131 1.33 3.03l-.31-.054 2.82-3.416.278-.34.14.42 1.128 3.37-.438-.09.135-.15 3.185-3.476.212-.231.163.264a13.043 13.043 0 011.4 3.11l-.291-.087a5.502 5.502 0 001.513-1.866c.259-.518.346-.834.387-.823.028.006.009.34-.2.905a5.15 5.15 0 01-1.468 2.07l-.2.173-.091-.26a13.87 13.87 0 00-1.45-2.97l.375.033-3.152 3.507-.133.147-.301.331-.138-.424-1.1-3.38.42.083c-1.081 1.236-2.065 2.36-2.916 3.336l-.207.236-.102-.29c-.673-1.932-1.055-3.133-.99-3.158m20.004 16.666c.045-.054 1.043.716 2.627 2.01l-.295.102.816-4.353.08-.43.326.298 2.616 2.407-.428.13.045-.193 1.111-4.584.074-.303.27.15a12.983 12.983 0 012.727 2.048l-.295.064a5.51 5.51 0 00.423-2.365c-.025-.577-.1-.897-.06-.906.03-.01.173.293.263.888a5.166 5.166 0 01-.285 2.52l-.092.25-.205-.184a13.967 13.967 0 00-2.704-1.9l.344-.152-1.066 4.593-.045.194-.104.435-.325-.304-2.597-2.427.407-.132-.94 4.327-.068.309-.229-.206c-1.523-1.365-2.437-2.232-2.391-2.286m1.948 8.365c.034.062-1.049.706-2.835 1.703l.015-.313c1.093.69 2.357 1.486 3.747 2.361l.37.234-.4.193-3.198 1.546.035-.446.165.114 3.853 2.72.254.181-.238.194a13.083 13.083 0 01-2.91 1.784l.05-.3a5.541 5.541 0 002.044 1.265c.546.19.87.236.865.278-.002.03-.337.053-.923-.084a5.18 5.18 0 01-2.24-1.191l-.197-.178.246-.122a13.976 13.976 0 002.762-1.815l.015.375-3.878-2.682-.163-.113-.368-.256.404-.19 3.211-1.522-.026.426-3.678-2.466-.262-.176.274-.14c1.831-.911 2.974-1.443 3.007-1.38m-20.408 14.452c.027-.065 1.215.355 3.123 1.093l-.25.189-.578-4.392-.058-.434.403.183 3.235 1.474-.366.256-.017-.198a3490.015 3490.015 0 00-.371-4.702l-.026-.311.305.06a13.07 13.07 0 013.23 1.096l-.261.154a5.518 5.518 0 00-.334-2.38c-.203-.54-.375-.82-.34-.843.025-.017.255.226.526.763a5.16 5.16 0 01.515 2.485l-.01.265-.252-.11a13.864 13.864 0 00-3.162-.965l.28-.253.416 4.697.018.198.038.447-.406-.189-3.222-1.499.346-.25.453 4.405.032.314-.282-.123c-1.872-.825-3.012-1.365-2.985-1.43"
      fill="#fafaf9" />
   <path
      d="M436.019 260.762c0-.027.369-.105 1.045-.046.668.064 1.653.302 2.69.954 1.037.636 2.09 1.726 2.796 3.18.717 1.445 1.112 3.213 1.083 5.065-.047 3.748-1.803 6.852-3.429 8.591a11.869 11.869 0 01-2.157 1.847c-.572.354-.906.513-.921.486-.063-.087 1.27-.79 2.803-2.575 1.512-1.755 3.14-4.766 3.185-8.356.03-1.774-.336-3.467-.993-4.851-.65-1.39-1.608-2.437-2.569-3.08-1.957-1.321-3.565-1.106-3.533-1.215m-2.114 46.212c-9.813 30.97 1.637 69.51-1.397 105.596-.278 3.312-1.552 7.233.984 9.379 1.467 1.24 3.61 1.347 5.473.883 1.862-.464 3.558-1.42 5.341-2.132a21.484 21.484 0 0114.223-.552c3.13.978 6.234 2.702 9.477 2.212 4.308-.65 7.098-4.909 11.062-6.712 3.71-1.689 7.997-1.058 12.073-1.16 4.075-.102 8.741-1.457 10.291-5.228 0 0-28.152-105.127-38.022-111.397l-26.146 1.656-3.36 7.455"
      fill="#33535f" />
   <path
      d="M463.082 326.222c.03.11-3.721 1.176-8.378 2.382-4.657 1.205-8.455 2.092-8.482 1.981-.03-.11 3.722-1.177 8.38-2.382 4.654-1.205 8.453-2.092 8.481-1.981M169.63 248.935l-52.609-.242c-6.328-.027-11.433-5.166-11.406-11.475l.557-131.524c.027-6.313 5.183-11.408 11.512-11.379l52.61.243c6.326.029 11.433 5.166 11.406 11.475l-.558 131.524c-.027 6.313-5.182 11.408-11.512 11.378"
      fill="#17282f" />
   <path
      d="M170.217 99.097l-10.201-.047c-1.366-.006-2.48 1.146-2.486 2.57l-.008 1.845c-.006 1.427-1.12 2.578-2.488 2.572l-19.882-.092c-1.367-.007-2.472-1.168-2.466-2.594l.009-1.844c.006-1.426-1.098-2.588-2.466-2.594l-3.588-.017-8.928-.04c-4.433-.021-8.043 3.547-8.061 7.97l-.545 128.374c-.02 4.42 3.558 8.017 7.988 8.037l52.504.242c4.433.021 8.043-3.546 8.063-7.968l.543-128.377c.019-4.42-3.556-8.017-7.988-8.037"
      fill="#fff" />
   <path
      d="M169.54 151.67c0 .143-11.416.26-25.497.26-14.084 0-25.498-.117-25.498-.26 0-.143 11.414-.26 25.498-.26 14.081 0 25.497.117 25.497.26m0 3.14c0 .143-11.416.26-25.497.26-14.084 0-25.498-.117-25.498-.26 0-.144 11.414-.26 25.498-.26 14.081 0 25.497.116 25.497.26m-17.21 2.812c0 .143-4.596.258-10.263.258-5.67 0-10.266-.115-10.266-.258 0-.144 4.595-.26 10.266-.26 5.667 0 10.263.116 10.263.26"
      fill="#17282f" />
   <path d="M169.54 199.072h-53.95v-34.535h53.949v34.535" fill="#f03d5f" />
   <path
      d="M123.416 171.385c0 1.172-.968 2.121-2.162 2.121-1.193 0-2.161-.95-2.161-2.121 0-1.172.968-2.122 2.161-2.122 1.194 0 2.162.95 2.162 2.122m41.419-.136l.055.053 1.564 1.503-.048-4.513-3.118.033.049 4.426zm1.778 1.921l-1.775-1.706-1.652 1.656-.054-4.946 3.427-.036.054 5.032m-13.588-2.91c0 .144-5.925.258-13.233.258-7.31 0-13.234-.114-13.234-.258 0-.143 5.925-.259 13.234-.259 7.308 0 13.233.116 13.233.26m-16.263 2.91c0 .143-2.284.259-5.102.259-2.818 0-5.102-.116-5.102-.26 0-.143 2.284-.26 5.102-.26 2.818 0 5.102.117 5.102.26"
      fill="#fafaf9" />
   <path
      d="M134.436 114.57a7.196 7.196 0 01-7.197 7.197 7.197 7.197 0 117.197-7.196m-4.207-15.658l-3.588-.017-8.928-.04c-4.433-.022-8.044 3.547-8.062 7.97l-.103 24.343c2.696.54 5.393 1.068 8.093 1.541 13.892 2.433 28.795 3.291 41.527-2.774 7.054-3.36 12.93-8.604 18.998-13.58l.039-9.222c.019-4.42-3.556-8.017-7.988-8.037l-10.201-.047c-1.366-.006-2.48 1.146-2.486 2.57l-.008 1.845c-.006 1.427-1.12 2.578-2.488 2.572l-19.882-.092c-1.367-.007-2.472-1.168-2.466-2.594l.009-1.844c.006-1.426-1.098-2.588-2.466-2.594"
      fill="#f03d5f" />
   <path
      d="M146.347 139.19a.618.618 0 110-1.236.618.618 0 010 1.236m-3.922 0a.619.619 0 11.001-1.238.619.619 0 010 1.238m-3.922 0a.62.62 0 110-1.238.62.62 0 010 1.238m-20.863-6.48c-2.7-.472-5.397-1-8.093-1.54l-.053 12.385h68.556l.115-27.2c-6.068 4.977-11.944 10.22-18.998 13.58-12.732 6.066-27.635 5.208-41.527 2.775"
      fill="#f03d5f" />
   <path
      d="M138.504 137.954a.618.618 0 10-.001 1.236.618.618 0 00.001-1.236m3.921 0a.618.618 0 100 1.236.618.618 0 000-1.236m3.922 0a.618.618 0 100 1.236.618.618 0 100-1.236"
      fill="#17282f" />
   <path d="M127.24 107.376a7.196 7.196 0 100 14.391 7.196 7.196 0 007.196-7.196 7.196 7.196 0 00-7.197-7.195"
      fill="#f03d5f" />
   <path d="M127.24 121.767a7.197 7.197 0 117.196-7.196 7.196 7.196 0 01-7.197 7.196" fill="#ba2c42" />
   <path
      d="M121.15 221.165a2.121 2.121 0 110 4.242 2.121 2.121 0 010-4.242zm44.464-1.126l.055 5.032-1.745-1.705-1.62 1.655-.053-4.946zm-50.023 23.046c.488.095.99.15 1.504.152l51.446.237v-27.036h-52.95v26.647"
      fill="#33535f" />
   <path d="M163.922 223.15l.056.053 1.535 1.503-.05-4.513-3.058.033.048 4.426 1.47-1.502" fill="#33535f" />
   <path
      d="M121.15 225.407a2.121 2.121 0 100-4.242 2.121 2.121 0 000 4.243m44.313-5.215l.05 4.513-1.535-1.504-.056-.051-1.47 1.5-.047-4.425zm-1.538 3.173l1.744 1.705-.055-5.032-3.363.036.054 4.946 1.62-1.656"
      fill="#fafaf9" />
   <path
      d="M178.051 143.555h-68.556l.053-12.386c2.696.54 5.393 1.069 8.093 1.541 6.134 1.075 12.462 1.841 18.717 1.841 7.91 0 15.7-1.227 22.81-4.615 7.054-3.36 12.93-8.604 18.998-13.58l-.115 27.2m-32.322-4.984a.618.618 0 101.236 0 .618.618 0 10-1.236 0m-3.922 0a.619.619 0 001.237 0 .619.619 0 10-1.237 0m-3.922 0a.62.62 0 001.237 0 .619.619 0 00-1.237 0"
      fill="#ba2c42" />
   <path
      d="M168.098 202.533c0 .143-11.755.26-26.252.26-14.502 0-26.255-.117-26.255-.26 0-.142 11.753-.258 26.255-.258 14.497 0 26.251.116 26.251.258m.001 2.656c0 .141-11.755.258-26.252.258-14.502 0-26.255-.117-26.255-.26 0-.142 11.753-.257 26.255-.257 14.497 0 26.251.115 26.251.258m.001 3.027c0 .144-11.755.26-26.252.26-14.502 0-26.255-.116-26.255-.26 0-.141 11.753-.259 26.255-.259 14.497 0 26.251.117 26.251.26m-25.145 2.63c0 .144-6.124.26-13.679.26-7.558 0-13.682-.116-13.682-.26 0-.143 6.124-.259 13.682-.259 7.555 0 13.68.116 13.68.26"
      fill="#17282f" />
   <path
      d="M318.24 311.874l.077.076 2.2 2.154-.07-6.465-4.381.046.067 6.342zm2.5 2.753l-2.498-2.445-2.32 2.372-.077-7.085 4.818-.052.077 7.21m-19.108-4.169c0 .142-8.332.258-18.609.258-10.279 0-18.61-.116-18.61-.258 0-.145 8.331-.26 18.61-.26 10.277 0 18.609.115 18.609.26"
      fill="#fafaf9" />
   <path
      d="M289.686 441.79H39.644c-7.543 0-13.659-6.116-13.659-13.66v-1.153h277.359v1.153c0 7.544-6.115 13.66-13.659 13.66"
      fill="#17282f" />
   <path
      d="M259.993 312.07a3.04 3.04 0 11-6.078 0 3.04 3.04 0 013.038-3.041 3.04 3.04 0 013.04 3.04m18.769 2.557c0 .144-3.214.26-7.175.26-3.963 0-7.174-.116-7.174-.259 0-.143 3.21-.258 7.174-.258 3.961 0 7.175.115 7.175.258"
      fill="#fafaf9" />
   <path
      d="M220.924 327.664c0-5.81 4.711-10.52 10.521-10.52 5.812 0 10.522 4.71 10.522 10.52 0 5.811-4.71 10.522-10.522 10.522-5.81 0-10.52-4.71-10.52-10.522"
      fill="#dadbd8" />
   <path
      d="M233.042 323.184c.033.039-.533.558-1.477 1.366a192.64 192.64 0 01-3.743 3.108l.005-.287.073.065a189.69 189.69 0 013.688 3.272c.93.852 1.488 1.4 1.454 1.438-.033.039-.654-.438-1.628-1.238a196.458 196.458 0 01-3.759-3.19l-.073-.064-.169-.146.174-.14a205.126 205.126 0 013.812-3.022c.986-.756 1.611-1.202 1.643-1.162"
      fill="#17282f" />
   <path
      d="M278.192 439.497h-227c-8.008 0-14.5-6.492-14.5-14.502V277.922a7.717 7.717 0 017.716-7.717h241.576a6.71 6.71 0 016.71 6.71v148.08c0 8.01-6.493 14.502-14.502 14.502"
      fill="#17282f" />
   <path d="M43.564 419.896h241.542V276.932H43.564zm95.891 7.081l3.443 5.475h48.43l3.196-5.475h-55.069"
      fill="#33535f" />
   <path d="M51.62 419.842h222.386V286.453H51.62z" fill="#fff" />
   <path
      d="M61.111 293.03a1.867 1.867 0 11-3.731 0 1.867 1.867 0 013.731 0m7.614 0a1.865 1.865 0 11-3.73.001 1.865 1.865 0 013.73 0m7.615 0a1.867 1.867 0 11-3.732 0 1.867 1.867 0 013.733 0"
      fill="#17282f" />
   <path d="M292.694 427.907H36.691v-.816h256.003v.816" fill="#33535f" />
   <path
      d="M216.187 362.695c0 .143-23.702.26-52.93.26-29.24 0-52.936-.117-52.936-.26 0-.142 23.696-.258 52.935-.258 29.23 0 52.931.116 52.931.258m-25.745 3.649c0 .142-12.696.259-28.356.259-15.665 0-28.36-.117-28.36-.26 0-.143 12.695-.258 28.36-.258 15.66 0 28.356.115 28.356.259"
      fill="#17282f" />
   <path d="M127.17 417.406H67.807v-38.719h59.365v38.72" fill="#f03d5f" />
   <path
      d="M76.415 386.366a2.377 2.377 0 01-2.378 2.377 2.378 2.378 0 112.378-2.377m45.578-.154l.062.06 1.72 1.685-.054-5.06-3.428.038.052 4.962zm1.957 2.156l-1.955-1.914-1.816 1.856-.059-5.544 3.77-.04.06 5.641m-14.952-3.263c0 .143-6.52.26-14.562.26-8.043 0-14.562-.117-14.562-.26 0-.143 6.518-.26 14.562-.26 8.041 0 14.562.117 14.562.26m-17.896 3.264c0 .142-2.514.257-5.614.257s-5.614-.115-5.614-.257c0-.143 2.514-.26 5.614-.26s5.614.117 5.614.26"
      fill="#fafaf9" />
   <path d="M192.936 417.406h-59.365v-38.719h59.365v38.72" fill="#33535f" />
   <path
      d="M142.181 386.366a2.378 2.378 0 11-4.756-.001 2.378 2.378 0 014.756 0m45.577-.153l.062.06 1.72 1.685-.054-5.06-3.428.038.053 4.962zm1.958 2.156l-1.955-1.914-1.816 1.856-.06-5.544 3.77-.04.061 5.641m-14.953-3.263c0 .143-6.52.26-14.561.26-8.043 0-14.563-.117-14.563-.26 0-.143 6.52-.26 14.563-.26 8.04 0 14.561.117 14.561.26m-17.895 3.264c0 .142-2.514.257-5.614.257s-5.615-.115-5.615-.257c0-.143 2.514-.26 5.615-.26 3.1 0 5.614.117 5.614.26"
      fill="#fafaf9" />
   <path d="M258.58 417.406h-59.364v-38.719h59.364v38.72" fill="#f03d5f" />
   <path
      d="M207.825 386.366a2.379 2.379 0 11-4.757-.001 2.379 2.379 0 014.757 0m45.577-.153l.062.06 1.72 1.685-.054-5.06-3.428.038.053 4.962zm1.958 2.156l-1.955-1.914-1.816 1.856-.06-5.544 3.77-.04.06 5.641m-14.952-3.263c0 .143-6.52.26-14.561.26-8.043 0-14.562-.117-14.562-.26 0-.143 6.518-.26 14.562-.26 8.04 0 14.56.117 14.56.26m-17.895 3.264c0 .142-2.513.257-5.613.257-3.102 0-5.614-.115-5.614-.257 0-.143 2.512-.26 5.614-.26 3.1 0 5.613.117 5.613.26"
      fill="#fafaf9" />
   <path
      d="M141.476 309.61a8.796 8.796 0 018.795 8.794 8.795 8.795 0 01-8.795 8.797 8.797 8.797 0 010-17.592m-37.29-4.84c-2.145.413-4.335.375-6.527.337-1.981-.035-3.964-.068-5.916.23-8.213 1.258-14.37 8.038-21.927 11.49-5.7 2.605-12.167 3.055-18.197 1.665v21.577c8.266-4.234 17.872-6.414 27.028-6.692 17.23-.523 34.115 4.227 51.096 7.2 16.98 2.973 35.195 4.023 50.758-3.391 12.53-5.97 22.017-16.799 33.61-24.43 17.41-11.46 39.694-14.803 59.895-9.902v-3.658H111.499c-1.014 2.817-4.187 4.972-7.314 5.574"
      fill="#f03d5f" />
   <path
      d="M265.202 327.684a2.863 2.863 0 014.054 0 2.864 2.864 0 010 4.053 2.865 2.865 0 01-4.054 0 2.864 2.864 0 010-4.053m-97.603 19.724a.875.875 0 110-1.75.875.875 0 010 1.75m-5.55 0a.875.875 0 110-1.75.875.875 0 010 1.75m-5.55 0a.875.875 0 110-1.75.875.875 0 010 1.75m57.612-34.653c-11.593 7.631-21.08 18.46-33.61 24.43-15.563 7.414-33.778 6.364-50.758 3.392-16.98-2.974-33.866-7.724-51.096-7.201-9.156.278-18.762 2.458-27.028 6.692v13.763h222.387v-50.978c-20.201-4.9-42.485-1.559-59.895 9.902"
      fill="#f03d5f" />
   <path
      d="M156.499 345.658a.876.876 0 100 1.751.876.876 0 000-1.751m5.55 0a.876.876 0 100 1.751.876.876 0 000-1.751m5.55 0a.876.876 0 100 1.751.876.876 0 000-1.751"
      fill="#17282f" />
   <path
      d="M69.816 316.826c7.557-3.453 13.714-10.232 21.927-11.49 1.951-.3 3.934-.265 5.916-.23 2.192.038 4.382.076 6.526-.337 3.127-.602 6.3-2.757 7.314-5.574H51.62v19.295c6.03 1.39 12.497.94 18.198-1.664"
      fill="#f03d5f" />
   <path
      d="M58.362 319.262a30.029 30.029 0 01-6.743-.772v-19.295h59.88c-1.014 2.817-4.187 4.972-7.314 5.574l-.062.012c-.007 0-.016.003-.024.004l-.032.006c-1.482.273-2.986.336-4.497.337h-.006c-.634 0-1.27-.011-1.904-.022-.635-.01-1.268-.022-1.9-.022h-.01c-1.297 0-2.59.046-3.87.232a6.216 6.216 0 00-.138.02c-8.212 1.259-14.369 8.038-21.926 11.49l-.12.055-.02.009-.036.015-.106.048c-3.532 1.564-7.347 2.309-11.164 2.309h-.008"
      fill="#f46789" />
   <path d="M141.476 327.2a8.796 8.796 0 10-.001-17.592 8.796 8.796 0 000 17.593" fill="#f03d5f" />
   <path d="M141.476 327.2a8.797 8.797 0 110-17.592 8.797 8.797 0 010 17.593" fill="#ba2c42" />
   <path
      d="M269.256 331.737a2.864 2.864 0 000-4.053 2.863 2.863 0 00-4.054 0 2.864 2.864 0 000 4.053 2.865 2.865 0 004.054 0"
      fill="#f03d5f" />
   <path
      d="M274.006 353.831H51.62v-13.763c8.266-4.234 17.871-6.414 27.028-6.692a87.346 87.346 0 012.652-.04c16.312 0 32.337 4.421 48.443 7.24 7.496 1.313 15.233 2.25 22.876 2.25 9.67 0 19.191-1.5 27.882-5.64 12.531-5.97 22.018-16.8 33.611-24.43 12.224-8.047 26.846-12.09 41.467-12.09 6.204 0 12.41.728 18.427 2.187v50.978m-107.282-7.298a.875.875 0 101.75 0 .875.875 0 10-1.75 0m-5.55 0a.875.875 0 101.75 0 .875.875 0 10-1.75 0m-5.55 0a.875.875 0 101.75 0 .875.875 0 10-1.75 0m108.74-16.823c0 .734.28 1.468.838 2.027a2.859 2.859 0 002.028.84 2.86 2.86 0 002.027-.84 2.857 2.857 0 00.839-2.027c0-.733-.28-1.466-.84-2.026a2.854 2.854 0 00-2.026-.84 2.86 2.86 0 00-2.028.84 2.855 2.855 0 00-.839 2.026"
      fill="#ba2c42" />
   <path
      d="M265.356 401.749c-.018-.023.294-.31.816-.757s1.253-1.054 2.07-1.718l-.002.159-.04-.035a107.864 107.864 0 01-2.04-1.812c-.515-.47-.824-.772-.805-.796.018-.02.36.243.9.687a107.86 107.86 0 012.08 1.763l.04.037.094.08-.097.078a102.303 102.303 0 01-2.108 1.67c-.546.418-.892.666-.909.644M61.29 396.79c.018.023-.295.31-.818.758-.522.447-1.252 1.055-2.07 1.717l.004-.157.04.036a108.825 108.825 0 012.04 1.81c.515.471.823.773.805.795-.019.021-.362-.242-.901-.686a105.289 105.289 0 01-2.079-1.764l-.041-.035-.093-.08.096-.078a110.05 110.05 0 012.108-1.671c.546-.418.892-.665.91-.645"
      fill="#17282f" />
</svg>