<svg class="logo-img" version="1.1" viewBox="0 0 146 45.996" xmlns="http://www.w3.org/2000/svg">
  <g class="logo-img-group" fill="none" stroke="#3ee8e5" stroke-width="1.3229">
    <path
      d="m10.087 45.335q-2.7285 0-4.5641-0.84336-1.8107-0.86817-2.8773-2.5053-1.0418-1.6619-1.4883-4.0184-0.44648-2.3812-0.44648-5.4074v-3.8943h6.3004v4.3904q0 3.5223 0.59531 5.0602t2.3564 1.5379q1.1906 0 1.7859-0.5457 0.62012-0.57051 0.81856-1.7859 0.22324-1.2402 0.22324-3.2246 0-2.4557-1.0418-4.4896-1.017-2.034-3.1006-4.2168l-3.2246-3.3238q-1.3395-1.3891-2.4309-2.9518-1.0666-1.5627-1.7115-3.4727-0.62012-1.9348-0.62012-4.316 0-3.4479 0.84336-5.8291t2.8525-3.5967q2.0092-1.2402 5.5066-1.2402 2.6293 0 4.316 0.81856 1.7115 0.79375 2.6541 2.3564 0.96738 1.5379 1.3643 3.7703 0.39688 2.2076 0.39688 5.0602v2.7037h-6.1268v-3.1254q0-1.9844-0.22324-3.299-0.19844-1.3146-0.76894-1.9596-0.57051-0.66973-1.6619-0.66973-1.0418 0-1.6867 0.47129-0.64492 0.44648-0.94258 1.4139-0.27285 0.94258-0.27285 2.4557 0 1.3643 0.34727 2.3564 0.34727 0.99219 1.0666 1.91 0.71934 0.91777 1.7859 2.0588l3.5967 3.8943q2.5797 2.7781 4.0184 5.7795t1.4387 6.6973q0 3.9191-0.84336 6.598-0.84336 2.6541-2.8277 4.0184t-5.4074 1.3643z" />
    <path
      d="m21.249 44.839 6.226-43.656h8.7809l6.6228 43.656h-6.2012l-1.0418-7.7887h-7.0445l-0.94258 7.7887zm7.9871-13.122h5.7051l-2.927-21.927h-0.09922z" />
    <path d="m47.865 44.839v-37.902h-5.1098v-5.7547h16.644v5.7547h-4.9113v37.902z" />
    <path
      d="m67.56 44.839-6.7717-43.656h6.3252l2.8525 19.72 1.7611 13.891h0.17363l1.5131-13.891 2.3812-19.72h6.2012l-6.226 43.656z" />
    <path d="m86.188 44.839v-43.656h14.635v5.7299h-7.9871v12.7h7.5902v5.6059h-7.5902v13.891h8.2848v5.7299z" />
    <path d="m106.03 44.839v-43.656h14.635v5.7299h-7.9871v12.7h7.5902v5.6059h-7.5902v13.891h8.2848v5.7299z" />
    <path
      d="m125.88 44.839v-43.656h10.988q3.423 0 5.1098 1.3395 1.6867 1.3395 2.2076 3.9191 0.5457 2.5797 0.5457 6.3004 0 3.8447-0.79375 6.0523-0.76894 2.1828-3.175 2.927 1.141 0.19844 1.91 0.94258 0.76895 0.71934 1.2402 2.1332 0.47129 1.3891 0.66972 3.5967 0.22325 2.1828 0.22325 5.3578 0 0.24804 0 1.3891t0 2.7037q0.0248 1.5379 0.0496 3.0758t0.0744 2.6293 0.12402 1.2898h-6.6476q-0.0744-0.12402-0.12403-1.265-0.0248-1.1658-0.0744-2.9518-0.0248-1.7859-0.0496-3.8447 0-2.0588 0-4.0432 0-2.0092 0-3.5471 0-1.9596-0.29766-2.9518-0.27285-1.017-1.0418-1.4139-0.74414-0.39688-2.158-0.47129l-2.1332-0.12402v20.613zm6.6725-25.772h2.6541q1.2154 0 1.8356-0.5457 0.64492-0.5457 0.86816-2.0092 0.24805-1.4635 0.24805-4.2168v-0.27285q0-2.3068-0.22324-3.5471-0.22324-1.2402-0.94258-1.7115-0.69453-0.47129-2.1828-0.47129h-2.2572z" />
  </g>
</svg>