<svg viewBox="0 0 45.206 20" xmlns="http://www.w3.org/2000/svg">
    <path
        d="M20.783 2.817a1.75 1.75 0 00.355-1.052 1.765 1.765 0 00-3.382-.705S16.6 2.702 15.753 7.583c-.367 2.136-.76 4.359-.76 4.359-1.046-2.136-1.744-6.843-2.136-7.714-1.83-1.874-2.964.61-2.964.61L8.405 7.62l-3.002 5.455L3.415 2.214A1.72 1.72 0 000 2.506c0 .148.024.288.06.425.255 1.81 1.295 9 2.207 12.149 1.004 3.476 2.093 6.771 4.146 3.704l.004.007.061-.108c.064-.097.125-.18.19-.29.121-.207.22-.403.31-.596.908-1.626 2.707-4.911 3.743-7.25 0 0 1.57 5.318 4.054 8.02 2.484 2.7 3.268.523 3.443 0 .043-.916.25-11.971 2.566-15.747l-.001-.003zm5.066-.547l-.002-.004s-.052.014-.125.037l-.045.014-.046.016c-.253.083-.465.18-.613.276l-.002.002c-1.36.718-3.965 2.816-4.444 8.501.12 4.174 2.39 5.699 3.793 6.245.01.004.213.098.56.181.322.088.529.111.529.111l.001-.018c1.205.146 3.2-.086 4.968-2.553 2.746-3.835 2.485-8.63.458-11.136-1.588-1.964-3.75-2.015-5.032-1.672zm.19 11.781c-.411.022-.658-.152-.732-.217-.582-.533-1.618-1.85-1.203-4.245.424-2.448 1.9-3.404 2.612-3.73.211-.087.673-.202 1.186.15.447.333.927 1.035.997 2.534.121 2.704-.923 5.151-2.86 5.508zM43.644 3.943c-1.59-1.965-3.751-2.017-5.032-1.674l-.003-.003-.124.037-.045.014a2.74 2.74 0 00-.66.291c0 .002 0 .003-.002.003-1.358.718-3.964 2.816-4.444 8.501.121 4.174 2.39 5.699 3.792 6.245.01.004.215.098.56.181.323.088.53.111.53.111v-.016c1.206.146 3.202-.086 4.969-2.553 2.747-3.836 2.486-8.63.459-11.137zm-4.842 10.108c-.413.022-.66-.152-.734-.218-.582-.532-1.618-1.849-1.202-4.244.424-2.448 1.9-3.404 2.612-3.73.21-.087.672-.202 1.185.15.448.333.927 1.035.998 2.534.123 2.703-.923 5.151-2.86 5.508z"
        fill="#3ee8e5" />
</svg>