<svg viewBox="0 0 19.998 20" xmlns="http://www.w3.org/2000/svg">
    <path
        d="M0 10c0 3.956 2.3 7.379 5.636 8.998L.866 5.93A9.953 9.953 0 000 10zm16.75-.505c0-1.236-.445-2.092-.825-2.758-.507-.824-.98-1.52-.98-2.346 0-.919.694-1.774 1.678-1.774.043 0 .086.006.129.009A9.96 9.96 0 0010 0a9.987 9.987 0 00-8.354 4.508c.235.007.455.012.642.012 1.047 0 2.666-.128 2.666-.128.537-.03.601.76.062.825 0 0-.54.062-1.144.095l3.642 10.83L9.702 9.58 8.144 5.312a19.386 19.386 0 01-1.049-.095c-.539-.033-.475-.855.065-.825 0 0 1.65.128 2.632.128 1.045 0 2.666-.128 2.666-.128.537-.03.601.76.062.825 0 0-.54.062-1.144.095l3.615 10.747.997-3.331c.507-1.3.762-2.376.762-3.233zm-6.575 1.38l-3 8.719a9.997 9.997 0 006.145-.162.868.868 0 01-.071-.136zm8.598-5.673c.044.32.07.66.07 1.029 0 1.014-.191 2.154-.762 3.581l-3.054 8.83A9.991 9.991 0 0019.997 10c0-1.74-.443-3.373-1.224-4.798z"
        fill="#3ee8e5" />
</svg>