<?xml version="1.0" encoding="UTF-8" standalone="no"?>
<svg
   viewBox="0 0 2500 2099.9999"
   height="2100"
   width="2500"
   xml:space="preserve"
   id="svg2"
   version="1.1"
   sodipodi:docname="working-process.svg"
   inkscape:version="1.1.1 (3bf5ae0d25, 2021-09-20)"
   xmlns:inkscape="http://www.inkscape.org/namespaces/inkscape"
   xmlns:sodipodi="http://sodipodi.sourceforge.net/DTD/sodipodi-0.dtd"
   xmlns="http://www.w3.org/2000/svg"
   xmlns:svg="http://www.w3.org/2000/svg"
   xmlns:rdf="http://www.w3.org/1999/02/22-rdf-syntax-ns#"
   xmlns:cc="http://creativecommons.org/ns#"
   xmlns:dc="http://purl.org/dc/elements/1.1/"><sodipodi:namedview
     id="namedview173"
     pagecolor="#ffffff"
     bordercolor="#666666"
     borderopacity="1.0"
     inkscape:pageshadow="2"
     inkscape:pageopacity="0.0"
     inkscape:pagecheckerboard="0"
     showgrid="false"
     inkscape:zoom="0.097045896"
     inkscape:cx="2416.3825"
     inkscape:cy="973.76607"
     inkscape:window-width="1366"
     inkscape:window-height="715"
     inkscape:window-x="-8"
     inkscape:window-y="-8"
     inkscape:window-maximized="1"
     inkscape:current-layer="svg2" /><metadata
     id="metadata8"><rdf:RDF><cc:Work
         rdf:about=""><dc:format>image/svg+xml</dc:format><dc:type
           rdf:resource="http://purl.org/dc/dcmitype/StillImage" /></cc:Work></rdf:RDF></metadata><defs
     id="defs6"><clipPath
       id="clipPath192"
       clipPathUnits="userSpaceOnUse"><path
         id="path190"
         d="m 7425.39,3308.4 -119.27,542.2 942.31,388.1 163.8,-744.7 z" /></clipPath><linearGradient
       id="linearGradient202"
       spreadMethod="pad"
       gradientTransform="matrix(273.20133,-54.598932,54.598932,273.20133,826.63598,2271.92)"
       gradientUnits="userSpaceOnUse"
       y2="0"
       x2="1"
       y1="0"
       x1="0"><stop
         id="stop194"
         offset="0"
         style="stop-opacity:1;stop-color:#ffacaa" /><stop
         id="stop196"
         offset="0.296351"
         style="stop-opacity:1;stop-color:#ffacaa" /><stop
         id="stop198"
         offset="0.77342502"
         style="stop-opacity:1;stop-color:#ffacaa" /><stop
         id="stop200"
         offset="1"
         style="stop-opacity:1;stop-color:#fb6b67" /></linearGradient><clipPath
       id="clipPath220"
       clipPathUnits="userSpaceOnUse"><path
         id="path218"
         d="m 12107.9,6227.1 45.3,14.8 c 207,67.7 319.9,290.2 252.2,497.2 l -390.6,1218.1 -758.5,-390.5 354.4,-1087.4 c 67.7,-206.9 290.3,-319.8 497.2,-252.2 z" /></clipPath><linearGradient
       id="linearGradient230"
       spreadMethod="pad"
       gradientTransform="matrix(-118.92586,-248.86399,-248.86399,118.92586,1650.68,1927.0401)"
       gradientUnits="userSpaceOnUse"
       y2="0"
       x2="1"
       y1="0"
       x1="0"><stop
         id="stop222"
         offset="0"
         style="stop-opacity:1;stop-color:#ffacaa" /><stop
         id="stop224"
         offset="0.0765083"
         style="stop-opacity:1;stop-color:#ffacaa" /><stop
         id="stop226"
         offset="0.43872583"
         style="stop-opacity:1;stop-color:#fb6b67" /><stop
         id="stop228"
         offset="1"
         style="stop-opacity:1;stop-color:#fb6b67" /></linearGradient><clipPath
       id="clipPath240"
       clipPathUnits="userSpaceOnUse"><path
         id="path238"
         d="m 10323.7,5656.9 1914.9,610.4 c 146.1,46.6 223.3,206.1 169.1,349.6 v 0 c -81.3,215.4 -590.6,252.9 -806,171.6 L 10196,5995.1 Z" /></clipPath><linearGradient
       id="linearGradient250"
       spreadMethod="pad"
       gradientTransform="matrix(332.96133,-101.38613,-101.38613,-332.96133,1341.28,1937.5734)"
       gradientUnits="userSpaceOnUse"
       y2="0"
       x2="1"
       y1="0"
       x1="0"><stop
         id="stop242"
         offset="0"
         style="stop-opacity:1;stop-color:#ffacaa" /><stop
         id="stop244"
         offset="0.464415"
         style="stop-opacity:1;stop-color:#ffacaa" /><stop
         id="stop246"
         offset="0.68580572"
         style="stop-opacity:1;stop-color:#ffacaa" /><stop
         id="stop248"
         offset="1"
         style="stop-opacity:1;stop-color:#fb6b67" /></linearGradient><clipPath
       id="clipPath260"
       clipPathUnits="userSpaceOnUse"><path
         id="path258"
         d="m 7458.19,6227.1 -45.33,14.8 c -206.93,67.7 -319.85,290.2 -252.21,497.2 l 390.61,1218.1 758.51,-390.5 -354.42,-1087.4 c -67.64,-206.9 -290.23,-319.8 -497.16,-252.2 z" /></clipPath><linearGradient
       id="linearGradient270"
       spreadMethod="pad"
       gradientTransform="matrix(118.926,-248.86399,248.86399,118.926,958.13598,1927.0401)"
       gradientUnits="userSpaceOnUse"
       y2="0"
       x2="1"
       y1="0"
       x1="0"><stop
         id="stop262"
         offset="0"
         style="stop-opacity:1;stop-color:#ffacaa" /><stop
         id="stop264"
         offset="0.0765083"
         style="stop-opacity:1;stop-color:#ffacaa" /><stop
         id="stop266"
         offset="0.43872583"
         style="stop-opacity:1;stop-color:#fb6b67" /><stop
         id="stop268"
         offset="1"
         style="stop-opacity:1;stop-color:#fb6b67" /></linearGradient><clipPath
       id="clipPath280"
       clipPathUnits="userSpaceOnUse"><path
         id="path278"
         d="M 9242.41,5656.9 7327.5,6267.3 c -146.09,46.6 -223.28,206.1 -169.14,349.6 h 0.01 c 81.3,215.4 590.63,252.9 806.05,171.6 l 1405.64,-793.4 z" /></clipPath><linearGradient
       id="linearGradient290"
       spreadMethod="pad"
       gradientTransform="matrix(-332.96133,-101.38613,101.38613,-332.96133,1267.5333,1937.5734)"
       gradientUnits="userSpaceOnUse"
       y2="0"
       x2="1"
       y1="0"
       x1="0"><stop
         id="stop282"
         offset="0"
         style="stop-opacity:1;stop-color:#ffacaa" /><stop
         id="stop284"
         offset="0.464415"
         style="stop-opacity:1;stop-color:#ffacaa" /><stop
         id="stop286"
         offset="0.68580572"
         style="stop-opacity:1;stop-color:#ffacaa" /><stop
         id="stop288"
         offset="1"
         style="stop-opacity:1;stop-color:#fb6b67" /></linearGradient><clipPath
       id="clipPath300"
       clipPathUnits="userSpaceOnUse"><path
         id="path298"
         d="m 10184.1,9026.6 h -733.01 l 87.11,729 h 558.8 z" /></clipPath><linearGradient
       id="linearGradient312"
       spreadMethod="pad"
       gradientTransform="matrix(0,-120.42933,120.42933,0,1309.0146,1549.7201)"
       gradientUnits="userSpaceOnUse"
       y2="0"
       x2="1"
       y1="0"
       x1="0"><stop
         id="stop302"
         offset="0"
         style="stop-opacity:1;stop-color:#ffacaa" /><stop
         id="stop304"
         offset="0.507452"
         style="stop-opacity:1;stop-color:#ffacaa" /><stop
         id="stop306"
         offset="0.51519687"
         style="stop-opacity:1;stop-color:#ffacaa" /><stop
         id="stop308"
         offset="0.857436"
         style="stop-opacity:1;stop-color:#fb6b67" /><stop
         id="stop310"
         offset="1"
         style="stop-opacity:1;stop-color:#fb6b67" /></linearGradient><clipPath
       id="clipPath328"
       clipPathUnits="userSpaceOnUse"><path
         id="path326"
         d="m 10219.5,10237.6 -6,2.2 c -40.9,14.8 -66.9,55.1 -63.6,98.4 l 7.2,93.5 c 5.5,71 -50.6,131.5 -121.7,131.5 h -431.35 c -69.12,0 -124.46,-57.3 -122.03,-126.4 l 3.99,-113.5 c 1.38,-39.2 -23.4,-74.6 -60.72,-86.7 -3.22,0.3 -6.32,1 -9.61,1 -62.84,0 -113.8,-50.9 -113.8,-113.8 0,-62.8 50.96,-113.8 113.8,-113.8 3.29,0 6.39,0.7 9.61,1 v -13.1 c 0,-219.4 177.8,-397.2 397.12,-397.2 h 0.01 c 219.28,0 397.08,177.8 397.08,397.2 v 12.1 c 62.9,0 113.8,51 113.8,113.8 0,62.9 -50.9,113.8 -113.8,113.8 z" /></clipPath><linearGradient
       id="linearGradient336"
       spreadMethod="pad"
       gradientTransform="matrix(1.172248,-150.052,150.052,1.172248,1308.2173,1482.8534)"
       gradientUnits="userSpaceOnUse"
       y2="0"
       x2="1"
       y1="0"
       x1="0"><stop
         id="stop330"
         offset="0"
         style="stop-opacity:1;stop-color:#ffacaa" /><stop
         id="stop332"
         offset="0.43592376"
         style="stop-opacity:1;stop-color:#ffacaa" /><stop
         id="stop334"
         offset="1"
         style="stop-opacity:1;stop-color:#fb6b67" /></linearGradient></defs><g
     id="g721"
     transform="translate(-115.33244,-315.32951)"><path
       id="path24"
       style="fill:#e6eff2;fill-opacity:1;fill-rule:nonzero;stroke:none;stroke-width:0.149585"
       d="m 2256.9883,2064.7726 c 114.4776,-170.6529 181.2526,-375.9991 181.2526,-596.9322 0,-592.55539 -480.3484,-1072.91871 -1072.9068,-1072.91871 -592.55385,0 -1072.91273,480.36332 -1072.91273,1072.91871 0,222.2001 67.55123,428.6398 183.23604,599.8791 l 1781.33089,-2.9469" /><path
       id="path26"
       style="fill:#bbe0f8;fill-opacity:1;fill-rule:nonzero;stroke:none;stroke-width:0.133333"
       d="m 1953.6666,1526.9334 v 0 c -36.84,0 -71.6933,8.44 -102.7733,23.4933 v -119.7066 c 0,-52.4934 -42.5467,-95.04 -95.0267,-95.04 H 496.69332 c -52.488,0 -95.03733,42.5466 -95.03733,95.04 v 153.32 c -41.32133,-35.56 -95.04933,-57.1067 -153.844,-57.1067 h -0.001 c -11.02533,0 -19.96267,8.9333 -19.96267,19.96 l 69.72134,510.5067 h 186.26132 v -84.2267 c 0,-31.2133 25.304,-56.52 56.51867,-56.52 H 1661.1333 c 31.2133,0 56.52,25.3067 56.52,56.52 v 84.2267 l 158.88,-2.64 97.0933,-507.8667 c 0,-11.0267 -8.9333,-19.96 -19.96,-19.96" /><path
       id="path28"
       style="fill:#72c4f4;fill-opacity:1;fill-rule:nonzero;stroke:none;stroke-width:0.133333"
       d="m 1718.8,1744.9867 c -0.1734,0 -0.36,-0.013 -0.5334,-0.027 -3.0133,-0.2934 -5.2,-2.9734 -4.9066,-5.9734 3.9866,-40.4 18.2666,-79.44 41.32,-112.8933 22.5733,-32.76 53.16,-59.6933 88.44,-77.8933 2.68,-1.3734 5.9733,-0.3334 7.36,2.3466 1.3866,2.68 0.3333,5.9734 -2.3467,7.36 -33.6933,17.3734 -62.9067,43.1067 -84.4533,74.3867 -22.0134,31.9333 -35.6534,69.2 -39.4534,107.76 -0.2666,2.8267 -2.6533,4.9333 -5.4266,4.9333" /><path
       id="path30"
       style="fill:#72c4f4;fill-opacity:1;fill-rule:nonzero;stroke:none;stroke-width:0.133333"
       d="m 476.99999,1742.8934 c -2.75467,0 -5.12267,-2.0667 -5.424,-4.88 -5.98133,-55.6533 -32.12267,-107.2133 -73.608,-145.1867 -2.224,-2.04 -2.37733,-5.4933 -0.34133,-7.72 2.03866,-2.2266 5.492,-2.3733 7.716,-0.3333 43.44933,39.76 70.82799,93.7733 77.09466,152.08 0.32133,3 -1.848,5.6933 -4.848,6.0133 -0.19733,0.027 -0.39467,0.027 -0.58933,0.027" /><path
       id="path32"
       style="fill:#72c4f4;fill-opacity:1;fill-rule:nonzero;stroke:none;stroke-width:0.133333"
       d="m 483.82665,1797.6267 c -0.81066,0 -1.632,-0.1866 -2.408,-0.56 -2.70666,-1.3333 -3.82,-4.6133 -2.488,-7.3066 9.932,-20.1867 25.27734,-37.1467 44.37467,-49.0267 19.09867,-11.88 41.084,-18.1733 63.57733,-18.1733 H 1614.56 c 44.8666,0 85.68,24.68 106.5333,64.4133 l 1.3867,2.6533 c 1.4133,2.6667 0.3733,5.9734 -2.2934,7.3734 -2.6666,1.4 -5.9733,0.3733 -7.3733,-2.2934 l -1.3867,-2.6533 c -18.96,-36.12 -56.08,-58.56 -96.8666,-58.56 H 586.88265 c -41.996,0 -79.60666,23.4 -98.15333,61.08 -0.94933,1.9333 -2.888,3.0533 -4.90267,3.0533" /><path
       id="path34"
       style="fill:#bbe0f8;fill-opacity:1;fill-rule:nonzero;stroke:none;stroke-width:0.133333"
       d="m 1932.56,1160.6667 h -300.0667 c -11.5867,0 -20.9867,-9.4 -20.9867,-21 V 839.60008 c 0,-11.58667 9.4,-20.98667 20.9867,-20.98667 H 1932.56 c 11.6,0 21,9.4 21,20.98667 v 300.06662 c 0,11.6 -9.4,21 -21,21" /><path
       id="path36"
       style="fill:#ffffff;fill-opacity:1;fill-rule:nonzero;stroke:none;stroke-width:0.133333"
       d="m 1909.4133,1130.9867 h -253.76 c -8,0 -14.48,-6.48 -14.48,-14.4666 V 862.76008 c 0,-8 6.48,-14.48 14.48,-14.48 h 253.76 c 7.9867,0 14.4667,6.48 14.4667,14.48 v 253.76002 c 0,7.9866 -6.48,14.4666 -14.4667,14.4666" /><path
       id="path38"
       style="fill:#72c4f4;fill-opacity:1;fill-rule:nonzero;stroke:none;stroke-width:0.133333"
       d="m 1641.56,1118.1334 v 0 c -0.24,-1 0.08,-2.0533 0.8266,-2.7467 l 71.7334,-66.5866 c 13.04,-11.9734 33.4933,-11.2134 45.6133,1.6933 l 29.08,30.9867 c 2.9067,3.1066 6.8667,4.8533 11.1333,4.9333 4.2267,0.093 8.2667,-1.5333 11.2934,-4.5333 l 107.7733,-106.34669 c 1.8133,-1.78667 4.8667,-0.50667 4.8667,2.02667 v 0.4 c 0,0.76 -0.2934,1.49333 -0.84,2.02666 l -107.4,106.34666 c -4.2267,4.1867 -9.8,6.4533 -15.8134,6.3333 -5.96,-0.1066 -11.4933,-2.56 -15.5733,-6.9066 l -29.08,-30.9867 c -9.7733,-10.4133 -26.2933,-11.0267 -36.8133,-1.36 l -72.08,66.1733 c -1.6134,1.48 -4.2267,0.68 -4.72,-1.4533" /><path
       id="path40"
       style="fill:#72c4f4;fill-opacity:1;fill-rule:nonzero;stroke:none;stroke-width:0.133333"
       d="m 1826.1866,1019.5201 c 0,12.0533 -9.7733,21.8266 -21.8266,21.8266 -12.0534,0 -21.8267,-9.7733 -21.8267,-21.8266 0,-12.0534 9.7733,-21.82669 21.8267,-21.82669 12.0533,0 21.8266,9.77329 21.8266,21.82669" /><path
       id="path42"
       style="fill:#72c4f4;fill-opacity:1;fill-rule:nonzero;stroke:none;stroke-width:0.133333"
       d="m 1686.5066,927.76008 c -5.36,0 -9.72,4.36 -9.72,9.72 0,5.36 4.36,9.72 9.72,9.72 h 88.6134 c 12.7866,0 23.2,-10.4 23.2,-23.2 0,-12.78667 -10.4134,-23.2 -23.2,-23.2 -3.0534,0 -6.0267,0.58667 -8.8534,1.76 l -3.6,1.48 -0.6666,-3.82667 c -1.96,-11.10666 -11.56,-19.17333 -22.8267,-19.17333 -12.08,0 -22.24,9.44 -23.12,21.49333 l -0.2267,3.25334 -3.24,-0.37334 c -0.8,-0.08 -1.52,-0.13333 -2.2,-0.13333 -10.64,0 -19.2933,8.62667 -19.3466,19.25333 0,0.08 0.013,0.16 0.013,0.24 v 3.49334 l -3.9733,-0.45334 c -0.1867,-0.0267 -0.3734,-0.0533 -0.5734,-0.0533 z m 88.6134,25.69333 h -88.6134 c -8.8,0 -15.9733,-7.16 -15.9733,-15.97333 0,-8.29333 6.3467,-15.12 14.4267,-15.90667 1.5066,-12.62666 12.24,-22.45333 25.24,-22.54666 2.4933,-13.81334 14.6666,-24.24 28.9733,-24.24 13.0933,0 24.4,8.56 28.1333,20.81333 2.5467,-0.70667 5.1467,-1.05333 7.8134,-1.05333 16.24,0 29.4533,13.21333 29.4533,29.45333 0,16.24 -13.2133,29.45333 -29.4533,29.45333" /><path
       id="path46"
       style="fill:#bbe0f8;fill-opacity:1;fill-rule:nonzero;stroke:none;stroke-width:0.140115"
       d="M 1427.9926,446.79769 H 723.0407 c -31.69673,0 -57.39237,25.69707 -57.39237,57.39093 v 192.30746 c 0,31.69387 25.69564,57.39094 57.39237,57.39094 h 581.0191 l 21.2708,90.96239 c 2.9298,12.52627 20.6459,12.83454 24.0199,0.4064 l 24.7329,-91.36879 h 53.9092 c 31.6939,0 57.391,-25.69707 57.391,-57.39094 V 504.18862 c 0,-31.69386 -25.6971,-57.39093 -57.391,-57.39093" /><path
       id="path50"
       style="fill:#ffffff;fill-opacity:1;fill-rule:nonzero;stroke:none;stroke-width:0.134824"
       d="m 1368.9489,562.35982 h -351.9297 c -8.1002,0 -14.6635,-6.566 -14.6635,-14.65547 v 0 c 0,-8.10293 6.5633,-14.6688 14.6635,-14.6688 h 351.9297 c 8.0895,0 14.6689,6.56587 14.6689,14.6688 v 0 c 0,8.08947 -6.5794,14.65547 -14.6689,14.65547" /><path
       id="path52"
       style="fill:#ffffff;fill-opacity:1;fill-rule:nonzero;stroke:none;stroke-width:0.133333"
       d="M 1368.9466,614.49342 H 1017.02 c -8.0987,0 -14.6627,-6.56 -14.6627,-14.66667 v 0 c 0,-8.09333 6.564,-14.65333 14.6627,-14.65333 h 351.9266 c 8.0934,0 14.6667,6.56 14.6667,14.65333 v 0 c 0,8.10667 -6.5733,14.66667 -14.6667,14.66667" /><path
       id="path54"
       style="fill:#ffffff;fill-opacity:1;fill-rule:nonzero;stroke:none;stroke-width:0.133333"
       d="M 1189.2573,667.25342 H 1017.02 c -8.0987,0 -14.6627,-6.56 -14.6627,-14.66667 v 0 c 0,-8.09333 6.564,-14.65333 14.6627,-14.65333 h 172.2373 c 8.0987,0 14.664,6.56 14.664,14.65333 v 0 c 0,8.10667 -6.5653,14.66667 -14.664,14.66667" /><path
       id="path58"
       style="fill:#72c4f4;fill-opacity:1;fill-rule:nonzero;stroke:none;stroke-width:0.135425"
       d="m 934.55666,523.23382 -95.78904,76.908 -95.7904,-76.908 c -7.01233,3.62934 -11.85649,10.87467 -11.85649,19.3252 v 115.1792 c 0,12.0664 9.78312,21.84413 21.84952,21.84413 h 171.59473 c 12.06774,0 21.84952,-9.77773 21.84952,-21.84413 v -115.1792 c 0,-8.45053 -4.84416,-15.69586 -11.85784,-19.3252" /><path
       id="path62"
       style="fill:#ffffff;fill-opacity:1;fill-rule:nonzero;stroke:none;stroke-width:0.13558"
       d="m 934.55563,523.23449 c -3.00716,-1.55907 -6.37091,-2.52173 -9.99225,-2.52173 H 752.96927 c -3.62134,0 -6.98508,0.96266 -9.9936,2.52173 l 95.79134,76.91453 95.78862,-76.91453" /><path
       id="path64"
       style="fill:#72c4f4;fill-opacity:1;fill-rule:nonzero;stroke:none;stroke-width:0.133333"
       d="M 1128.2106,802.72008 H 321.58399 c -36.26933,0 -65.672,29.41333 -65.672,65.68 v 220.04002 c 0,36.2666 29.40267,65.6666 65.672,65.6666 h 664.82932 l 57.12799,113.2267 c 5.764,11.4133 22.996,7.32 22.996,-5.48 v -107.7467 h 61.6747 c 36.268,0 65.6706,-29.4 65.6706,-65.6666 V 868.40008 c 0,-36.26667 -29.4026,-65.68 -65.672,-65.68" /><path
       id="path66"
       style="fill:#ffffff;fill-opacity:1;fill-rule:nonzero;stroke:none;stroke-width:0.133333"
       d="M 1006.8466,934.29341 H 604.15732 c -9.26667,0 -16.77867,-7.52 -16.77867,-16.78666 v 0 c 0,-9.26667 7.512,-16.77334 16.77867,-16.77334 h 402.68928 c 9.2654,0 16.7787,7.50667 16.7787,16.77334 v 0 c 0,9.26666 -7.5133,16.78666 -16.7787,16.78666" /><path
       id="path68"
       style="fill:#ffffff;fill-opacity:1;fill-rule:nonzero;stroke:none;stroke-width:0.133333"
       d="M 1006.8466,993.94674 H 604.15732 c -9.26667,0 -16.77867,-7.50666 -16.77867,-16.77333 v 0 c 0,-9.26667 7.512,-16.78667 16.77867,-16.78667 h 402.68928 c 9.2654,0 16.7787,7.52 16.7787,16.78667 v 0 c 0,9.26667 -7.5133,16.77333 -16.7787,16.77333" /><path
       id="path70"
       style="fill:#ffffff;fill-opacity:1;fill-rule:nonzero;stroke:none;stroke-width:0.133333"
       d="M 801.24131,1054.3201 H 604.15732 c -9.26667,0 -16.77867,-7.5067 -16.77867,-16.7734 v 0 c 0,-9.2666 7.512,-16.7866 16.77867,-16.7866 h 197.08399 c 9.26534,0 16.77867,7.52 16.77867,16.7866 v 0 c 0,9.2667 -7.51333,16.7734 -16.77867,16.7734" /><path
       id="path72"
       style="fill:#bbe0f8;fill-opacity:1;fill-rule:nonzero;stroke:none;stroke-width:0.133333"
       d="m 426.35332,1015.9467 c -24.80666,0 -44.91866,-20.10662 -44.91866,-44.91996 0,-24.81333 20.112,-44.91999 44.91866,-44.91999 24.808,0 44.91867,20.10666 44.91867,44.91999 0,24.81334 -20.11067,44.91996 -44.91867,44.91996 34.124,0 64.28,16.7467 82.848,42.44 20.376,-20.8666 32.94933,-49.3866 32.94933,-80.86662 0,-63.94667 -51.844,-115.78667 -115.79733,-115.78667 -63.952,0 -115.79599,51.84 -115.79599,115.78667 0,31.48002 12.57333,60.00002 32.94933,80.86662 18.568,-25.6933 48.72266,-42.44 82.84666,-42.44" /><path
       id="path74"
       style="fill:#ffffff;fill-opacity:1;fill-rule:nonzero;stroke:none;stroke-width:0.133333"
       d="m 471.27199,971.02674 c 0,-24.81333 -20.11067,-44.91999 -44.91867,-44.91999 -24.80666,0 -44.91866,20.10666 -44.91866,44.91999 0,24.81334 20.112,44.91996 44.91866,44.91996 24.808,0 44.91867,-20.10662 44.91867,-44.91996" /><path
       id="path76"
       style="fill:#ffffff;fill-opacity:1;fill-rule:nonzero;stroke:none;stroke-width:0.133333"
       d="m 426.35332,1093.3201 c 32.48134,0 61.82,-13.3867 82.848,-34.9334 -18.568,-25.6933 -48.724,-42.44 -82.848,-42.44 -34.124,0 -64.27866,16.7467 -82.84666,42.44 21.028,21.5467 50.36666,34.9334 82.84666,34.9334" /><path
       id="path80"
       style="fill:#b3e0dc;fill-opacity:1;fill-rule:nonzero;stroke:none;stroke-width:0.142547"
       d="m 2323.5106,1474.2647 c 0,0 -57.988,-359.3074 -114.8356,-369.5422 -56.8619,-10.235 48.8935,369.5422 48.8935,369.5422 h 65.9421" /><path
       id="path84"
       style="fill:#000000;fill-opacity:1;fill-rule:nonzero;stroke:none;stroke-width:0.14042"
       d="m 2287.3434,1465.1638 c -0.6179,0 -1.1795,-0.4255 -1.3199,-1.0658 l -76.4306,-328.785 c -0.1686,-0.7301 0.2808,-1.4604 1.011,-1.6289 0.7302,-0.1684 1.4884,0.2809 1.643,1.011 l 76.4305,328.7893 c 0.1685,0.7329 -0.2808,1.4659 -1.0251,1.6401 -0.099,0.027 -0.2105,0.039 -0.3089,0.039" /><path
       id="path88"
       style="fill:#000000;fill-opacity:1;fill-rule:nonzero;stroke:none;stroke-width:0.138077"
       d="m 2234.2707,1236.8633 c -0.1106,0 -0.2624,-0.013 -0.4005,-0.055 -0.718,-0.2209 -1.1184,-0.9941 -0.8836,-1.7121 l 14.8433,-48.1891 c 0.221,-0.718 0.9942,-1.1184 1.7122,-0.8975 0.718,0.221 1.1184,0.9804 0.8974,1.7122 l -14.857,48.1752 c -0.1796,0.5937 -0.718,0.9665 -1.3118,0.9665" /><path
       id="path92"
       style="fill:#000000;fill-opacity:1;fill-rule:nonzero;stroke:none;stroke-width:0.137936"
       d="m 2246.8118,1290.7529 c -0.4137,0 -0.8137,-0.1794 -1.0759,-0.5242 l -35.9046,-46.9121 c -0.4415,-0.5931 -0.3311,-1.4483 0.262,-1.9173 0.5932,-0.4551 1.4621,-0.331 1.9173,0.2621 l 35.8772,46.8983 c 0.4689,0.6069 0.3448,1.4621 -0.2484,1.9173 -0.2483,0.1931 -0.5379,0.2759 -0.8276,0.2759" /><path
       id="path96"
       style="fill:#000000;fill-opacity:1;fill-rule:nonzero;stroke:none;stroke-width:0.140423"
       d="m 2263.3465,1361.8561 c -0.1684,0 -0.309,-0.027 -0.4774,-0.08 -0.7021,-0.2543 -1.0672,-1.0266 -0.8145,-1.747 l 24.0123,-67.3888 c 0.2528,-0.7161 1.0392,-1.0812 1.7413,-0.8285 0.702,0.2528 1.0812,1.0392 0.8284,1.7413 l -24.0123,67.3959 c -0.1965,0.5603 -0.7161,0.9071 -1.2778,0.9071" /><path
       id="path100"
       style="fill:#000000;fill-opacity:1;fill-rule:nonzero;stroke:none;stroke-width:0.139824"
       d="m 2277.621,1423.3207 c -0.3635,0 -0.7131,-0.1454 -0.9788,-0.4264 l -35.9068,-37.4798 c -0.5313,-0.5468 -0.5173,-1.3998 0.043,-1.9199 0.5453,-0.5327 1.3982,-0.5061 1.9156,0.04 l 35.9208,37.4658 c 0.5173,0.5467 0.5033,1.4136 -0.041,1.9337 -0.2656,0.2531 -0.6012,0.386 -0.9508,0.386" /><path
       id="path104"
       style="fill:#b3e0dc;fill-opacity:1;fill-rule:nonzero;stroke:none;stroke-width:0.154229"
       d="m 2359.3231,1472.8109 c 0,0 -6.8786,-489.60882 73.8759,-527.41042 80.7391,-37.8016 -10.3179,527.41042 -10.3179,527.41042 h -63.558" /><path
       id="path108"
       style="fill:#000000;fill-opacity:1;fill-rule:nonzero;stroke:none;stroke-width:0.149509"
       d="m 2388.8002,1474.1858 c -0.045,0 -0.089,-0.014 -0.1345,-0.014 -0.7624,-0.067 -1.3007,-0.746 -1.226,-1.4936 l 46.7814,-474.24209 c 0.075,-0.74747 0.7327,-1.30067 1.4803,-1.22587 0.7475,0.0747 1.3007,0.74747 1.2408,1.49507 l -46.7964,474.23909 c -0.06,0.7072 -0.6577,1.2409 -1.3456,1.2409" /><path
       id="path112"
       style="fill:#000000;fill-opacity:1;fill-rule:nonzero;stroke:none;stroke-width:0.148875"
       d="m 2425.1235,1105.8783 c -0.5805,0 -1.1165,-0.3721 -1.31,-0.9528 l -21.3636,-68.6013 c -0.2084,-0.7296 0.1936,-1.4888 0.9082,-1.7121 0.7296,-0.2234 1.4888,0.1786 1.7121,0.8933 l 21.3635,68.6013 c 0.2233,0.7296 -0.1787,1.4888 -0.8932,1.7122 -0.149,0.045 -0.283,0.06 -0.417,0.06" /><path
       id="path116"
       style="fill:#000000;fill-opacity:1;fill-rule:nonzero;stroke:none;stroke-width:0.150779"
       d="m 2418.6103,1171.8867 c -0.3014,0 -0.6181,-0.091 -0.8594,-0.3016 -0.588,-0.4673 -0.6784,-1.3268 -0.2111,-1.9148 l 37.5591,-46.2438 c 0.4673,-0.588 1.3268,-0.6786 1.9148,-0.196 0.588,0.4673 0.6785,1.3268 0.196,1.9149 l -37.5439,46.2437 c -0.2713,0.3318 -0.6483,0.4976 -1.0555,0.4976" /><path
       id="path120"
       style="fill:#000000;fill-opacity:1;fill-rule:nonzero;stroke:none;stroke-width:0.148123"
       d="m 2412.8738,1230.0211 c -0.5777,0 -1.1257,-0.385 -1.3036,-0.9776 l -24.0847,-81.2452 c -0.2222,-0.7258 0.1926,-1.4813 0.9184,-1.7034 0.7258,-0.2222 1.496,0.2073 1.7034,0.9184 l 24.0848,81.2452 c 0.2073,0.7258 -0.2075,1.4961 -0.9332,1.7034 -0.1334,0.044 -0.2667,0.059 -0.3851,0.059" /><path
       id="path124"
       style="fill:#000000;fill-opacity:1;fill-rule:nonzero;stroke:none;stroke-width:0.150035"
       d="m 2405.0106,1309.8819 c -0.2851,0 -0.5851,-0.088 -0.8252,-0.27 -0.6001,-0.4486 -0.7201,-1.3038 -0.27,-1.91 l 38.994,-52.6621 c 0.4501,-0.6061 1.3053,-0.7337 1.9204,-0.2836 0.6001,0.4471 0.7352,1.3039 0.2851,1.9084 l -39.024,52.6637 c -0.2551,0.3616 -0.6752,0.5536 -1.0803,0.5536" /><path
       id="path128"
       style="fill:#000000;fill-opacity:1;fill-rule:nonzero;stroke:none;stroke-width:0.14718"
       d="m 2397.5179,1385.8359 c -0.5886,0 -1.1332,-0.387 -1.3098,-0.9728 l -22.4303,-74.3538 c -0.206,-0.7227 0.1913,-1.4851 0.9125,-1.703 0.7359,-0.2177 1.4866,0.1914 1.7074,0.9126 l 22.4302,74.3568 c 0.206,0.7197 -0.1913,1.4806 -0.9125,1.6941 -0.132,0.04 -0.2649,0.067 -0.3975,0.067" /><path
       id="path132"
       style="fill:#000000;fill-opacity:1;fill-rule:nonzero;stroke:none;stroke-width:0.149217"
       d="m 2392.4163,1437.5314 c -0.3133,0 -0.6416,-0.1193 -0.9101,-0.3462 -0.5521,-0.4939 -0.6268,-1.3459 -0.12,-1.9204 l 38.3041,-43.9459 c 0.4924,-0.5731 1.3579,-0.6268 1.925,-0.1344 0.5669,0.494 0.6266,1.3609 0.1342,1.9338 l -38.3041,43.9476 c -0.2685,0.3059 -0.6565,0.4655 -1.0296,0.4655" /><path
       id="path136"
       style="fill:#8bd0ca;fill-opacity:1;fill-rule:nonzero;stroke:none;stroke-width:0.145951"
       d="m 2294.8114,1472.8157 c 1.3136,0 -84.1697,-687.89028 0,-698.41335 84.1844,-10.52293 80.2437,698.41335 80.2437,698.41335 h -80.2437" /><path
       id="path140"
       style="fill:#000000;fill-opacity:1;fill-rule:nonzero;stroke:none;stroke-width:0.143413"
       d="m 2336.2175,1465.1617 c -0.717,0 -1.3194,-0.5737 -1.3481,-1.2936 l -34.62,-644.14095 c -0.043,-0.76014 0.5307,-1.40547 1.2907,-1.43414 0.7458,-0.0427 1.4054,0.53054 1.4485,1.29067 l 34.6056,644.13812 c 0.043,0.7457 -0.5449,1.3868 -1.2907,1.4399 -0.028,0 -0.057,0 -0.085,0" /><path
       id="path144"
       style="fill:#000000;fill-opacity:1;fill-rule:nonzero;stroke:none;stroke-width:0.142012"
       d="m 2313.2334,1037.2873 c -0.5112,0 -1.0225,-0.3124 -1.2497,-0.8238 l -43.1148,-97.88876 c -0.2983,-0.68173 0.015,-1.4912 0.6958,-1.8036 0.71,-0.29826 1.5054,0.0147 1.8178,0.71014 l 43.1006,97.88882 c 0.3124,0.6958 -0.015,1.4912 -0.6958,1.8036 -0.1847,0.071 -0.3692,0.1133 -0.5539,0.1133" /><path
       id="path148"
       style="fill:#000000;fill-opacity:1;fill-rule:nonzero;stroke:none;stroke-width:0.144319"
       d="m 2320.1823,1166.5987 c -0.1588,0 -0.3176,-0.029 -0.4762,-0.087 -0.7072,-0.2599 -1.0536,-1.0536 -0.8083,-1.7607 l 30.6821,-81.8865 c 0.2743,-0.7071 1.0536,-1.0679 1.7463,-0.8082 0.7072,0.2743 1.068,1.0536 0.8083,1.7607 l -30.6678,81.9009 c -0.2021,0.5484 -0.7216,0.8803 -1.2844,0.8803" /><path
       id="path152"
       style="fill:#000000;fill-opacity:1;fill-rule:nonzero;stroke:none;stroke-width:0.142787"
       d="m 2325.8662,1272.0581 c -0.514,0 -1.0137,-0.2856 -1.2423,-0.7854 l -46.0486,-100.179 c -0.2999,-0.6854 0,-1.4994 0.6853,-1.8135 0.6855,-0.3141 1.4993,-0.015 1.7992,0.6712 l 46.0487,100.1791 c 0.3141,0.6853 0.015,1.4993 -0.6711,1.8134 -0.1856,0.085 -0.3713,0.1147 -0.5712,0.1147" /><path
       id="path156"
       style="fill:#000000;fill-opacity:1;fill-rule:nonzero;stroke:none;stroke-width:0.145245"
       d="m 2332.3931,1393.5833 c -0.2178,0 -0.4357,-0.053 -0.6392,-0.1599 -0.6681,-0.3601 -0.9149,-1.1867 -0.5809,-1.8533 l 33.5517,-63.4534 c 0.3631,-0.6666 1.191,-0.9208 1.8591,-0.5678 0.6681,0.3514 0.9151,1.1765 0.552,1.8432 l -33.5372,63.4576 c -0.2469,0.4662 -0.7117,0.7336 -1.2055,0.7336" /><path
       id="path160"
       style="fill:#000000;fill-opacity:1;fill-rule:nonzero;stroke:none;stroke-width:0.143332"
       d="m 2334.7493,1437.5312 c -0.4587,0 -0.9318,-0.2537 -1.1898,-0.6809 l -47.3856,-81.7996 c -0.3869,-0.6536 -0.1576,-1.4934 0.5018,-1.8676 0.6449,-0.3856 1.4906,-0.159 1.8633,0.4931 l 47.3999,81.801 c 0.3726,0.6536 0.1433,1.4935 -0.5016,1.8662 -0.2151,0.1204 -0.4444,0.1878 -0.688,0.1878" /><path
       id="path164"
       style="fill:#72c4f4;fill-opacity:1;fill-rule:nonzero;stroke:none;stroke-width:0.14994"
       d="m 2336.2301,1832.877 v 0 c -59.5112,0 -107.7619,-48.2537 -107.7619,-107.7739 v -261.3214 h 215.5537 v 261.3214 c 0,59.5202 -48.2506,107.7739 -107.7918,107.7739" /><path
       id="path168"
       style="fill:#bbe0f8;fill-opacity:1;fill-rule:nonzero;stroke:none;stroke-width:0.151451"
       d="m 2455.1818,1490.731 h -237.8835 c -7.4362,0 -13.464,-6.0277 -13.464,-13.467 v 0 c 0,-7.4407 6.0278,-13.4806 13.464,-13.4806 h 237.8835 c 7.4363,0 13.464,6.0399 13.464,13.4806 v 0 c 0,7.4393 -6.0277,13.467 -13.464,13.467" /><path
       id="path172"
       style="fill:#bbe0f8;fill-opacity:1;fill-rule:nonzero;stroke:none;stroke-width:0.152595"
       d="m 2461.4434,1725.3593 v 19.8938 h -257.6103 v -19.8938 h -25.8648 v 19.8938 29.3333 280.5468 h 25.8648 v -280.5468 h 257.6103 v 280.5468 h 25.8496 v -280.5468 -29.3333 -19.8938 h -25.8496" /><path
       id="path176"
       style="fill:#000000;fill-opacity:1;fill-rule:nonzero;stroke:none;stroke-width:0.155952"
       d="m 193.4413,2054.3996 c 0.007,0 0.012,0 0.0172,0.012 -0.005,-0.012 -0.0107,-0.012 -0.0172,-0.012 z m 606.55501,8.9859 c -603.45937,0 -607.47669,-2.0133 -609.46039,-2.9864 -1.65466,-0.8141 -2.3424,-2.7994 -1.53458,-4.454 0.73142,-1.5065 2.43442,-2.213 3.97678,-1.7327 11.40321,1.8668 267.2565,2.4937 606.04505,2.4937 689.96603,0 1724.12423,-2.5997 1739.64143,-2.6402 v 0 c 1.8401,0 3.3373,1.4924 3.3373,3.3326 0.016,1.8403 -1.4816,3.3343 -3.3217,3.3343 -5.8327,0.012 -590.3252,1.4925 -1168.7854,2.2254 -233.0141,0.2932 -420.00054,0.4273 -569.89849,0.4273" /><path
       id="path178"
       style="fill:#bbe0f8;fill-opacity:1;fill-rule:nonzero;stroke:none;stroke-width:0.133333"
       d="m 1916.2133,2185.3067 c 0,70.64 -288.0933,127.92 -643.4693,127.92 -355.38269,0 -643.47602,-57.28 -643.47602,-127.92 0,-70.64 288.09333,-127.9066 643.47602,-127.9066 355.376,0 643.4693,57.2666 643.4693,127.9066" /><path
       id="path180"
       style="fill:#000000;fill-opacity:1;fill-rule:nonzero;stroke:none;stroke-width:0.133333"
       d="m 1394.0933,1248.5867 c -2.3733,0 -16.1867,0 -82.6693,0 -94.268,0 -65.152,47.6267 -65.152,47.6267 -16.8827,32.1333 7.1013,78.1867 7.1013,78.1867 h 57.2227 0.4853 57.2253 c 0,0 23.9867,-46.0534 7.0934,-78.1867 -0.2934,-0.56 -0.6534,-1.0267 -0.96,-1.56 29.2933,-10.8133 19.6533,-46.0667 19.6533,-46.0667" /><path
       id="path182"
       style="fill:#050542;fill-opacity:1;fill-rule:nonzero;stroke:none;stroke-width:0.133333"
       d="M 1642.0266,2075.76 H 933.51998 V 1917.6267 H 1642.0266 V 2075.76" /><path
       id="path184"
       style="fill:#050542;fill-opacity:1;fill-rule:nonzero;stroke:none;stroke-width:0.133333"
       d="m 1539.64,2039.9334 v 125.4533 H 989.16931 c -11.16,0 -22.05867,-3.1333 -31.524,-9.0533 -42.628,-26.64 -153.888,-109.48 -85.432,-213.28 13.30533,-20.1733 37.616,-30.2 61.30667,-25.4267 L 1539.64,2039.9334" /><path
       id="path204"
       style="fill:url(#linearGradient202);fill-opacity:1;fill-rule:nonzero;stroke:none;stroke-width:0.133333"
       d="m 990.05198,2289.5467 -15.90267,-72.2933 125.64129,-51.7467 21.84,99.2933 -131.57862,24.7467" /><path
       id="path206"
       style="fill:#050542;fill-opacity:1;fill-rule:nonzero;stroke:none;stroke-width:0.133333"
       d="m 1096.3413,2278.2534 538.1387,-115.88 c 10.9066,-2.36 20.9066,-7.72 28.9066,-15.4934 36.0667,-35.0133 127.3867,-139.4266 38.6134,-226.4933 -17.2534,-16.92 -43.12,-21.6 -65.28,-11.9466 L 1069.9306,2155.6" /><path
       id="path208"
       style="fill:#bbe0f8;fill-opacity:1;fill-rule:nonzero;stroke:none;stroke-width:0.133333"
       d="m 1069.932,2158.3334 c -1.08,0 -2.1027,-0.6534 -2.5334,-1.7067 -0.5653,-1.4 0.1107,-3 1.5094,-3.56 l 401.3453,-162.08 c 1.3867,-0.56 2.9867,0.1067 3.5467,1.5067 0.5733,1.4 -0.1067,3 -1.5067,3.56 l -401.34,162.08 c -0.3347,0.1333 -0.6813,0.2 -1.0213,0.2" /><path
       id="path210"
       style="fill:#000000;fill-opacity:1;fill-rule:nonzero;stroke:none;stroke-width:0.133333"
       d="m 942.01998,2325.5734 c 1.80266,8.1866 10.74933,12.4533 18.35466,8.9066 30.412,-14.16 48.03996,-47.9733 40.53196,-82.0933 -7.50662,-34.1333 -37.69329,-57.4267 -71.24262,-57.52 -8.38934,-0.027 -14.72267,7.6 -12.92,15.7867 l 25.276,114.92" /><path
       id="path212"
       style="fill:#bbe0f8;fill-opacity:1;fill-rule:nonzero;stroke:none;stroke-width:0.133333"
       d="m 1348.0666,1999.4267 c -0.1733,0 -0.3466,-0.013 -0.5066,-0.04 l -371.49602,-70.3866 c -1.48134,-0.28 -2.45467,-1.7067 -2.17467,-3.1867 0.28133,-1.48 1.712,-2.4533 3.192,-2.1733 l 371.49199,70.3733 c 1.48,0.28 2.4533,1.7067 2.1733,3.1867 -0.2533,1.32 -1.4,2.2266 -2.68,2.2266" /><path
       id="path232"
       style="fill:url(#linearGradient230);fill-opacity:1;fill-rule:nonzero;stroke:none;stroke-width:0.133333"
       d="m 1614.3866,1900.3867 6.04,-1.9733 c 27.6,-9.0267 42.6534,-38.6933 33.6267,-66.2933 l -52.08,-162.4134 -101.1333,52.0667 47.2533,144.9867 c 9.0267,27.5866 38.7067,42.64 66.2933,33.6266" /><path
       id="path252"
       style="fill:url(#linearGradient250);fill-opacity:1;fill-rule:nonzero;stroke:none;stroke-width:0.133333"
       d="m 1376.4933,1976.4134 255.32,-81.3867 c 19.48,-6.2133 29.7733,-27.48 22.5467,-46.6133 v 0 c -10.84,-28.72 -78.7467,-33.72 -107.4667,-22.88 l -187.4267,105.7867 17.0267,45.0933" /><path
       id="path272"
       style="fill:url(#linearGradient270);fill-opacity:1;fill-rule:nonzero;stroke:none;stroke-width:0.133333"
       d="m 994.42531,1900.3867 -6.044,-1.9733 c -27.59067,-9.0267 -42.64667,-38.6933 -33.628,-66.2933 l 52.08129,-162.4134 101.1347,52.0667 -47.256,144.9867 c -9.0187,27.5866 -38.6973,42.64 -66.28799,33.6266" /><path
       id="path292"
       style="fill:url(#linearGradient290);fill-opacity:1;fill-rule:nonzero;stroke:none;stroke-width:0.133333"
       d="m 1232.3213,1976.4134 -255.32132,-81.3867 c -19.47867,-6.2133 -29.77067,-27.48 -22.552,-46.6133 h 10e-4 c 10.84,-28.72 78.75072,-33.72 107.47332,-22.88 l 187.4187,105.7867 -17.02,45.0933" /><path
       id="path314"
       style="fill:url(#linearGradient312);fill-opacity:1;fill-rule:nonzero;stroke:none;stroke-width:0.133333"
       d="m 1357.88,1527.1201 h -97.7347 l 11.6147,-97.2 h 74.5066 l 11.6134,97.2" /><path
       id="path316"
       style="fill:#007cf4;fill-opacity:1;fill-rule:nonzero;stroke:none;stroke-width:0.133333"
       d="m 1616.92,1666.6267 -47.24,-91.7466 c -32.2934,-62.7334 -96.6,-98.2 -162.68,-96.7734 -6.0134,-0.9466 -12.1467,-1.5466 -18.44,-1.5466 h -169.8987 c -6.284,0 -12.4053,0.6 -18.4093,1.5333 -65.2187,-0.5067 -128.34,34.84 -160.2307,96.7867 l -47.23466,91.7466 118.63466,61.08 10.432,252.2934 c 0.312,7.56 6.5293,13.52 14.092,13.52 h 335.3213 c 7.5734,0 13.7867,-5.96 14.0934,-13.52 l 10.3866,-250.9867 121.1734,-62.3867" /><path
       id="path318"
       style="fill:#1f191a;fill-opacity:1;fill-rule:nonzero;stroke:none;stroke-width:0.133333"
       d="m 1495.4933,1729.0401 c -0.027,0 -0.053,0 -0.093,0 -0.8534,-0.053 -1.5067,-0.7867 -1.4667,-1.64 l 5.52,-103.0534 c 0.053,-0.8533 0.76,-1.52 1.64,-1.4666 0.8533,0.04 1.5067,0.7733 1.4667,1.6266 l -5.52,103.0667 c -0.04,0.8267 -0.7334,1.4667 -1.5467,1.4667" /><path
       id="path320"
       style="fill:#1f191a;fill-opacity:1;fill-rule:nonzero;stroke:none;stroke-width:0.133333"
       d="m 1110.9946,1729.0401 c -0.82,0 -1.504,-0.64 -1.5493,-1.4667 l -5.516,-103.0667 c -0.045,-0.8533 0.6107,-1.5866 1.4667,-1.6266 0.844,-0.04 1.5866,0.6 1.632,1.4666 l 5.5173,103.0534 c 0.045,0.8533 -0.6107,1.5866 -1.4667,1.64 -0.028,0 -0.056,0 -0.084,0" /><path
       id="path338"
       style="fill:url(#linearGradient336);fill-opacity:1;fill-rule:nonzero;stroke:none;stroke-width:0.133333"
       d="m 1362.6,1365.6534 -0.8,-0.2933 c -5.4534,-1.9734 -8.92,-7.3467 -8.48,-13.12 l 0.96,-12.4667 c 0.7333,-9.4667 -6.7467,-17.5333 -16.2267,-17.5333 H 1280.54 c -9.216,0 -16.5947,7.64 -16.2707,16.8533 l 0.532,15.1333 c 0.184,5.2267 -3.12,9.9467 -8.096,11.56 -0.4293,-0.04 -0.8427,-0.1333 -1.2813,-0.1333 -8.3787,0 -15.1734,6.7867 -15.1734,15.1733 0,8.3734 6.7947,15.1734 15.1734,15.1734 0.4386,0 0.852,-0.093 1.2813,-0.1334 v 1.7467 c 0,29.2533 23.7067,52.96 52.9493,52.96 v 0 c 29.2373,0 52.944,-23.7067 52.944,-52.96 v -1.6133 c 8.3866,0 15.1733,-6.8 15.1733,-15.1734 0,-8.3866 -6.7867,-15.1733 -15.1733,-15.1733" /><path
       id="path340"
       style="fill:#bbe0f8;fill-opacity:1;fill-rule:nonzero;stroke:none;stroke-width:0.133333"
       d="m 1475.3333,2006.2267 h -345.968 c -6.5133,0 -11.9547,-4.96 -12.556,-11.44 l -26.276,-283.3733 c -0.6853,-7.4 5.132,-13.7733 12.556,-13.7733 h 403.524 c 7.5067,0 13.36,6.52 12.5333,13.9866 l -31.2666,283.3734 c -0.7067,6.3866 -6.1067,11.2266 -12.5467,11.2266" /><path
       id="path342"
       style="fill:#72c4f4;fill-opacity:1;fill-rule:nonzero;stroke:none;stroke-width:0.133333"
       d="m 1340.1066,1851.9334 c 0,19.4 -15.7266,35.1333 -35.1333,35.1333 -19.4067,0 -35.1387,-15.7333 -35.1387,-35.1333 0,-19.4133 15.732,-35.1467 35.1387,-35.1467 19.4067,0 35.1333,15.7334 35.1333,35.1467" /><path
       id="path344"
       style="fill:#72c4f4;fill-opacity:1;fill-rule:nonzero;stroke:none;stroke-width:0.133333"
       d="m 1501,1708.4934 h -393.1894 v -3.2933 H 1501 v 3.2933" /></g></svg>
